<svg xmlns="http://www.w3.org/2000/svg" width="3756" height="4363" viewBox="0 0 3756 4363" version="1.1"><path d="M 2042.748 2688.427 C 2028.442 2693.532, 2016.816 2713.467, 2010.783 2743.237 C 2008.777 2753.131, 2008.506 2757.356, 2008.551 2778 C 2008.595 2798.242, 2008.903 2802.886, 2010.771 2811.500 C 2015.166 2831.763, 2021.179 2845.753, 2029.326 2854.666 C 2035.495 2861.416, 2040.851 2864.267, 2047.488 2864.334 C 2064.390 2864.505, 2079.159 2843.020, 2086.070 2808.208 C 2088.758 2794.667, 2089.730 2768.628, 2088.094 2753.976 C 2086.057 2735.720, 2080.124 2715.462, 2073.789 2705.129 C 2069.900 2698.786, 2062.665 2691.783, 2057.500 2689.363 C 2051.854 2686.717, 2048.191 2686.484, 2042.748 2688.427" stroke="none" fill="#ebbf00" fill-rule="evenodd"/></svg>