<svg xmlns="http://www.w3.org/2000/svg" width="3756" height="4363" viewBox="0 0 3756 4363" version="1.1"><path d="M 1232.500 1765.688 C 1214.653 1772.263, 1203.758 1784.712, 1200.811 1801.899 C 1195.805 1831.087, 1217.677 1855.345, 1249 1855.345 C 1272.825 1855.345, 1292.471 1841.694, 1298.157 1821.189 C 1302.785 1804.499, 1298.336 1787.282, 1286.503 1776.091 C 1276.686 1766.807, 1265.970 1762.972, 1250.068 1763.055 C 1241.274 1763.100, 1238.325 1763.542, 1232.500 1765.688" stroke="none" fill="#bc002c" fill-rule="evenodd"/><path d="M 1437.500 1452.318 C 1451.250 1455.782, 1465.650 1459.672, 1469.500 1460.962 C 1478.529 1463.989, 1518.696 1485.350, 1531 1493.669 C 1536.225 1497.202, 1539.150 1498.938, 1537.500 1497.527 C 1527.546 1489.017, 1487.442 1466.460, 1471.809 1460.579 C 1464.604 1457.868, 1424.402 1447.638, 1417 1446.631 C 1414.525 1446.295, 1423.750 1448.854, 1437.500 1452.318 M 1290.869 1570.437 C 1290.666 1570.625, 1288.475 1571.007, 1286 1571.286 C 1262.545 1573.928, 1223.141 1605.158, 1201.247 1638.456 C 1193.420 1650.359, 1185.774 1665.955, 1183.329 1675 C 1180.689 1684.768, 1180.919 1696.319, 1183.871 1702.316 C 1187.366 1709.414, 1192.228 1712.275, 1201.304 1712.574 C 1210.726 1712.884, 1217.326 1711.113, 1229.500 1705.007 C 1253.636 1692.902, 1281.010 1667.160, 1296.918 1641.610 C 1314.323 1613.654, 1319.278 1589.073, 1309.821 1577.599 C 1308.171 1575.597, 1305.621 1573.338, 1304.155 1572.580 C 1301.664 1571.292, 1291.684 1569.682, 1290.869 1570.437 M 1060.304 1647.747 C 1066.247 1647.924, 1075.697 1647.923, 1081.304 1647.745 C 1086.912 1647.567, 1082.050 1647.422, 1070.500 1647.423 C 1058.950 1647.424, 1054.362 1647.570, 1060.304 1647.747" stroke="none" fill="#ff26a4" fill-rule="evenodd"/><path d="M 1444.500 1452.857 C 1457.150 1456.098, 1470.323 1459.904, 1473.774 1461.314 C 1483.263 1465.194, 1519.625 1484.622, 1526.975 1489.740 C 1530.537 1492.219, 1532.805 1493.470, 1532.016 1492.519 C 1527.615 1487.216, 1485.465 1464.262, 1470.500 1459.018 C 1461.048 1455.706, 1433.681 1448.684, 1426 1447.600 C 1423.525 1447.251, 1431.850 1449.617, 1444.500 1452.857 M 1285.750 1569.716 C 1284.237 1569.945, 1283 1570.482, 1283 1570.908 C 1283 1571.334, 1285.129 1571.360, 1287.731 1570.965 C 1290.334 1570.570, 1294.486 1570.458, 1296.959 1570.715 C 1314.706 1572.565, 1319.622 1592.423, 1308.787 1618.500 C 1304.601 1628.576, 1304.488 1629.495, 1308.417 1621.500 C 1317.284 1603.459, 1318.114 1583.170, 1310.287 1575.832 C 1303.926 1569.869, 1296.673 1568.062, 1285.750 1569.716 M 1247.284 1588.849 C 1224.327 1605.871, 1202.307 1631.475, 1190.629 1654.725 C 1185.353 1665.228, 1186.240 1665.060, 1191.813 1654.500 C 1201.044 1637.007, 1208.947 1626.176, 1223.461 1611.127 C 1231.246 1603.055, 1245.909 1590.435, 1254.047 1584.802 C 1255.396 1583.869, 1256.201 1583.081, 1255.837 1583.052 C 1255.472 1583.024, 1251.623 1585.632, 1247.284 1588.849 M 1407.500 1615.393 C 1363.925 1626.055, 1320.147 1672.687, 1319.623 1709 C 1319.516 1716.419, 1319.850 1718.200, 1322.253 1723 C 1325.292 1729.074, 1330.981 1733.938, 1337.500 1736.038 C 1343.351 1737.923, 1357.195 1737.480, 1366.218 1735.118 C 1390.690 1728.713, 1420.382 1706.286, 1436.634 1681.931 C 1457.052 1651.332, 1456.015 1622.986, 1434.205 1615.554 C 1428.753 1613.697, 1414.779 1613.612, 1407.500 1615.393 M 1026.195 1648.746 C 1032.077 1648.922, 1041.977 1648.923, 1048.195 1648.747 C 1054.413 1648.571, 1049.600 1648.427, 1037.500 1648.426 C 1025.400 1648.425, 1020.313 1648.569, 1026.195 1648.746 M 1558.812 1652.748 C 1567.233 1652.916, 1580.733 1652.915, 1588.812 1652.748 C 1596.890 1652.580, 1590 1652.443, 1573.500 1652.443 C 1557 1652.444, 1550.390 1652.581, 1558.812 1652.748 M 1180.991 1681.547 C 1175.277 1711.833, 1196.712 1722.747, 1229.500 1706.246 C 1237.327 1702.307, 1248.693 1694.793, 1254 1690.049 C 1255.925 1688.329, 1253.450 1689.864, 1248.500 1693.461 C 1238.145 1700.986, 1222.001 1709.389, 1214 1711.417 C 1210.975 1712.183, 1205.262 1712.704, 1201.304 1712.574 C 1195.474 1712.382, 1193.360 1711.843, 1190.175 1709.734 C 1182.928 1704.939, 1179.610 1693.744, 1181.934 1681.932 C 1182.597 1678.562, 1182.937 1675.604, 1182.691 1675.358 C 1182.445 1675.112, 1181.680 1677.897, 1180.991 1681.547" stroke="none" fill="#ee7bb8" fill-rule="evenodd"/><path d="M 1327.500 1441.623 C 1283.232 1442.844, 1230.638 1450.944, 1190.500 1462.725 C 1183.900 1464.662, 1177.150 1466.593, 1175.500 1467.016 C 1165.720 1469.523, 1133.441 1482.304, 1118.084 1489.749 C 1100.579 1498.236, 1088.280 1505.493, 1069 1518.711 C 1067.625 1519.654, 1061.775 1524.343, 1056 1529.131 C 1044.728 1538.476, 1037.505 1545.671, 1029.026 1556 C 1026.091 1559.575, 1022.741 1563.400, 1021.583 1564.500 C 1020.424 1565.600, 1017.934 1568.750, 1016.051 1571.500 C 1011.994 1577.422, 991 1618.613, 991 1620.651 C 991 1621.426, 989.875 1624.733, 988.500 1628 C 987.125 1631.267, 986 1634.896, 986 1636.065 C 986 1639.513, 989.980 1644.100, 994.908 1646.331 C 1000.004 1648.638, 1000.784 1648.647, 1068.734 1647.149 C 1094.315 1646.585, 1100.236 1646.192, 1101.446 1644.980 C 1102.258 1644.166, 1104.689 1638.775, 1106.849 1633 C 1114.716 1611.959, 1129.020 1592.983, 1147.733 1578.760 C 1171.923 1560.375, 1190.170 1550.757, 1231.500 1534.604 C 1254.432 1525.642, 1274.767 1519.879, 1295.500 1516.466 C 1307.849 1514.434, 1335.989 1514.229, 1351 1516.062 C 1360.910 1517.273, 1378.700 1521.174, 1388 1524.176 C 1401.213 1528.442, 1426.674 1539.971, 1433.914 1544.967 C 1435.336 1545.949, 1439.875 1548.941, 1444 1551.616 C 1454.581 1558.479, 1463.027 1565.020, 1474 1574.851 C 1483.704 1583.545, 1501.170 1601.706, 1505.881 1608 C 1507.321 1609.925, 1509.513 1612.620, 1510.750 1613.990 C 1511.987 1615.359, 1513 1616.753, 1513 1617.087 C 1513 1617.421, 1513.953 1618.775, 1515.118 1620.097 C 1517.397 1622.683, 1518.361 1624.068, 1530.228 1641.811 C 1531.728 1644.054, 1535.103 1647.152, 1537.728 1648.695 L 1542.500 1651.500 1583.761 1651.792 C 1628.834 1652.110, 1629.802 1652.004, 1633.535 1646.307 C 1634.969 1644.118, 1635.035 1642.912, 1634.039 1637.143 C 1630.659 1617.574, 1621.950 1594.912, 1608.538 1570.786 C 1603.746 1562.166, 1603.016 1561.094, 1594.068 1549.524 C 1582.555 1534.638, 1555.121 1510.425, 1530.660 1493.561 C 1518.316 1485.051, 1478.428 1463.945, 1468.500 1460.671 C 1458.735 1457.450, 1413.973 1446.471, 1405 1445.095 C 1391.256 1442.989, 1348.102 1441.056, 1327.500 1441.623" stroke="none" fill="#ff00f3" fill-rule="evenodd"/></svg>