<svg xmlns="http://www.w3.org/2000/svg" width="3756" height="4363" viewBox="0 0 3756 4363" version="1.1"><path d="M 959.552 1327.250 C 958.702 1330.009, 958.003 1959.884, 958.850 1960.407 C 959.341 1960.711, 1061.388 1961.207, 1185.622 1961.511 C 1309.855 1961.814, 1467.172 1962.226, 1535.215 1962.426 C 1627.314 1962.697, 1659.160 1962.497, 1659.830 1961.645 C 1660.357 1960.975, 1660.976 1829.699, 1661.321 1645.336 C 1661.824 1377.159, 1661.705 1330, 1660.523 1329.019 C 1659.487 1328.160, 1580.766 1327.639, 1350.317 1326.970 C 937.821 1325.771, 960.013 1325.755, 959.552 1327.250 M 966.538 1333.287 C 966.334 1333.954, 965.894 1474.152, 965.561 1644.838 L 964.956 1955.176 977.228 1954.844 C 983.978 1954.662, 1138.938 1954.917, 1321.584 1955.411 L 1653.668 1956.310 1654.333 1844.405 C 1654.699 1782.857, 1654.999 1642.893, 1655 1533.373 L 1655 1334.247 1453.250 1333.642 C 1342.287 1333.309, 1187.467 1332.820, 1109.204 1332.556 C 998.223 1332.180, 966.827 1332.341, 966.538 1333.287" stroke="none" fill="#e5c40c" fill-rule="evenodd"/></svg>