<svg xmlns="http://www.w3.org/2000/svg" width="3756" height="4363" viewBox="0 0 3756 4363" version="1.1"><path d="M 1310 1347.617 C 1306.425 1347.822, 1296.709 1348.665, 1288.409 1349.490 C 1164.277 1361.825, 1055.010 1433.167, 1005.048 1534.500 C 975.438 1594.553, 968.574 1656.038, 984.506 1718.500 C 993.333 1753.106, 1011.220 1788.165, 1035.272 1818 C 1053.233 1840.280, 1082.164 1865.674, 1108.164 1881.983 C 1179.673 1926.837, 1274.337 1943.732, 1362.805 1927.432 C 1451.011 1911.179, 1527.688 1867.101, 1580.133 1802.500 C 1631.765 1738.900, 1654.069 1659.734, 1641.411 1585 C 1637.225 1560.286, 1629.984 1537.989, 1618.514 1514.500 C 1605.369 1487.582, 1591.026 1467.347, 1569 1444.648 C 1517.049 1391.109, 1445.953 1358.013, 1364.710 1349.551 C 1349.796 1347.997, 1321.053 1346.981, 1310 1347.617" stroke="none" fill="#ec74f4" fill-rule="evenodd"/></svg>