<svg xmlns="http://www.w3.org/2000/svg" width="3756" height="4363" viewBox="0 0 3756 4363" version="1.1"><path d="M 1455.323 2031.646 C 1454.125 2031.907, 1452.629 2032.742, 1451.998 2033.503 C 1450.694 2035.073, 1450.481 2814.616, 1451.652 3297.832 L 1452.321 3574.164 1454.733 3575.745 C 1456.906 3577.169, 1466.150 3577.256, 1548.322 3576.628 C 1598.470 3576.244, 1761.225 3575.266, 1910 3574.455 C 2401.878 3571.771, 2500.575 3571.100, 2502.324 3570.429 C 2503.276 3570.064, 2504.486 3568.961, 2505.012 3567.978 C 2505.606 3566.867, 2506.339 3458.967, 2506.951 3282.346 C 2507.492 3126.231, 2508.182 2969.250, 2508.484 2933.500 C 2508.786 2897.750, 2509.468 2713.250, 2509.998 2523.500 C 2510.528 2333.750, 2511.227 2146.976, 2511.551 2108.447 C 2512.112 2041.677, 2512.055 2038.294, 2510.320 2036.254 L 2508.500 2034.114 2321 2033.571 C 2217.875 2033.273, 2032.025 2032.797, 1908 2032.513 C 1783.975 2032.229, 1631.875 2031.811, 1570 2031.584 C 1508.125 2031.358, 1456.520 2031.385, 1455.323 2031.646 M 1460.146 2040.889 C 1459.008 2041.609, 1458.911 2163.561, 1459.538 2804.459 C 1460.189 3470.597, 1460.467 3567.242, 1461.738 3567.730 C 1463.338 3568.344, 1932.411 3566.302, 1975 3565.496 C 1989.575 3565.220, 2112.650 3564.497, 2248.500 3563.890 C 2454.622 3562.968, 2495.680 3562.560, 2496.587 3561.425 C 2497.655 3560.087, 2497.803 3529.417, 2499.505 2953.500 C 2499.781 2860, 2500.228 2760.550, 2500.497 2732.500 C 2501.176 2661.847, 2503.252 2054.707, 2502.837 2048.273 L 2502.500 2043.046 2301.500 2042.478 C 2190.950 2042.166, 2004.682 2041.480, 1887.571 2040.955 C 1625.445 2039.779, 1461.937 2039.754, 1460.146 2040.889" stroke="none" fill="#e6539c" fill-rule="evenodd"/></svg>