<svg xmlns="http://www.w3.org/2000/svg" width="3756" height="4363" viewBox="0 0 3756 4363" version="1.1"><path d="M 693.500 177.539 C 663.357 180.847, 644.303 185.075, 615.500 194.847 C 561.334 213.223, 516.675 239.073, 468.500 279.934 C 455.700 290.791, 424.924 321.552, 413.908 334.500 C 392.974 359.105, 373.640 386.160, 358.167 412.500 C 348.151 429.550, 333.317 458.373, 328.457 470.224 C 326.039 476.122, 322.974 483.097, 321.647 485.724 C 319.172 490.621, 305.769 528.954, 302.145 541.500 C 299.045 552.234, 291.333 586.135, 289.065 599 C 280.241 649.065, 279.858 709.439, 288.049 759 C 290.272 772.450, 299.385 809.069, 303.354 820.500 C 314.398 852.308, 330.569 884.838, 348.402 911.118 C 356.127 922.502, 376.947 946.801, 388.658 958.102 C 423.773 991.988, 471.883 1019.092, 516.402 1030.071 C 552.626 1039.004, 574.717 1041.618, 606 1040.675 C 630.370 1039.939, 651.879 1036.731, 684.834 1028.916 C 695.713 1026.335, 739.863 1011.110, 742.500 1009.029 C 743.050 1008.595, 749.125 1005.621, 756 1002.420 C 778.715 991.843, 810.619 972.233, 834 954.477 C 876.916 921.884, 920.457 875.178, 950.972 829 C 972.530 796.377, 992.362 758.380, 1005.514 724.500 C 1008.717 716.250, 1011.903 708.600, 1012.595 707.500 C 1013.287 706.400, 1014.582 702.575, 1015.474 699 C 1016.366 695.425, 1017.944 689.800, 1018.980 686.500 C 1029.113 654.246, 1034.053 631.295, 1039.536 591 C 1046.422 540.395, 1044.314 493.298, 1032.572 435.450 C 1029.092 418.307, 1017.107 380.251, 1011.380 368.164 C 1009.905 365.049, 1006.341 357.490, 1003.462 351.367 C 979.798 301.040, 940.656 255.297, 895.102 224.733 C 877.751 213.091, 855.033 201.655, 833.804 193.877 C 823.323 190.036, 812.216 186.256, 809.123 185.476 C 799.185 182.971, 775.876 178.970, 762.500 177.474 C 746.476 175.681, 710.120 175.716, 693.500 177.539" stroke="none" fill="#ff4964" fill-rule="evenodd"/><path d="M 1249 972.036 C 1082.958 979.955, 903.280 1022.656, 785.873 1082.100 C 778.378 1085.895, 772.025 1089, 771.755 1089 C 770.826 1089, 748.291 1102.753, 739.163 1108.890 C 708.893 1129.244, 687.015 1152.709, 679.851 1172.507 C 676.589 1181.521, 676.172 1194.914, 678.876 1203.816 C 685.584 1225.901, 713.137 1245.275, 755.275 1257.535 C 871.349 1291.309, 1087.053 1276.735, 1273.500 1222.522 C 1431.800 1176.494, 1534 1111.226, 1534 1056.161 C 1534 1049.920, 1531.585 1040.875, 1528.237 1034.575 C 1524.930 1028.350, 1512.543 1015.750, 1504.666 1010.598 C 1475.552 991.554, 1426.919 978.988, 1361 973.476 C 1338.734 971.614, 1275.019 970.795, 1249 972.036" stroke="none" fill="#ff8400" fill-rule="evenodd"/><path d="M 1241.849 149.564 C 1221.214 153.298, 1200.450 164.728, 1182.152 182.426 C 1124.526 238.158, 1091.859 349.012, 1094.314 480.500 C 1095.129 524.188, 1098.197 556.320, 1105.451 597.147 C 1123.940 701.213, 1165.070 792.871, 1216.483 844.580 C 1240.137 868.371, 1262.282 882.173, 1288 889.155 C 1295.316 891.141, 1298.867 891.462, 1313.500 891.462 C 1327.899 891.462, 1331.728 891.127, 1338.524 889.268 C 1351.378 885.752, 1360.649 881.456, 1372.689 873.438 C 1418.317 843.052, 1451.821 779.688, 1469.419 690.500 C 1476.673 653.736, 1478.854 631.320, 1479.682 585 C 1480.761 524.715, 1476.834 482.631, 1464.426 421.500 C 1449.682 348.856, 1420.326 277.328, 1385.099 228.213 C 1353.540 184.213, 1316.416 156.532, 1279.491 149.467 C 1270.063 147.663, 1252.097 147.709, 1241.849 149.564 M 692.296 176.554 C 685.584 177.287, 675.025 178.812, 668.832 179.943 C 662.638 181.074, 657.142 182, 656.619 182 C 656.095 182, 655.912 182.245, 656.211 182.545 C 656.511 182.844, 662.254 182.151, 668.975 181.004 C 689.369 177.525, 707.474 176.021, 729 176.020 C 751.336 176.019, 767.872 177.518, 789.386 181.495 C 797.023 182.907, 803.456 183.877, 803.681 183.652 C 804.401 182.932, 776.957 178.043, 763.506 176.495 C 747.456 174.648, 709.473 174.680, 692.296 176.554 M 881 215.266 C 881.275 215.561, 886.900 219.371, 893.500 223.731 C 911.304 235.494, 924.843 246.611, 940.578 262.386 C 968.035 289.912, 988.985 320.079, 1005.591 356 C 1009.277 363.975, 1012.701 370.950, 1013.199 371.500 C 1014.455 372.887, 1011.772 366.613, 1005.071 352.492 C 980.422 300.549, 941.331 254.616, 896 224.331 C 886.478 217.969, 879.707 213.877, 881 215.266 M 546.452 224.317 C 531.871 232.428, 523 237.856, 523 238.668 C 523 239.248, 526.870 237.128, 531.500 234.013 C 533.700 232.532, 541.462 228.040, 548.750 224.030 C 560.285 217.683, 562.999 216, 561.702 216 C 561.537 216, 554.675 219.743, 546.452 224.317 M 512.576 245.004 C 465.703 276.989, 423.077 318.370, 387.612 366.316 C 375.138 383.181, 356.297 412.592, 350.020 425 C 346.964 431.041, 351.333 424.544, 357.081 414.500 C 371.765 388.842, 392.452 359.720, 413.908 334.500 C 424.924 321.552, 455.700 290.791, 468.500 279.934 C 485.569 265.456, 504.473 251.068, 516.250 243.590 C 521.209 240.441, 522.916 239, 521.687 239 C 521.516 239, 517.416 241.702, 512.576 245.004 M 1032 431.694 C 1032 432.259, 1032.907 437.172, 1034.015 442.611 C 1035.123 448.050, 1037.102 459.475, 1038.414 468 C 1039.726 476.525, 1040.844 482.260, 1040.899 480.743 C 1041.039 476.906, 1038.461 459.960, 1035.384 444.500 C 1033.048 432.763, 1032 428.796, 1032 431.694 M 1039.608 590.500 C 1039.185 594.350, 1037.498 605.536, 1035.860 615.357 C 1034.222 625.179, 1033.055 633.388, 1033.267 633.600 C 1034.320 634.654, 1041.467 588.441, 1040.752 585.197 C 1040.547 584.264, 1040.032 586.650, 1039.608 590.500 M 281.654 658.157 C 280.874 672.658, 280.975 698.796, 281.862 712 C 282.213 717.225, 282.500 704.513, 282.500 683.750 C 282.500 662.987, 282.457 646, 282.404 646 C 282.351 646, 282.013 651.471, 281.654 658.157 M 1025.528 664.223 C 1024.565 667.675, 1022.027 676.332, 1019.888 683.461 C 1015.622 697.680, 1014.720 702.946, 1018.596 691 C 1022.605 678.646, 1028.135 658.802, 1027.692 658.359 C 1027.465 658.132, 1026.491 660.770, 1025.528 664.223 M 1011.082 710.250 C 1002.699 731.973, 997.944 743.408, 992.988 753.770 C 989.686 760.672, 987.142 766.476, 987.335 766.668 C 988.290 767.623, 1005.654 728.272, 1011.569 711.750 C 1012.993 707.772, 1012.557 706.429, 1011.082 710.250 M 978.018 783.742 C 970.476 797.574, 961.065 813.357, 950.437 830 C 948.506 833.025, 947.955 834.278, 949.213 832.785 C 955.130 825.761, 988.027 769.675, 986.884 768.560 C 986.673 768.354, 982.683 775.186, 978.018 783.742 M 925.057 864.483 C 914.870 877.272, 903.123 890.911, 893.126 901.555 C 889.482 905.435, 890.856 904.227, 896.180 898.870 C 905.465 889.527, 920.165 872.467, 930.316 859.250 C 938.500 848.596, 934.697 852.379, 925.057 864.483 M 877.462 917.103 C 870.586 924.176, 845.450 945.793, 834 954.482 C 819.883 965.195, 800.749 977.920, 784.988 987.077 C 777.294 991.547, 771 995.399, 771 995.637 C 771 996.198, 772.849 995.195, 787.401 986.732 C 809.365 973.959, 830.074 959.346, 851.500 941.499 C 862.171 932.611, 884.049 912.127, 882.962 912.042 C 882.667 912.019, 880.192 914.297, 877.462 917.103 M 365.153 933.974 C 371.974 942.564, 389.577 960.493, 400 969.466 C 411.607 979.459, 434 996.027, 434 994.621 C 434 994.360, 429.387 990.902, 423.750 986.936 C 404.301 973.254, 388.682 959.075, 367.644 936 C 362.791 930.678, 362.068 930.090, 365.153 933.974 M 512.500 1030.085 C 520.374 1032.582, 547.720 1038.207, 549.843 1037.767 C 550.754 1037.578, 548.125 1036.859, 544 1036.168 C 539.875 1035.477, 530.036 1033.357, 522.136 1031.456 C 506.180 1027.617, 503.525 1027.239, 512.500 1030.085 M 675 1031.071 C 670.875 1032.088, 661.650 1034.026, 654.500 1035.378 C 647.350 1036.730, 642.434 1037.873, 643.575 1037.918 C 644.716 1037.963, 650.566 1037.104, 656.575 1036.009 C 668.811 1033.778, 687.582 1029.215, 684.500 1029.219 C 683.400 1029.221, 679.125 1030.054, 675 1031.071" stroke="none" fill="#ff7f7c" fill-rule="evenodd"/><path d="M 1641.112 121.581 C 1608.645 130.312, 1580.090 168.477, 1558.554 231.923 C 1494.961 419.269, 1510.215 752.690, 1589.576 910 C 1610.994 952.456, 1635.593 978.068, 1661.275 984.650 C 1669.655 986.798, 1683.330 986.048, 1691.500 982.993 C 1743.590 963.517, 1784.779 863.204, 1800.923 716.500 C 1815.439 584.597, 1807.011 433.521, 1778.490 314.352 C 1767.123 266.858, 1749.470 217.529, 1733.274 188 C 1720.805 165.266, 1702.256 142.279, 1688.407 132.396 C 1672.925 121.348, 1656.198 117.523, 1641.112 121.581 M 1241 148.455 C 1180.640 161.137, 1132.599 226.021, 1108.062 328 C 1098.709 366.869, 1094.161 406.289, 1093.291 456.014 C 1092.126 522.607, 1098.642 580.240, 1114.651 644.955 C 1119.459 664.389, 1129.449 696.290, 1136.216 713.817 C 1142.971 731.310, 1141.337 724.492, 1133.851 703.948 C 1114.625 651.183, 1102.032 592.294, 1096.439 529 C 1094.263 504.375, 1093.474 453.738, 1094.905 430.500 C 1097.034 395.907, 1100.771 367.352, 1107.075 337.500 C 1127.141 242.473, 1171.628 173.784, 1225.945 153.961 C 1247.227 146.194, 1273.242 145.998, 1294.471 153.445 C 1298.306 154.790, 1301.599 155.734, 1301.790 155.543 C 1302.244 155.089, 1292.044 151.283, 1285.015 149.283 C 1277.417 147.122, 1249.816 146.602, 1241 148.455 M 1311.500 160.822 C 1323.853 167.389, 1330.515 171.770, 1341.290 180.417 C 1385.090 215.562, 1425.575 284.509, 1450.033 365.611 C 1459.545 397.151, 1465.301 422.233, 1471.119 457.500 C 1472.389 465.200, 1473.577 470.784, 1473.757 469.908 C 1474.284 467.356, 1468.265 433.093, 1463.849 413.500 C 1458.870 391.412, 1451.911 366.778, 1444.549 345.175 C 1413.709 254.688, 1364.897 186.356, 1312.289 160.025 C 1301.125 154.437, 1300.560 155.007, 1311.500 160.822 M 716.750 174.747 C 723.487 174.920, 734.513 174.920, 741.250 174.747 C 747.987 174.574, 742.475 174.432, 729 174.432 C 715.525 174.432, 710.013 174.574, 716.750 174.747 M 765 176.593 C 771.325 177.351, 781.389 178.902, 787.365 180.038 C 793.340 181.174, 798.425 181.909, 798.664 181.670 C 799.737 180.597, 763.812 174.914, 757.178 175.107 C 755.155 175.166, 758.675 175.835, 765 176.593 M 482.489 266.175 C 461.470 282.951, 434.457 308.747, 417.223 328.500 C 411.945 334.550, 406.732 340.512, 405.639 341.750 C 404.546 342.988, 403.898 344, 404.200 344 C 404.501 344, 408.286 339.837, 412.609 334.750 C 430.588 313.595, 461.509 283.758, 483.250 266.588 C 491.052 260.426, 492.647 259, 491.739 259 C 491.596 259, 487.433 262.229, 482.489 266.175 M 1477.597 505.699 C 1477.854 510.758, 1478.488 521.783, 1479.006 530.199 C 1480.215 549.847, 1480.216 593.077, 1479.007 613 C 1476.931 647.230, 1477.014 645.188, 1477.967 638.500 C 1481.433 614.194, 1481.770 537.676, 1478.538 509 C 1477.220 497.301, 1477.160 497.089, 1477.597 505.699 M 1469.602 689.660 C 1452.842 777.290, 1418.319 843.002, 1373.254 873.052 C 1360.501 881.555, 1359.952 882.018, 1366.528 878.716 C 1369.294 877.327, 1375.594 873.062, 1380.528 869.238 C 1417.476 840.603, 1446.308 789.264, 1463.951 720.694 C 1468.178 704.268, 1473.413 677.740, 1472.795 675.886 C 1472.600 675.299, 1471.163 681.498, 1469.602 689.660 M 1144 732.245 C 1144 733.647, 1151.458 750.042, 1157.414 761.730 C 1185.010 815.893, 1219.988 856.661, 1256.918 877.707 C 1261.061 880.068, 1264.912 882, 1265.475 882 C 1266.038 882, 1261.452 879.012, 1255.285 875.359 C 1240.821 866.793, 1230.162 858.338, 1216.483 844.580 C 1192.440 820.399, 1168.707 784.712, 1151.310 746.583 C 1145.299 733.409, 1144 730.861, 1144 732.245 M 1272.697 884.968 C 1289.474 893.065, 1316.071 895.613, 1336.217 891.054 C 1342.191 889.702, 1351.211 886.507, 1354.628 884.532 C 1356.208 883.619, 1356.600 883.183, 1355.500 883.563 C 1354.400 883.943, 1350.575 885.288, 1347 886.554 C 1336.431 890.294, 1325.939 892, 1313.500 892 C 1300.695 892, 1290.764 890.325, 1278.500 886.098 C 1274.100 884.582, 1269.600 883.034, 1268.500 882.659 C 1267.400 882.284, 1269.288 883.323, 1272.697 884.968 M 884.091 910.870 C 869.567 925.517, 859.892 935.522, 862.591 933.104 C 875.612 921.442, 913.159 883.333, 910.853 884.120 C 910.659 884.187, 898.616 896.224, 884.091 910.870" stroke="none" fill="#ffb6ab" fill-rule="evenodd"/><path d="M 1941.742 126.291 C 1909.786 137.483, 1881.045 184.967, 1860.206 261 C 1851.531 292.650, 1852.040 290.439, 1846.548 320.363 C 1839.322 359.741, 1836.660 378.515, 1833.556 412 C 1825.382 500.171, 1825.220 584.789, 1833.055 673 C 1838.321 732.289, 1847.677 787.211, 1860.951 836.747 C 1873.001 881.717, 1888.976 920.859, 1905.665 946.304 C 1914.829 960.277, 1929.969 975.345, 1939.772 980.249 C 1956.338 988.537, 1973.341 987.682, 1988.605 977.794 C 1996.216 972.863, 2009.964 958.423, 2016.496 948.500 C 2029.375 928.933, 2039.077 907.770, 2049.501 876.500 C 2093.149 745.576, 2103.354 527.474, 2074.019 352.500 C 2062.661 284.753, 2046.891 230.076, 2027.005 189.500 C 2011.401 157.659, 1994.151 137.263, 1975.154 128.194 C 1968.653 125.090, 1966.696 124.642, 1958.154 124.305 C 1949.939 123.980, 1947.493 124.276, 1941.742 126.291" stroke="none" fill="#989cd3" fill-rule="evenodd"/><path d="M 1942 125.276 C 1938.425 126.499, 1933.250 128.802, 1930.500 130.394 C 1923.174 134.635, 1907.422 151.047, 1900.201 161.964 C 1894.423 170.699, 1881.979 193.766, 1882.016 195.674 C 1882.025 196.128, 1885.220 190.435, 1889.117 183.022 C 1902.089 158.347, 1914.765 142.315, 1928.645 133.032 C 1939.145 126.009, 1947.547 123.596, 1959.364 124.211 C 1964.389 124.472, 1967.375 124.352, 1966 123.943 C 1960.601 122.337, 1948.647 123.001, 1942 125.276 M 1977.704 129.389 C 1993.296 137.793, 2009.059 155.559, 2021.504 178.755 C 2023.055 181.645, 2024.516 183.818, 2024.751 183.582 C 2025.255 183.079, 2018.368 171.045, 2012.685 162.500 C 2002.305 146.894, 1990.553 135.238, 1978.972 129.065 C 1975.808 127.379, 1972.833 126.010, 1972.360 126.023 C 1971.887 126.035, 1974.292 127.550, 1977.704 129.389 M 2059.383 281.250 C 2060.671 285.953, 2068.969 323.807, 2070.157 330.399 C 2070.841 334.194, 2071.567 336.800, 2071.769 336.192 C 2072.527 333.919, 2060.553 279, 2059.300 279 C 2059.007 279, 2059.044 280.012, 2059.383 281.250 M 1847.156 311.258 C 1843.899 328.296, 1840.921 346.264, 1841.212 347.136 C 1841.391 347.673, 1843.258 338.604, 1845.362 326.982 C 1847.465 315.361, 1848.998 305.664, 1848.768 305.434 C 1848.538 305.205, 1847.813 307.825, 1847.156 311.258 M 2073.421 348 C 2073.806 350.475, 2075.229 359.563, 2076.583 368.195 C 2077.936 376.827, 2080.114 392.577, 2081.422 403.195 C 2082.729 413.813, 2083.844 421.051, 2083.900 419.280 C 2084.121 412.188, 2074.668 345.307, 2073.260 344 C 2072.964 343.725, 2073.037 345.525, 2073.421 348 M 1833 404.599 C 1833 405.662, 1832.125 416.650, 1831.056 429.016 C 1829.987 441.382, 1828.539 461.175, 1827.839 473 C 1826.212 500.491, 1826.198 588.779, 1827.817 616.500 C 1829.804 650.530, 1834.465 703.273, 1834.873 696.352 C 1834.943 695.171, 1834.112 684.371, 1833.027 672.352 C 1825.464 588.569, 1825.334 510.860, 1832.610 423.190 C 1833.492 412.569, 1833.940 403.607, 1833.606 403.273 C 1833.273 402.940, 1833 403.536, 1833 404.599 M 2091.430 565 C 2091.430 577.925, 2091.573 583.212, 2091.747 576.750 C 2091.921 570.288, 2091.921 559.712, 2091.747 553.250 C 2091.573 546.788, 2091.430 552.075, 2091.430 565 M 2090.216 601.500 C 2090.093 608.650, 2089.797 621.025, 2089.559 629 L 2089.125 643.500 2090.070 629.500 C 2090.589 621.800, 2090.885 609.425, 2090.727 602 L 2090.439 588.500 2090.216 601.500 M 2081.242 725.500 C 2080.001 735.950, 2077.836 751.860, 2076.431 760.856 C 2075.027 769.851, 2074.070 777.404, 2074.306 777.639 C 2075.400 778.733, 2084.368 713.968, 2083.800 709.079 C 2083.635 707.660, 2082.484 715.050, 2081.242 725.500 M 1841.088 744.500 C 1841.040 745.600, 1841.905 751.900, 1843.011 758.500 C 1845.255 771.899, 1850.207 795.732, 1849.451 789.500 C 1848.571 782.242, 1841.177 742.458, 1841.088 744.500 M 2071.118 791.502 C 2069.817 798.622, 2066.776 812.965, 2064.362 823.376 C 2061.947 833.786, 2060.155 842.488, 2060.380 842.713 C 2061.451 843.784, 2074.411 783.370, 2073.795 780.175 C 2073.624 779.285, 2072.419 784.383, 2071.118 791.502 M 1855.068 817.041 C 1854.989 818.820, 1863.761 852.094, 1864.505 852.838 C 1864.777 853.110, 1864.987 852.921, 1864.972 852.417 C 1864.913 850.507, 1855.133 815.572, 1855.068 817.041 M 2191 869.442 C 2153.304 874.912, 2118.186 892.269, 2087.097 920.796 C 2059.106 946.481, 2035.360 985.658, 2026.533 1020.717 C 2015.129 1066.013, 2019.244 1105.968, 2038.889 1140.670 C 2061.634 1180.851, 2102.796 1203.855, 2152.151 1203.969 C 2200.361 1204.080, 2247.719 1182.251, 2286.163 1142.198 C 2336.035 1090.239, 2356.166 1016.130, 2336.439 957.120 C 2329.343 935.894, 2320.365 921.134, 2305.164 905.705 C 2296.153 896.559, 2283.845 887.444, 2273.434 882.208 C 2264.877 877.904, 2248.530 872.373, 2238.781 870.483 C 2227.283 868.255, 2202.853 867.722, 2191 869.442 M 1883.046 905.500 C 1882.949 907.768, 1898.216 936.635, 1904.569 946.197 C 1911.790 957.064, 1927.550 974.230, 1933.170 977.348 L 1936.500 979.196 1933 976.449 C 1924.951 970.130, 1911.916 955.730, 1905.669 946.257 C 1901.993 940.681, 1895.408 929.005, 1891.037 920.310 C 1886.665 911.614, 1883.069 904.950, 1883.046 905.500 M 2019.865 943.239 C 2011.278 957.480, 1999.360 970.599, 1988.437 977.834 C 1974.469 987.086, 1957.392 988.426, 1942 981.476 C 1938.975 980.111, 1937.373 979.669, 1938.440 980.496 C 1942.410 983.571, 1951.576 986.284, 1959.591 986.757 C 1968.967 987.310, 1976.089 985.632, 1985.460 980.661 C 1996.571 974.768, 2014.006 955.977, 2022.556 940.679 C 2026.648 933.357, 2024.714 935.197, 2019.865 943.239" stroke="none" fill="#c6c1e5" fill-rule="evenodd"/><path d="M 2477 144.603 C 2445.645 146.704, 2426.749 148.975, 2402.223 153.589 C 2374.857 158.737, 2357.206 163.219, 2339.468 169.524 C 2299.789 183.627, 2274.553 198.311, 2254.825 218.776 C 2239.656 234.511, 2232.719 249.748, 2232.640 267.500 C 2232.556 286.387, 2239.488 301.344, 2256.429 318.831 C 2277.066 340.132, 2309.092 357.958, 2351 371.470 C 2457.424 405.783, 2608.342 402.799, 2704.500 364.483 C 2746.882 347.594, 2776.668 325.036, 2788.981 300.500 C 2794.200 290.101, 2796 282.663, 2796 271.500 C 2796 255.976, 2791.835 244.484, 2781.020 230.166 C 2748.488 187.099, 2666.252 155.408, 2562.500 145.956 C 2550.686 144.880, 2487.734 143.883, 2477 144.603 M 2988.382 163.487 C 2985.018 164.256, 2980.743 165.593, 2978.882 166.458 C 2977.022 167.322, 2976.400 167.764, 2977.500 167.440 C 2990.012 163.751, 2991.978 163.503, 3008.500 163.531 C 3020.856 163.552, 3027.530 164.025, 3032.932 165.264 C 3037.020 166.201, 3040.539 166.794, 3040.753 166.580 C 3040.966 166.367, 3037.847 165.407, 3033.820 164.447 C 3023.968 162.099, 2996.947 161.527, 2988.382 163.487 M 3156.007 235.108 C 3159.035 238.074, 3166.928 245.675, 3173.546 252 C 3180.164 258.325, 3190.916 269.125, 3197.439 276 C 3206.420 285.465, 3207.260 286.197, 3200.900 279.015 C 3190.088 266.808, 3169.828 246.550, 3158.987 237.108 C 3153.242 232.104, 3152.279 231.458, 3156.007 235.108 M 2925.112 289.872 C 2924.975 293.992, 2927.656 312.423, 2929.491 319.977 C 2931.352 327.632, 2931.330 324.327, 2929.459 315.096 C 2928.612 310.914, 2927.313 302.769, 2926.572 296.996 C 2925.831 291.223, 2925.174 288.017, 2925.112 289.872 M 3292.316 698.990 C 3279.882 703.412, 3255.788 704.172, 3240 700.640 C 3229.176 698.219, 3227.285 697.959, 3232 699.540 C 3247.907 704.872, 3275.817 705.358, 3290.750 700.562 C 3295.287 699.105, 3299 697.708, 3299 697.456 C 3299 696.750, 3297.910 697, 3292.316 698.990" stroke="none" fill="#b1d3ee" fill-rule="evenodd"/><path d="M 2989 164.441 C 2975.114 167.365, 2965.060 172.507, 2954.796 181.935 C 2926.600 207.835, 2917.897 257.831, 2930.596 320.958 C 2934.438 340.058, 2936.512 347.753, 2943.676 369.500 C 2962.467 426.536, 2994.233 486.540, 3033.144 538.500 C 3053.721 565.976, 3066.504 581.187, 3085.726 601.062 C 3138.038 655.156, 3192.106 690.218, 3239 700.461 C 3249.256 702.701, 3270.847 703.571, 3279.566 702.096 C 3308.052 697.277, 3326.801 681.541, 3338.633 652.518 C 3349.008 627.072, 3350.250 587.148, 3342.009 544.009 C 3338.761 527.007, 3329.402 495.871, 3320.932 473.895 C 3264.017 326.212, 3135.682 188.277, 3034 165.497 C 3023.820 163.216, 2997.726 162.604, 2989 164.441 M 2616 423.019 C 2599.593 423.943, 2568.790 426.877, 2568.085 427.582 C 2567.431 428.236, 2570.458 428.048, 2585.500 426.501 C 2612.675 423.707, 2646.130 422.728, 2672.250 423.962 C 2685.588 424.592, 2699.875 425.514, 2704 426.010 C 2713.394 427.140, 2719.541 427.098, 2712.500 425.952 C 2694.694 423.055, 2643.163 421.488, 2616 423.019 M 2520.500 435.081 C 2502.662 438.809, 2491.994 441.327, 2492.383 441.716 C 2492.744 442.078, 2530.166 434.458, 2532.500 433.548 C 2535.029 432.562, 2528.660 433.376, 2520.500 435.081 M 2754.083 433.396 C 2754.477 433.770, 2782.641 441.326, 2788 442.495 C 2795.060 444.035, 2780.716 439.410, 2769.207 436.436 C 2756.645 433.189, 2753.120 432.481, 2754.083 433.396 M 2856.964 475.685 C 2871.739 487.691, 2878.379 493.779, 2883.538 500.050 C 2892.108 510.467, 2894.958 513.519, 2891.430 508.500 C 2883.689 497.490, 2869.835 483.938, 2858.392 476.185 C 2854.618 473.628, 2854.291 473.514, 2856.964 475.685 M 2300 525.141 C 2287.988 533.768, 2275.698 543.438, 2273.970 545.622 C 2273.161 546.644, 2274.300 546.008, 2276.500 544.208 C 2278.700 542.409, 2285.720 537.014, 2292.100 532.219 C 2309.569 519.089, 2309.536 519.114, 2309 519.073 C 2308.725 519.052, 2304.675 521.783, 2300 525.141 M 2886.686 647.250 C 2880.756 656.437, 2869.024 670.928, 2859.058 681.375 C 2851.493 689.306, 2832.032 706.070, 2820.750 714.374 C 2816.488 717.512, 2813 720.314, 2813 720.601 C 2813 721.372, 2820.872 715.595, 2832.397 706.369 C 2845.485 695.891, 2860.689 681.412, 2870.075 670.487 C 2880.040 658.890, 2894.244 639, 2892.562 639 C 2892.260 639, 2889.615 642.712, 2886.686 647.250 M 2794 732.558 C 2787.675 736.655, 2779.575 741.553, 2776 743.442 C 2772.425 745.331, 2768.600 747.618, 2767.500 748.523 C 2766.400 749.428, 2768.650 748.483, 2772.500 746.421 C 2785.934 739.229, 2808.860 724.522, 2805.809 725.054 C 2805.639 725.084, 2800.325 728.460, 2794 732.558 M 2215.860 729.250 C 2227.055 746.945, 2244.314 763.791, 2264.250 776.480 C 2265.762 777.442, 2267 777.995, 2267 777.707 C 2267 777.420, 2263.287 774.696, 2258.750 771.654 C 2243.360 761.337, 2228.811 747.012, 2219.237 732.750 C 2214.665 725.938, 2212.050 723.229, 2215.860 729.250 M 2556.500 816.028 C 2549.900 817.004, 2536.673 818.613, 2527.106 819.603 C 2517.539 820.594, 2510.243 821.581, 2510.892 821.797 C 2513.492 822.664, 2571.565 815.768, 2572.899 814.434 C 2573.611 813.722, 2569.186 814.152, 2556.500 816.028 M 2376 816.555 C 2384.252 818.227, 2404.243 820.782, 2414 821.412 C 2419.812 821.788, 2419.024 821.578, 2410.500 820.481 C 2404.450 819.703, 2393.191 818.151, 2385.479 817.033 C 2369.794 814.759, 2366.253 814.580, 2376 816.555" stroke="none" fill="#9dd7c3" fill-rule="evenodd"/><path d="M 3269.644 842.019 C 3162.235 848.704, 3018.216 892.145, 2888 957.135 C 2841.190 980.498, 2813.501 996.315, 2777.500 1020.257 C 2703.547 1069.438, 2656.354 1117.545, 2642.864 1157.500 C 2640.876 1163.386, 2640.500 1166.498, 2640.500 1177.052 C 2640.500 1189.535, 2640.521 1189.645, 2644.240 1197.171 C 2662.276 1233.664, 2729.760 1245.744, 2830 1230.424 C 3043.164 1197.844, 3314.315 1061.872, 3388.728 950.243 C 3422.513 899.560, 3408.905 861.710, 3351.819 847.588 C 3331.022 842.443, 3298.379 840.231, 3269.644 842.019" stroke="none" fill="#8a72a5" fill-rule="evenodd"/><path d="M 2618.364 424.071 C 2581.363 425.829, 2549.879 429.920, 2514.090 437.620 C 2500.016 440.649, 2485.429 443.786, 2481.675 444.592 C 2477.921 445.399, 2471.621 447.145, 2467.675 448.474 C 2463.729 449.803, 2453.888 452.956, 2445.806 455.480 C 2437.724 458.005, 2421.974 463.623, 2410.806 467.965 C 2346.174 493.095, 2293.769 525.327, 2256.065 563.139 C 2204.874 614.477, 2188.894 669.293, 2210.862 718.200 C 2216.806 731.433, 2228.946 747.051, 2242.807 759.296 C 2272.848 785.834, 2321.782 806.566, 2375.378 815.463 C 2412.012 821.544, 2423.616 822.451, 2465 822.469 C 2504.962 822.486, 2508.858 822.233, 2550 816.945 C 2591.650 811.591, 2635.528 801.371, 2676 787.598 C 2743.864 764.502, 2796.049 736.220, 2840.500 698.447 C 2876.473 667.879, 2901.015 631.699, 2909.654 596.500 C 2912.161 586.288, 2912.161 559.367, 2909.655 548.500 C 2907.045 537.183, 2896.829 516.445, 2888.965 506.500 C 2871.284 484.142, 2848.077 467.303, 2815.455 453.162 C 2797.356 445.317, 2793.009 443.869, 2767 437.027 C 2724.285 425.789, 2674.162 421.421, 2618.364 424.071" stroke="none" fill="#46c695" fill-rule="evenodd"/><path d="M 2681.417 801.488 C 2636.957 808.237, 2576.327 832.146, 2537.922 858.075 C 2534.854 860.146, 2530.624 862.807, 2528.521 863.988 C 2526.419 865.169, 2522.629 867.818, 2520.099 869.875 C 2517.570 871.933, 2511.168 877.076, 2505.873 881.305 C 2493.664 891.056, 2473.935 911.449, 2467.735 920.726 C 2449.972 947.305, 2449.637 967.588, 2466.747 980.637 C 2482.778 992.865, 2516.907 994.298, 2558.578 984.494 C 2603.268 973.980, 2659.717 947.244, 2698.562 918.191 C 2735.624 890.473, 2757.312 863.584, 2760.944 840.849 C 2763.952 822.021, 2753.868 808.430, 2732.415 802.397 C 2724.336 800.125, 2693.963 799.584, 2681.417 801.488" stroke="none" fill="#fcbc79" fill-rule="evenodd"/></svg>