<svg xmlns="http://www.w3.org/2000/svg" width="3756" height="4363" viewBox="0 0 3756 4363" version="1.1"><path d="M 173.953 11.971 C 145.568 12.559, 143.861 12.944, 142.643 19.035 C 142.294 20.779, 142.209 22.529, 142.453 22.924 C 142.899 23.646, 143.104 75.475, 144.926 649 C 145.470 820.325, 146.158 1014.725, 146.455 1081 C 146.753 1147.275, 147.289 1270.948, 147.647 1355.828 C 148.202 1487.301, 148.509 1510.366, 149.721 1511.578 C 150.792 1512.650, 154.267 1513.017, 163.821 1513.070 C 170.795 1513.108, 201.475 1513.326, 232 1513.554 C 262.525 1513.781, 570.775 1514.635, 917 1515.450 C 1263.225 1516.266, 1571.025 1517.172, 1601 1517.464 C 1630.975 1517.756, 1781.500 1518.222, 1935.500 1518.499 C 2089.500 1518.776, 2254.875 1519.226, 2303 1519.499 C 2351.125 1519.772, 2527.975 1520.227, 2696 1520.510 C 2864.025 1520.793, 3029.850 1521.238, 3064.500 1521.498 C 3099.150 1521.758, 3233.758 1522.270, 3363.629 1522.635 L 3599.759 1523.298 3601.497 1520.644 C 3603.082 1518.225, 3603.180 1515.623, 3602.598 1491.245 C 3602.247 1476.535, 3601.513 1299.350, 3600.968 1097.500 C 3600.423 895.650, 3599.540 638.250, 3599.007 525.500 C 3598.473 412.750, 3597.934 257.275, 3597.810 180 C 3597.686 102.725, 3597.414 36.447, 3597.205 32.716 C 3596.886 26.993, 3596.470 25.699, 3594.549 24.440 C 3590.525 21.804, 3522.524 21.064, 3235.356 20.533 C 3084.735 20.255, 2912 19.801, 2851.500 19.524 C 2664.165 18.669, 2325.307 17.685, 1637 15.999 C 1427.175 15.485, 1215.450 14.817, 1166.500 14.516 C 1117.550 14.214, 882.200 13.522, 643.500 12.977 C 404.800 12.433, 207.250 11.865, 204.500 11.715 C 201.750 11.565, 188.004 11.680, 173.953 11.971 M 153.175 178.750 C 153.278 265.513, 153.687 421.775, 154.084 526 C 155.726 957.409, 156.967 1313.200, 157.140 1401.500 C 157.241 1453.200, 157.517 1497.358, 157.755 1499.629 L 158.187 1503.757 264.343 1504.363 C 322.730 1504.697, 477.600 1505.208, 608.500 1505.500 C 739.400 1505.791, 878.675 1506.242, 918 1506.500 C 957.325 1506.758, 1096.825 1507.202, 1228 1507.485 C 1829.551 1508.786, 1932.699 1509.045, 2040 1509.525 C 2102.975 1509.806, 2224.700 1510.244, 2310.500 1510.498 C 2396.300 1510.751, 2540.525 1511.192, 2631 1511.478 C 2721.475 1511.764, 2920.150 1512.224, 3072.500 1512.500 C 3224.850 1512.776, 3404.005 1513.275, 3470.623 1513.607 L 3591.746 1514.212 3592.478 1504.447 C 3592.881 1499.076, 3592.940 1464.716, 3592.609 1428.091 C 3592.278 1391.466, 3591.768 1242.250, 3591.476 1096.500 C 3591.185 950.750, 3590.523 743.975, 3590.006 637 C 3589.490 530.025, 3588.794 351.825, 3588.460 241 C 3588.126 130.175, 3587.623 38.530, 3587.342 37.345 C 3586.704 34.656, 3585.450 34.415, 3562.500 32.574 C 3544.381 31.121, 3541.203 31.089, 3250.500 29.505 C 3199.900 29.229, 3029.800 28.773, 2872.500 28.490 C 2715.200 28.208, 2525.075 27.757, 2450 27.487 C 2096.179 26.218, 1780.062 25.247, 1477 24.500 C 1064.886 23.484, 860.834 22.876, 622 21.954 C 487.525 21.435, 326.985 21.008, 265.244 21.005 L 152.988 21 153.175 178.750" stroke="none" fill="#8c76dd" fill-rule="evenodd"/></svg>