<svg xmlns="http://www.w3.org/2000/svg" width="3756" height="4363" viewBox="0 0 3756 4363" version="1.1"><path d="M 1814.500 39.135 C 1734.209 40.494, 1622.531 45.918, 1548.500 52.055 C 1168.438 83.560, 833.653 163.104, 584.792 281.030 C 448.327 345.695, 341.576 421.160, 271.505 502.500 C 242.169 536.553, 215.535 578.363, 201.431 612.500 C 143.816 751.955, 189.583 891.227, 335 1018.956 C 503.012 1166.533, 807.221 1288.710, 1173 1355.516 C 1341.095 1386.216, 1516.681 1405.734, 1694 1413.429 C 1832.341 1419.433, 2006.690 1418.432, 2117.500 1410.998 C 2125.750 1410.444, 2143.975 1409.303, 2158 1408.462 C 2235.169 1403.832, 2334.335 1394.006, 2421 1382.401 C 2586.462 1360.245, 2734.247 1329.881, 2878.500 1288.403 C 3040.536 1241.811, 3184.419 1181.909, 3300.277 1112.807 C 3322.807 1099.369, 3363.982 1071.917, 3382.666 1057.876 C 3418.222 1031.157, 3437.691 1014.388, 3466.066 986.042 C 3506.522 945.627, 3532.915 910.695, 3554.183 869.414 C 3564.628 849.142, 3570.321 835.837, 3575.939 818.568 C 3595.783 757.574, 3595.726 695.378, 3575.773 635.528 C 3547.153 549.681, 3479.417 467.126, 3375.950 391.989 C 3196.500 261.675, 2920.853 159.686, 2583 98.599 C 2396.689 64.913, 2191.860 44.585, 1993 40.045 C 1932.698 38.669, 1863.059 38.314, 1814.500 39.135" stroke="none" fill="#6404fc" fill-rule="evenodd"/></svg>