<svg xmlns="http://www.w3.org/2000/svg" width="3756" height="4363" viewBox="0 0 3756 4363" version="1.1"><path d="M 3297.455 2946.455 C 3293.773 2950.136, 3294.161 2954.748, 3298.648 2960.626 C 3306.840 2971.359, 3309.526 2982.495, 3306.639 2993.764 C 3304.321 3002.813, 3301.500 3007.688, 3294.612 3014.549 C 3279.489 3029.614, 3256.436 3033.255, 3237.706 3023.537 C 3235.016 3022.142, 3231.360 3021, 3229.582 3021 C 3223.462 3021, 3219.740 3028.408, 3222.896 3034.306 C 3225.716 3039.575, 3239.136 3045.330, 3252.733 3047.101 C 3274.738 3049.968, 3299.200 3039.533, 3312.753 3021.498 C 3328.607 3000.401, 3329.782 2974.877, 3315.861 2954.030 C 3313.658 2950.731, 3310.702 2947.124, 3309.293 2946.016 C 3305.708 2943.196, 3300.521 2943.388, 3297.455 2946.455" stroke="none" fill="#8a2000" fill-rule="evenodd"/><path d="M 3343.378 2742.437 C 3337.799 2744.865, 3335.365 2751.076, 3338.037 2756.069 C 3338.607 2757.134, 3342.196 2760.063, 3346.011 2762.577 C 3359.929 2771.745, 3371.041 2786.974, 3373.903 2800.799 C 3377.346 2817.432, 3371.773 2836.776, 3358.626 2853.824 C 3351.361 2863.244, 3337.150 2876.134, 3325.500 2883.871 C 3319.450 2887.889, 3313.723 2892.149, 3312.772 2893.338 C 3310.802 2895.804, 3310.493 2900.184, 3312.080 2903.150 C 3313.640 2906.065, 3319.119 2908.113, 3322.649 2907.101 C 3329.608 2905.105, 3349.870 2890.218, 3361.522 2878.540 C 3382.734 2857.280, 3393.051 2835.649, 3393.256 2812 C 3393.367 2799.137, 3391.626 2791.815, 3385.477 2779.293 C 3381.990 2772.192, 3379.086 2768.110, 3372.781 2761.450 C 3364.424 2752.622, 3356.004 2745.579, 3350.300 2742.646 C 3346.554 2740.719, 3347.275 2740.741, 3343.378 2742.437" stroke="none" fill="#ff5d00" fill-rule="evenodd"/><path d="M 3073.500 2322.118 C 3045.924 2323.872, 3013.412 2328.326, 2982.145 2334.631 C 2963.218 2338.447, 2930.157 2346.370, 2925.716 2348.153 C 2917.418 2351.485, 2916.813 2361.785, 2924.696 2365.526 C 2928.026 2367.106, 2928.634 2367.016, 2947.808 2362.117 C 2984.845 2352.653, 3022.469 2346.028, 3060 2342.364 C 3083.650 2340.054, 3128.777 2340.038, 3149.555 2342.331 C 3207.941 2348.775, 3254.773 2366.244, 3290 2394.721 C 3299.708 2402.568, 3317.008 2420.450, 3324.131 2430 C 3365.624 2485.630, 3379.343 2566.977, 3363.528 2663.615 C 3358.561 2693.970, 3348.103 2737.741, 3345.090 2740.782 C 3343.635 2742.251, 3343.654 2742.330, 3345.313 2741.701 C 3347.441 2740.895, 3351.678 2742.911, 3358 2747.736 L 3362.500 2751.170 3364.308 2745.335 C 3367.691 2734.417, 3375.873 2700.550, 3378.884 2685 C 3385.683 2649.893, 3388.392 2622.442, 3388.407 2588.500 C 3388.422 2553.832, 3385.783 2530.846, 3378.542 2502.596 C 3361.100 2434.540, 3320.241 2383.200, 3259.159 2352.589 C 3210.708 2328.308, 3145.192 2317.555, 3073.500 2322.118" stroke="none" fill="#f7b200" fill-rule="evenodd"/></svg>