<svg xmlns="http://www.w3.org/2000/svg" width="3756" height="4363" viewBox="0 0 3756 4363" version="1.1"><path d="M 3041.500 2519.521 C 3004.812 2525.440, 2968.912 2544.749, 2939.481 2574.394 C 2864.247 2650.172, 2842.369 2776.212, 2887.909 2871.500 C 2927.591 2954.529, 3008.159 2992.635, 3088.500 2966.373 C 3099.634 2962.734, 3119.261 2953.255, 3129.718 2946.467 C 3165.623 2923.160, 3196.494 2885.976, 3215.468 2843.180 C 3251.839 2761.148, 3246.555 2662.944, 3202.167 2596 C 3175.424 2555.668, 3139.374 2530.030, 3096 2520.496 C 3085.364 2518.159, 3053.482 2517.588, 3041.500 2519.521" stroke="none" fill="#ad92da" fill-rule="evenodd"/><path d="M 3071 2273.043 C 3026.215 2277.273, 2983.091 2288.533, 2938.580 2307.620 C 2915.283 2317.610, 2909.008 2321.530, 2907.691 2326.917 C 2906.344 2332.426, 2917.238 2406.556, 2920.646 2415.074 C 2921.558 2417.354, 2923.378 2419.656, 2924.874 2420.422 C 2929.516 2422.799, 2938.855 2423.217, 2951.500 2421.613 C 2979.891 2418.011, 3027.720 2416.819, 3055.605 2419.016 C 3127.324 2424.669, 3186.616 2445.409, 3230 2480.019 C 3240.622 2488.492, 3259.706 2508.031, 3267.290 2518.197 C 3342.101 2618.477, 3323.994 2779.928, 3218.135 2956.500 C 3205.738 2977.178, 3179.284 3017, 3177.945 3017 C 3177.375 3017, 3175.805 3018.105, 3174.455 3019.455 C 3170.196 3023.713, 3171.017 3028.261, 3177.818 3038.091 C 3181.018 3042.716, 3185.151 3049.350, 3187.002 3052.834 C 3188.955 3056.509, 3192.558 3061.127, 3195.585 3063.834 C 3201.329 3068.973, 3213.646 3085.989, 3220.154 3097.779 C 3222.450 3101.939, 3226.505 3107.745, 3229.164 3110.682 C 3231.824 3113.618, 3234 3116.415, 3234 3116.897 C 3234 3117.378, 3235.603 3118.533, 3237.562 3119.462 C 3240.393 3120.806, 3241.751 3120.934, 3244.184 3120.086 C 3252.715 3117.112, 3306.176 3066.070, 3326.960 3041.055 C 3391.424 2963.469, 3435.491 2871.653, 3454.413 2775.500 C 3468.921 2701.775, 3467.680 2624.907, 3450.880 2556.659 C 3423.822 2446.735, 3357.706 2358.551, 3266.707 2311.010 C 3230.420 2292.052, 3193.648 2280.536, 3150 2274.461 C 3136.422 2272.570, 3085.649 2271.659, 3071 2273.043" stroke="none" fill="#bcec04" fill-rule="evenodd"/></svg>