<svg xmlns="http://www.w3.org/2000/svg" width="3756" height="4363" viewBox="0 0 3756 4363" version="1.1"><path d="M 2827.046 2240.750 C 2749.279 2240.923, 2710.252 2241.348, 2709.568 2242.032 C 2708.044 2243.556, 2708.792 3155.016, 2710.318 3156.871 C 2711.271 3158.030, 2771.140 3158.191, 3095.973 3157.908 C 3307.463 3157.724, 3481.287 3157.204, 3482.250 3156.752 C 3483.913 3155.971, 3484 3133.199, 3484 2699.165 C 3484 2345.237, 3483.730 2242.130, 3482.800 2241.200 C 3481.647 2240.047, 3223.807 2239.870, 2827.046 2240.750 M 2969.249 2248.752 L 2714.998 2249.004 2715.249 2699.252 L 2715.500 3149.500 2919 3149.429 C 3030.925 3149.390, 3202.492 3149.277, 3300.261 3149.179 L 3478.022 3149 3477.965 2710.250 C 3477.934 2468.938, 3477.636 2266.191, 3477.303 2259.702 L 3476.698 2247.904 3350.099 2248.202 C 3280.470 2248.366, 3109.087 2248.613, 2969.249 2248.752" stroke="none" fill="#f49979" fill-rule="evenodd"/></svg>