<svg xmlns="http://www.w3.org/2000/svg" width="3756" height="4363" viewBox="0 0 3756 4363" version="1.1"><path d="M 0 2181.500 L 0 4363.001 1878.250 4362.750 L 3756.500 4362.500 3756.750 2181.250 L 3757 0 1878.500 0 L 0 0 0 2181.500 M 0.499 2182 C 0.499 3381.825, 0.612 3872.662, 0.750 3272.750 C 0.888 2672.837, 0.888 1691.162, 0.750 1091.250 C 0.612 491.337, 0.499 982.175, 0.499 2182 M 3073.500 2322.118 C 3045.924 2323.872, 3013.412 2328.326, 2982.145 2334.631 C 2963.218 2338.447, 2930.157 2346.370, 2925.716 2348.153 C 2917.418 2351.485, 2916.813 2361.785, 2924.696 2365.526 C 2928.026 2367.106, 2928.634 2367.016, 2947.808 2362.117 C 2984.845 2352.653, 3022.469 2346.028, 3060 2342.364 C 3083.650 2340.054, 3128.777 2340.038, 3149.555 2342.331 C 3207.941 2348.775, 3254.773 2366.244, 3290 2394.721 C 3299.708 2402.568, 3317.008 2420.450, 3324.131 2430 C 3365.624 2485.630, 3379.343 2566.977, 3363.528 2663.615 C 3360.438 2682.499, 3356.047 2703.357, 3351.448 2721 C 3346.338 2740.606, 3346.410 2740.434, 3342.470 2742.313 C 3338.266 2744.317, 3335.421 2749.558, 3336.406 2753.481 C 3337.201 2756.648, 3340.103 2759.547, 3345.934 2763 C 3352.197 2766.709, 3361.235 2775.749, 3365.907 2782.978 C 3371.621 2791.819, 3374 2800.103, 3374 2811.163 C 3374 2822.461, 3372.850 2827.275, 3367.471 2838.500 C 3359.649 2854.822, 3344.663 2870.768, 3324.552 2884.169 C 3319.574 2887.486, 3314.661 2890.943, 3313.635 2891.850 C 3306.616 2898.060, 3312.240 2909.196, 3321.625 2907.673 C 3328.704 2906.525, 3350.657 2890.290, 3364.293 2876.118 C 3401.965 2836.969, 3403.845 2789.725, 3369.051 2756.616 L 3362.867 2750.731 3366.858 2736.116 C 3381.935 2680.907, 3388.386 2636.720, 3388.407 2588.500 C 3388.422 2553.832, 3385.783 2530.846, 3378.542 2502.596 C 3361.100 2434.540, 3320.241 2383.200, 3259.159 2352.589 C 3210.708 2328.308, 3145.192 2317.555, 3073.500 2322.118 M 2993.517 2585.043 C 2984.768 2586.033, 2973.711 2589.087, 2967.620 2592.194 C 2961.927 2595.098, 2954.157 2602.757, 2951.417 2608.164 C 2930.524 2649.395, 3013.216 2715.857, 3107 2733.210 C 3123.737 2736.307, 3155.087 2736.332, 3166.154 2733.257 C 3186.042 2727.732, 3197.317 2716.623, 3198.718 2701.175 C 3200.094 2685.998, 3191.423 2669.332, 3172.869 2651.492 C 3146.438 2626.078, 3109.143 2605.887, 3065 2593.093 C 3041.403 2586.254, 3012.036 2582.946, 2993.517 2585.043 M 3052.885 2745.318 C 3045.151 2748.213, 3039.326 2753.907, 3035.307 2762.500 C 3032.817 2767.821, 3032.500 2769.631, 3032.503 2778.500 C 3032.505 2787.630, 3032.778 2789.076, 3035.641 2795.123 C 3042.055 2808.672, 3051.296 2815.418, 3063.500 2815.462 C 3069.411 2815.483, 3071.333 2815.026, 3075.856 2812.527 C 3088.220 2805.694, 3095.149 2789.618, 3092.134 2774.758 C 3089.501 2761.779, 3083.455 2752.743, 3073.940 2747.564 C 3067.782 2744.212, 3058.488 2743.221, 3052.885 2745.318 M 3151.977 2761.217 C 3135.504 2766.983, 3120.805 2783.584, 3117.194 2800.500 C 3115.294 2809.403, 3115.172 2811.376, 3116.146 2817.486 C 3118.779 2833.997, 3129.352 2844.778, 3145.500 2847.414 C 3155.984 2849.126, 3171.811 2842.520, 3181.903 2832.221 C 3196.280 2817.550, 3201.618 2798.682, 3196.263 2781.468 C 3193.659 2773.099, 3188.057 2766.598, 3179.814 2762.379 C 3172.236 2758.500, 3161.071 2758.034, 3151.977 2761.217 M 2946 2793.079 C 2930.206 2800.219, 2924.914 2819.452, 2934.396 2835.247 C 2941.730 2847.464, 2955.437 2852.309, 2967.718 2847.026 C 2980.060 2841.717, 2986.363 2827.598, 2982.589 2813.719 C 2977.826 2796.208, 2960.588 2786.483, 2946 2793.079 M 3297.306 2945.413 C 3295.022 2947.378, 3294.505 2948.633, 3294.527 2952.163 C 3294.549 2955.736, 3295.371 2957.601, 3299.197 2962.752 C 3305.554 2971.311, 3307.354 2977.142, 3306.791 2987.367 C 3306.204 2998.051, 3302.810 3005.326, 3294.544 3013.621 C 3279.219 3028.997, 3256.612 3032.429, 3236.783 3022.388 C 3234.189 3021.075, 3230.892 3020, 3229.456 3020 C 3225.725 3020, 3221 3025.013, 3221 3028.973 C 3221 3034.641, 3223.455 3037.624, 3231.247 3041.429 C 3241.083 3046.231, 3248.702 3048, 3259.550 3048 C 3297.358 3048, 3327.484 3018.194, 3325.752 2982.500 C 3325.220 2971.533, 3322.514 2963.191, 3316.443 2953.805 C 3309.677 2943.346, 3303.075 2940.451, 3297.306 2945.413" stroke="none" fill="#ffffff" fill-rule="evenodd"/><path d="M 2950.897 2791.949 C 2933.858 2795.204, 2925.171 2815.566, 2933.531 2832.654 C 2942.147 2850.264, 2963.657 2854.084, 2976.177 2840.226 C 2981.404 2834.441, 2983.304 2828.612, 2982.834 2819.811 C 2982.358 2810.907, 2979.473 2804.613, 2973.229 2798.857 C 2966.677 2792.818, 2958.917 2790.417, 2950.897 2791.949 M 3297.455 2946.455 C 3293.773 2950.136, 3294.161 2954.748, 3298.648 2960.626 C 3306.840 2971.359, 3309.526 2982.495, 3306.639 2993.764 C 3304.321 3002.813, 3301.500 3007.688, 3294.612 3014.549 C 3279.489 3029.614, 3256.436 3033.255, 3237.706 3023.537 C 3235.016 3022.142, 3231.360 3021, 3229.582 3021 C 3223.462 3021, 3219.740 3028.408, 3222.896 3034.306 C 3225.716 3039.575, 3239.136 3045.330, 3252.733 3047.101 C 3274.738 3049.968, 3299.200 3039.533, 3312.753 3021.498 C 3328.607 3000.401, 3329.782 2974.877, 3315.861 2954.030 C 3313.658 2950.731, 3310.702 2947.124, 3309.293 2946.016 C 3305.708 2943.196, 3300.521 2943.388, 3297.455 2946.455" stroke="none" fill="#8a2000" fill-rule="evenodd"/><path d="M 3343.378 2742.437 C 3337.799 2744.865, 3335.365 2751.076, 3338.037 2756.069 C 3338.607 2757.134, 3342.196 2760.063, 3346.011 2762.577 C 3359.929 2771.745, 3371.041 2786.974, 3373.903 2800.799 C 3377.346 2817.432, 3371.773 2836.776, 3358.626 2853.824 C 3351.361 2863.244, 3337.150 2876.134, 3325.500 2883.871 C 3319.450 2887.889, 3313.723 2892.149, 3312.772 2893.338 C 3310.802 2895.804, 3310.493 2900.184, 3312.080 2903.150 C 3313.640 2906.065, 3319.119 2908.113, 3322.649 2907.101 C 3329.608 2905.105, 3349.870 2890.218, 3361.522 2878.540 C 3382.734 2857.280, 3393.051 2835.649, 3393.256 2812 C 3393.367 2799.137, 3391.626 2791.815, 3385.477 2779.293 C 3381.990 2772.192, 3379.086 2768.110, 3372.781 2761.450 C 3364.424 2752.622, 3356.004 2745.579, 3350.300 2742.646 C 3346.554 2740.719, 3347.275 2740.741, 3343.378 2742.437 M 3054.792 2745.380 C 3035.626 2750.629, 3026.705 2775.704, 3036.579 2796.575 C 3045.949 2816.382, 3069.680 2821.206, 3083.320 2806.077 C 3089.889 2798.790, 3091.437 2794.119, 3091.470 2781.479 C 3091.499 2770.975, 3091.343 2770.139, 3088.159 2763.671 C 3084.107 2755.441, 3079.355 2750.494, 3072.586 2747.459 C 3065.842 2744.435, 3060.514 2743.813, 3054.792 2745.380 M 3157 2760.098 C 3145.932 2762.259, 3132.745 2771.651, 3125.544 2782.499 C 3119.124 2792.172, 3116.677 2800.091, 3116.582 2811.500 C 3116.510 2820.315, 3116.812 2822.166, 3119.135 2827.120 C 3128.660 2847.433, 3151.647 2852.945, 3172.207 2839.845 C 3178.721 2835.695, 3187.870 2825.632, 3191.730 2818.370 C 3200.330 2802.193, 3199.721 2782.044, 3190.300 2771.037 C 3185.644 2765.598, 3180.382 2762.335, 3173.289 2760.487 C 3167.015 2758.853, 3163.772 2758.775, 3157 2760.098" stroke="none" fill="#ff5d00" fill-rule="evenodd"/><path d="M 3073.500 2322.118 C 3045.924 2323.872, 3013.412 2328.326, 2982.145 2334.631 C 2963.218 2338.447, 2930.157 2346.370, 2925.716 2348.153 C 2917.418 2351.485, 2916.813 2361.785, 2924.696 2365.526 C 2928.026 2367.106, 2928.634 2367.016, 2947.808 2362.117 C 2984.845 2352.653, 3022.469 2346.028, 3060 2342.364 C 3083.650 2340.054, 3128.777 2340.038, 3149.555 2342.331 C 3207.941 2348.775, 3254.773 2366.244, 3290 2394.721 C 3299.708 2402.568, 3317.008 2420.450, 3324.131 2430 C 3365.624 2485.630, 3379.343 2566.977, 3363.528 2663.615 C 3358.561 2693.970, 3348.103 2737.741, 3345.090 2740.782 C 3343.635 2742.251, 3343.654 2742.330, 3345.313 2741.701 C 3347.441 2740.895, 3351.678 2742.911, 3358 2747.736 L 3362.500 2751.170 3364.308 2745.335 C 3367.691 2734.417, 3375.873 2700.550, 3378.884 2685 C 3385.683 2649.893, 3388.392 2622.442, 3388.407 2588.500 C 3388.422 2553.832, 3385.783 2530.846, 3378.542 2502.596 C 3361.100 2434.540, 3320.241 2383.200, 3259.159 2352.589 C 3210.708 2328.308, 3145.192 2317.555, 3073.500 2322.118 M 2993.517 2585.043 C 2984.768 2586.033, 2973.711 2589.087, 2967.620 2592.194 C 2961.927 2595.098, 2954.157 2602.757, 2951.417 2608.164 C 2930.524 2649.395, 3013.216 2715.857, 3107 2733.210 C 3123.737 2736.307, 3155.087 2736.332, 3166.154 2733.257 C 3186.042 2727.732, 3197.317 2716.623, 3198.718 2701.175 C 3200.094 2685.998, 3191.423 2669.332, 3172.869 2651.492 C 3146.438 2626.078, 3109.143 2605.887, 3065 2593.093 C 3041.403 2586.254, 3012.036 2582.946, 2993.517 2585.043" stroke="none" fill="#f7b200" fill-rule="evenodd"/></svg>