<svg
    xmlns="http://www.w3.org/2000/svg"
    xmlns:cc="http://web.resource.org/cc/"
    xmlns:dc="http://purl.org/dc/elements/1.1/"
    xmlns:rdf="http://www.w3.org/1999/02/22-rdf-syntax-ns#"
    width="100%" 
    height="100%"
    viewBox="0 0 3756 4363"
    version="1.1">
  
  <style type="text/css">
      .content{
        opacity:.75
      }
      .content:hover{
        opacity:1
      }
      .box{
      }
  </style>
   <g id="map_group"> 
    <path id="brainstem_box" class="box" d="M 1455.323 2031.646 C 1454.125 2031.907, 1452.629 2032.742, 1451.998 2033.503 C 1450.694 2035.073, 1450.481 2814.616, 1451.652 3297.832 L 1452.321 3574.164 1454.733 3575.745 C 1456.906 3577.169, 1466.150 3577.256, 1548.322 3576.628 C 1598.470 3576.244, 1761.225 3575.266, 1910 3574.455 C 2401.878 3571.771, 2500.575 3571.100, 2502.324 3570.429 C 2503.276 3570.064, 2504.486 3568.961, 2505.012 3567.978 C 2505.606 3566.867, 2506.339 3458.967, 2506.951 3282.346 C 2507.492 3126.231, 2508.182 2969.250, 2508.484 2933.500 C 2508.786 2897.750, 2509.468 2713.250, 2509.998 2523.500 C 2510.528 2333.750, 2511.227 2146.976, 2511.551 2108.447 C 2512.112 2041.677, 2512.055 2038.294, 2510.320 2036.254 L 2508.500 2034.114 2321 2033.571 C 2217.875 2033.273, 2032.025 2032.797, 1908 2032.513 C 1783.975 2032.229, 1631.875 2031.811, 1570 2031.584 C 1508.125 2031.358, 1456.520 2031.385, 1455.323 2031.646 M 1460.146 2040.889 C 1459.008 2041.609, 1458.911 2163.561, 1459.538 2804.459 C 1460.189 3470.597, 1460.467 3567.242, 1461.738 3567.730 C 1463.338 3568.344, 1932.411 3566.302, 1975 3565.496 C 1989.575 3565.220, 2112.650 3564.497, 2248.500 3563.890 C 2454.622 3562.968, 2495.680 3562.560, 2496.587 3561.425 C 2497.655 3560.087, 2497.803 3529.417, 2499.505 2953.500 C 2499.781 2860, 2500.228 2760.550, 2500.497 2732.500 C 2501.176 2661.847, 2503.252 2054.707, 2502.837 2048.273 L 2502.500 2043.046 2301.500 2042.478 C 2190.950 2042.166, 2004.682 2041.480, 1887.571 2040.955 C 1625.445 2039.779, 1461.937 2039.754, 1460.146 2040.889" stroke="none" fill="#e6539c" fill-rule="evenodd"/>
    <path id="bs_ocu" class="substructure" d="M 1630 2056.818 C 1619.597 2060.272, 1611.908 2065.741, 1605.482 2074.258 C 1595.642 2087.299, 1591.045 2101.774, 1590.269 2122.161 C 1588.433 2170.420, 1614.909 2215.428, 1650.460 2224.482 C 1666.400 2228.542, 1680.924 2224.193, 1693.591 2211.568 C 1706.329 2198.872, 1712.747 2181.920, 1713.682 2158.500 C 1714.984 2125.854, 1703.878 2095.831, 1682.323 2073.735 C 1670.458 2061.571, 1658.746 2055.951, 1644 2055.343 C 1637.693 2055.083, 1634.081 2055.463, 1630 2056.818" stroke="none" fill="#7fd3d6" fill-rule="evenodd"/>
    <path id="bs_EW" class="substructure" d="M 1785 2054.977 C 1779.752 2056.098, 1776.734 2057.511, 1773.150 2060.527 C 1767.772 2065.053, 1765.686 2070.297, 1765.207 2080.501 C 1764.840 2088.295, 1765.142 2090.574, 1767.458 2097.501 C 1774.820 2119.523, 1794.644 2139.806, 1815.757 2146.918 C 1823.334 2149.471, 1835.325 2149.725, 1840.782 2147.449 C 1849.536 2143.798, 1855.066 2135.326, 1855.775 2124.480 C 1857.574 2096.940, 1828.653 2061.698, 1799.115 2055.437 C 1791.904 2053.908, 1790.258 2053.855, 1785 2054.977" stroke="none" fill="#7ed3d5" fill-rule="evenodd"/>
    <path id="bs_troch" class="substructure" d="M 1821.973 2193.277 C 1806.921 2198.409, 1796.503 2210.781, 1791.894 2229 C 1790.158 2235.860, 1790.141 2256.319, 1791.864 2264.500 C 1796.990 2288.838, 1808.732 2310.710, 1825.988 2328.066 C 1854.537 2356.779, 1889.532 2362.048, 1909.744 2340.677 C 1928.206 2321.157, 1929.683 2286.320, 1913.532 2251.362 C 1903.336 2229.294, 1883.057 2207.122, 1864.500 2197.752 C 1850.505 2190.686, 1834.510 2189.003, 1821.973 2193.277" stroke="none" fill="#7fd3d6" fill-rule="evenodd"/>
    <path id="bs_dopa" class="substructure" d="M 1958.452 2068.406 C 1948.516 2072.734, 1939.008 2092.199, 1933.469 2119.557 C 1921.657 2177.894, 1926.959 2259.162, 1944.453 2287.914 C 1951.552 2299.581, 1959.855 2303.712, 1967.875 2299.565 C 1995.465 2285.298, 2008.544 2175.367, 1990.983 2105.345 C 1983.722 2076.394, 1971.632 2062.665, 1958.452 2068.406 M 2111.432 2392 C 2111.432 2405.475, 2111.574 2410.988, 2111.747 2404.250 C 2111.920 2397.512, 2111.920 2386.488, 2111.747 2379.750 C 2111.574 2373.012, 2111.432 2378.525, 2111.432 2392 M 2144.434 3095.500 C 2144.433 3109.250, 2144.574 3115.014, 2144.747 3108.308 C 2144.919 3101.603, 2144.920 3090.353, 2144.748 3083.308 C 2144.576 3076.264, 2144.434 3081.750, 2144.434 3095.500 M 2112.434 3170.500 C 2112.433 3184.250, 2112.574 3190.014, 2112.747 3183.308 C 2112.919 3176.603, 2112.920 3165.353, 2112.748 3158.308 C 2112.576 3151.264, 2112.434 3156.750, 2112.434 3170.500" stroke="none" fill="#ebbf00" fill-rule="evenodd"/>
    <path id="bs_red" class="substructure" d="M 2111.500 2058.468 C 2071.823 2067.122, 2040.475 2109.901, 2029.405 2170.500 C 2026.930 2184.047, 2026.370 2219.241, 2028.386 2234.500 C 2036.378 2294.985, 2067.426 2341.166, 2106.750 2351.057 L 2112 2352.378 2112 2480.939 C 2112.001 2855.039, 2113.143 3756.760, 2113.626 3764.739 C 2114.061 3771.929, 2114.664 3774.682, 2116.343 3777.147 C 2120.012 3782.537, 2123.530 3784.506, 2129.390 3784.451 C 2135.443 3784.394, 2139.986 3781.751, 2142.765 3776.671 C 2144.406 3773.672, 2144.486 3748.107, 2144.246 3306.500 C 2144.106 3049.650, 2143.719 2729.441, 2143.386 2594.924 L 2142.781 2350.348 2148.786 2348.158 C 2163.188 2342.907, 2181.319 2327.347, 2192.345 2310.776 C 2211.670 2281.732, 2222 2244.364, 2222 2203.500 C 2222 2162.893, 2212.202 2126.915, 2193.562 2099.074 C 2172.073 2066.979, 2141.604 2051.902, 2111.500 2058.468" stroke="none" fill="#db0000" fill-rule="evenodd"/>
    <path id="bs_tectum" class="substructure" d="M 2404.830 2055.337 C 2383.335 2063.373, 2366.932 2099.738, 2360.326 2154 C 2357.897 2173.953, 2357.883 2223.297, 2360.300 2244 C 2366.499 2297.081, 2379.857 2336.090, 2398.663 2356.025 C 2406.730 2364.577, 2413.483 2368.008, 2422.187 2367.978 C 2432.793 2367.941, 2441.593 2362.662, 2449.405 2351.649 C 2461.201 2335.020, 2469.301 2311.190, 2473.930 2279.500 C 2483.930 2211.045, 2474.785 2133.356, 2451.225 2086.612 C 2445.689 2075.628, 2443.471 2072.347, 2437.558 2066.394 C 2433.676 2062.485, 2428.475 2058.255, 2426 2056.994 C 2420.445 2054.162, 2410.131 2053.355, 2404.830 2055.337" stroke="none" fill="#ff5e00" fill-rule="evenodd"/>
    <path id="pons" class="content structure" d="M 1715.500 2372.393 C 1655.248 2382.320, 1600.041 2425.070, 1558.007 2494.349 C 1510.444 2572.741, 1484.191 2685.125, 1488.825 2790.500 C 1492.618 2876.765, 1509.818 2948.164, 1542.423 3013 C 1596.332 3120.199, 1682.465 3174.590, 1768.719 3155.902 C 1805.511 3147.931, 1839.150 3128.021, 1871.034 3095.345 C 1886.698 3079.292, 1894.436 3069.653, 1907.438 3050 C 1919.954 3031.082, 1926.052 3020.385, 1934.929 3001.781 C 1964.386 2940.045, 1980.510 2873.119, 1985.529 2791.750 L 1986.192 2781 2022.346 2781.040 C 2042.231 2781.061, 2095.400 2781.492, 2140.500 2781.997 C 2185.600 2782.501, 2282.182 2783.232, 2355.127 2783.621 L 2487.754 2784.328 2488.988 2782.023 C 2490.317 2779.539, 2490.340 2764.508, 2489.138 2683.453 C 2488.573 2645.356, 2488.305 2640.109, 2486.805 2637.822 L 2485.109 2635.237 2350.805 2634.964 C 2276.937 2634.813, 2213.575 2634.607, 2210 2634.505 C 2206.425 2634.402, 2151.911 2634.240, 2088.859 2634.143 C 1999.330 2634.006, 1974.002 2633.697, 1973.235 2632.734 C 1972.695 2632.055, 1970.579 2624.750, 1968.533 2616.500 C 1955.308 2563.171, 1931.781 2509.305, 1905.283 2471.689 C 1889.755 2449.645, 1868.559 2426.518, 1851.500 2413.005 C 1827.154 2393.720, 1798.506 2379.678, 1771.500 2373.790 C 1759.802 2371.240, 1727.404 2370.431, 1715.500 2372.393" stroke="none" fill="#e38cbc" fill-rule="evenodd"/>
    <path id="bs_ssaliv" class="substructure" d="M 2161.880 3021.794 C 2153.988 3025.917, 2150.489 3031.968, 2150.532 3041.422 C 2150.557 3047.135, 2151.087 3049.504, 2153.278 3053.709 C 2156.731 3060.335, 2162.982 3066.350, 2170 3069.798 C 2177.354 3073.411, 2189.286 3073.641, 2195.595 3070.292 C 2211.007 3062.110, 2212.155 3042.995, 2198.080 3028.920 C 2191.090 3021.930, 2184.001 3019, 2174.077 3019 C 2168.522 3019, 2166.218 3019.528, 2161.880 3021.794" stroke="none" fill="#00cd87" fill-rule="evenodd"/>
    <path id="bs_abduc" class="substructure" d="M 2207.500 2488.029 C 2190.535 2490.568, 2174.969 2503.197, 2165.410 2522.179 C 2151.879 2549.047, 2155.225 2582.472, 2173.240 2600.392 C 2180.465 2607.580, 2186.349 2610.725, 2195.502 2612.293 C 2220.347 2616.549, 2246.964 2594.863, 2255.435 2563.464 C 2256.320 2560.184, 2257.321 2552.992, 2257.659 2547.482 C 2259.896 2511.086, 2236.750 2483.651, 2207.500 2488.029" stroke="none" fill="#00c8cf" fill-rule="evenodd"/>
    <path id="bs_vestib" class="substructure" d="M 2419.972 2848.877 C 2383.774 2860.462, 2339.289 2920.417, 2321.486 2981.609 C 2315.493 3002.211, 2313.480 3025.167, 2316.443 3039.144 C 2325.204 3080.478, 2367.759 3070.439, 2407.376 3017.693 C 2441.456 2972.319, 2462.676 2911.829, 2457.082 2876 C 2453.517 2853.175, 2439.212 2842.719, 2419.972 2848.877" stroke="none" fill="#df0000" fill-rule="evenodd"/>
    <path id="bs_trigm" class="substructure" d="M 2207 2384.508 C 2195.783 2387.567, 2187.095 2392.853, 2177.472 2402.474 C 2167.418 2412.526, 2163.213 2419.705, 2160.430 2431.565 C 2154.202 2458.113, 2174.613 2479.317, 2202.265 2475.027 C 2220.582 2472.185, 2236.023 2462.437, 2247.025 2446.771 C 2253.932 2436.936, 2256.499 2428.867, 2256.499 2417 C 2256.499 2409.407, 2256.070 2406.572, 2254.362 2402.878 C 2251.261 2396.170, 2245.483 2390.275, 2238.560 2386.759 C 2233.217 2384.044, 2231.317 2383.641, 2222.500 2383.344 C 2215.761 2383.118, 2210.706 2383.497, 2207 2384.508" stroke="none" fill="#7fd3d6" fill-rule="evenodd"/>
    <path id="bs_facialm" class="substructure" d="M 2231.882 2932.381 C 2208.615 2940.695, 2198.041 2972.313, 2208.485 3002.345 C 2219.211 3033.186, 2250.536 3045.286, 2270.885 3026.446 C 2286.418 3012.066, 2291.008 2985.372, 2281.950 2962.095 C 2276.412 2947.864, 2264.185 2935.090, 2253.176 2932.032 C 2248.108 2930.625, 2236.253 2930.819, 2231.882 2932.381" stroke="none" fill="#7fd3d6" fill-rule="evenodd"/>
    <path id="bs_ACtl" class="substructure" d="M 2042.748 2688.427 C 2028.442 2693.532, 2016.816 2713.467, 2010.783 2743.237 C 2008.777 2753.131, 2008.506 2757.356, 2008.551 2778 C 2008.595 2798.242, 2008.903 2802.886, 2010.771 2811.500 C 2015.166 2831.763, 2021.179 2845.753, 2029.326 2854.666 C 2035.495 2861.416, 2040.851 2864.267, 2047.488 2864.334 C 2064.390 2864.505, 2079.159 2843.020, 2086.070 2808.208 C 2088.758 2794.667, 2089.730 2768.628, 2088.094 2753.976 C 2086.057 2735.720, 2080.124 2715.462, 2073.789 2705.129 C 2069.900 2698.786, 2062.665 2691.783, 2057.500 2689.363 C 2051.854 2686.717, 2048.191 2686.484, 2042.748 2688.427" stroke="none" fill="#ebbf00" fill-rule="evenodd"/>
    <path id="bs_Norepi" class="substructure" d="M 2191.391 2690.432 C 2180.517 2695.165, 2172.577 2712.116, 2168.407 2739.500 C 2165.901 2755.954, 2165.846 2795.449, 2168.305 2812 C 2172.924 2843.081, 2179.757 2858.710, 2191.227 2864.426 C 2203.894 2870.738, 2215.422 2865.369, 2222.931 2849.659 C 2230.511 2833.800, 2234 2812.061, 2234 2780.693 C 2234 2740.826, 2228.021 2711.274, 2217.310 2698.202 C 2210.881 2690.357, 2199.441 2686.927, 2191.391 2690.432" stroke="none" fill="#ebbf00" fill-rule="evenodd"/>
    <path id="bs_Sert" class="substructure" d="M 2028.500 2431.011 C 1996.292 2436.812, 1972.898 2467.310, 1972.898 2503.500 C 1972.898 2523.252, 1978.843 2538.864, 1990.990 2551.010 C 2002.127 2562.147, 2014.976 2567.421, 2030.635 2567.281 C 2058.067 2567.036, 2082.525 2546.635, 2092.156 2515.965 C 2094.181 2509.516, 2094.492 2506.527, 2094.440 2494 C 2094.386 2481.046, 2094.094 2478.638, 2091.701 2471.422 C 2088.966 2463.178, 2083.904 2454.378, 2078.081 2447.745 C 2073.553 2442.588, 2062.670 2435.579, 2055.384 2433.127 C 2048.236 2430.722, 2035.620 2429.729, 2028.500 2431.011" stroke="none" fill="#ebbf00" fill-rule="evenodd"/>
    <path id="bs_trigs" class="substructure" d="M 2327.436 2271.413 C 2320.234 2274.549, 2313.342 2287.039, 2309.605 2303.726 C 2303.799 2329.653, 2303.663 2371.387, 2309.308 2395.006 C 2311.346 2403.533, 2310.300 2405.829, 2302.281 2410.425 C 2287.455 2418.923, 2284.038 2423.448, 2276.178 2445 C 2274.936 2448.406, 2274.550 2452.903, 2274.593 2463.500 C 2274.646 2476.860, 2274.797 2477.876, 2277.888 2485.726 C 2281.714 2495.443, 2287.418 2503.539, 2295.537 2510.775 L 2301.429 2516.026 2300.089 2519.263 C 2296.119 2528.855, 2289.737 2548.864, 2287.575 2558.500 C 2267.420 2648.301, 2266.658 2798.902, 2285.972 2875.049 C 2289.561 2889.197, 2291.417 2894.132, 2298.559 2908.500 C 2302.897 2917.227, 2304.255 2921.153, 2305.133 2927.500 C 2305.931 2933.275, 2306.136 3050.933, 2305.869 3350.495 L 2305.500 3765.490 2309.482 3766.795 C 2311.672 3767.513, 2314.485 3767.844, 2315.732 3767.531 L 2318 3766.962 2318.013 3382.731 C 2318.021 3154.454, 2318.415 2989.571, 2318.983 2976.500 C 2319.509 2964.400, 2320.018 2949.100, 2320.113 2942.500 C 2320.355 2925.762, 2322.812 2914.531, 2327.899 2906.914 C 2354.985 2866.352, 2368.743 2714.887, 2355.912 2598.500 C 2352.646 2568.879, 2348.676 2547.728, 2343.363 2531.651 C 2340.181 2522.020, 2340.738 2520.208, 2347.626 2517.786 C 2360.374 2513.303, 2372.295 2496.713, 2377.583 2476.099 C 2380.810 2463.516, 2380.554 2458.556, 2375.977 2445 C 2370.325 2428.260, 2369.652 2427.296, 2354.213 2413.823 C 2349.491 2409.702, 2349.392 2409.282, 2351.520 2402.409 C 2354.737 2392.017, 2357.110 2374.352, 2357.687 2356.500 C 2359.118 2312.237, 2350.338 2277.217, 2336.343 2271.370 C 2332.352 2269.702, 2331.352 2269.707, 2327.436 2271.413" stroke="none" fill="#ff0e00" fill-rule="evenodd"/>
    <path id="bs_coch" class="substructure" d="M 2435.344 2809.420 C 2423.090 2815.126, 2414.987 2833.967, 2415.008 2856.708 C 2415.043 2894.377, 2429.505 2928.508, 2449.500 2938.116 C 2459.190 2942.772, 2467.066 2941.673, 2474.284 2934.658 C 2479.926 2929.175, 2484.487 2919.717, 2486.564 2909.195 C 2488.922 2897.251, 2488.163 2871.889, 2485.079 2859.580 C 2480.344 2840.678, 2473.324 2827.114, 2462.991 2816.897 C 2452.962 2806.981, 2445.131 2804.863, 2435.344 2809.420" stroke="none" fill="#ff0400" fill-rule="evenodd"/>
    <path id="medulla" class="content structure" d="M 2598.500 2901.067 C 2499.500 2901.426, 2273.150 2901.776, 2095.500 2901.845 L 1772.500 2901.971 1770.096 2904.720 L 1767.692 2907.470 1768.385 2963.985 C 1768.766 2995.068, 1769.490 3051.775, 1769.995 3090 C 1772.286 3263.722, 1772.385 3285.001, 1770.899 3284.987 C 1770.130 3284.980, 1766.575 3284.055, 1763 3282.932 C 1740.009 3275.709, 1705.139 3274.394, 1674.500 3279.595 C 1615.164 3289.668, 1555.542 3322.981, 1519.347 3366.286 C 1447.926 3451.736, 1477.223 3546.776, 1580.500 3564.672 C 1594.461 3567.092, 1628.157 3567.085, 1643.836 3564.659 C 1670.228 3560.577, 1695.418 3552.662, 1720.500 3540.570 C 1749 3526.831, 1768.485 3513.333, 1789.869 3492.515 C 1819.173 3463.987, 1836.998 3433.031, 1842.566 3401 C 1844.770 3388.316, 1844.094 3367.810, 1841.099 3356.500 C 1836.949 3340.834, 1827.849 3325.072, 1815.962 3312.962 L 1810 3306.887 1809.998 3203.694 C 1809.997 3146.937, 1809.698 3062.864, 1809.334 3016.865 L 1808.673 2933.230 1827.086 2932.641 C 1881.133 2930.913, 2445.401 2930.429, 2684.878 2931.906 C 2758.797 2932.362, 2781.362 2932.223, 2781.711 2931.313 C 2782.561 2929.095, 2780.518 2900.662, 2779.500 2900.537 C 2778.950 2900.469, 2697.500 2900.707, 2598.500 2901.067" stroke="none" fill="#f4946c" fill-rule="evenodd"/>
    <path id="bs_Amb" class="substructure" d="M 1878.134 3215.618 C 1876.863 3216.509, 1874.356 3219.546, 1872.563 3222.368 C 1850.545 3257.015, 1841.533 3376.221, 1854.460 3461.796 C 1860.611 3502.508, 1871.935 3526.492, 1883.624 3523.558 C 1887.826 3522.504, 1892.969 3516.910, 1896.433 3509.628 C 1922.464 3454.898, 1925.014 3295.201, 1900.865 3231.962 C 1896.647 3220.915, 1890.310 3214, 1884.406 3214 C 1882.228 3214, 1879.405 3214.728, 1878.134 3215.618" stroke="none" fill="#7fd3d6" fill-rule="evenodd"/>
    <path id="bs_solit" class="substructure" d="M 2436.667 3190.984 C 2429.937 3198.983, 2424.756 3224.438, 2420.790 3269 C 2419.067 3288.363, 2419.067 3375.969, 2420.790 3396.500 C 2425.351 3450.837, 2432.518 3481.618, 2441.388 3484.963 C 2452.563 3489.177, 2461.222 3454.511, 2464.982 3390.500 C 2466.280 3368.401, 2466.279 3314.100, 2464.979 3291.361 C 2462.282 3244.158, 2456.676 3209.160, 2449.563 3195.124 C 2445.613 3187.329, 2440.991 3185.845, 2436.667 3190.984" stroke="none" fill="#df0000" fill-rule="evenodd"/>
    <path id="bs_hypo" class="substructure" d="M 2236.027 3223.318 C 2231.015 3225.856, 2227.373 3234.068, 2224.042 3250.345 C 2219.260 3273.708, 2217.023 3304.141, 2217.010 3346.017 C 2216.986 3421.876, 2225.655 3480.286, 2238.296 3489.435 C 2240.851 3491.285, 2241.324 3491.332, 2243.796 3489.979 C 2247.940 3487.712, 2252.863 3476.590, 2255.525 3463.479 C 2265.438 3414.656, 2265.447 3322.033, 2255.546 3263.700 C 2250.502 3233.985, 2243.513 3219.526, 2236.027 3223.318" stroke="none" fill="#00cd87" fill-rule="evenodd"/>
    <path id="bs_isaliv" class="substructure" d="M 2175.365 3103.030 C 2166.219 3105.853, 2156.395 3116.641, 2152.624 3128 C 2150.209 3135.278, 2149.375 3150.188, 2150.997 3157.125 C 2157.636 3185.521, 2183.358 3195.419, 2201.062 3176.391 C 2209.812 3166.987, 2213.491 3155.438, 2212.847 3139.401 C 2212.491 3130.524, 2212.069 3128.679, 2208.858 3121.917 C 2204.991 3113.773, 2199.827 3107.986, 2193.572 3104.787 C 2189.074 3102.486, 2179.971 3101.608, 2175.365 3103.030" stroke="none" fill="#00cd87" fill-rule="evenodd"/>
    <path id="bs_dvag" class="substructure" d="M 2366.468 3143.904 C 2363.372 3145.230, 2357.379 3152.318, 2354.424 3158.149 C 2352.969 3161.021, 2350.065 3168.590, 2347.970 3174.969 C 2321.853 3254.503, 2323.341 3441.924, 2350.557 3500.829 C 2357.634 3516.147, 2364.462 3520.915, 2372.998 3516.501 C 2384.477 3510.565, 2395.915 3476.112, 2402.429 3427.847 C 2407.281 3391.896, 2408.428 3372.016, 2408.449 3323.500 C 2408.469 3279.028, 2407.804 3264.546, 2404.407 3235.500 C 2398.781 3187.386, 2388.367 3152.712, 2377.382 3145.515 C 2374.275 3143.479, 2369.207 3142.731, 2366.468 3143.904" stroke="none" fill="#04ccb1" fill-rule="evenodd"/>
    <path id="basalganglia_box" class="box" d="M 959.552 1327.250 C 958.702 1330.009, 958.003 1959.884, 958.850 1960.407 C 959.341 1960.711, 1061.388 1961.207, 1185.622 1961.511 C 1309.855 1961.814, 1467.172 1962.226, 1535.215 1962.426 C 1627.314 1962.697, 1659.160 1962.497, 1659.830 1961.645 C 1660.357 1960.975, 1660.976 1829.699, 1661.321 1645.336 C 1661.824 1377.159, 1661.705 1330, 1660.523 1329.019 C 1659.487 1328.160, 1580.766 1327.639, 1350.317 1326.970 C 937.821 1325.771, 960.013 1325.755, 959.552 1327.250 M 966.538 1333.287 C 966.334 1333.954, 965.894 1474.152, 965.561 1644.838 L 964.956 1955.176 977.228 1954.844 C 983.978 1954.662, 1138.938 1954.917, 1321.584 1955.411 L 1653.668 1956.310 1654.333 1844.405 C 1654.699 1782.857, 1654.999 1642.893, 1655 1533.373 L 1655 1334.247 1453.250 1333.642 C 1342.287 1333.309, 1187.467 1332.820, 1109.204 1332.556 C 998.223 1332.180, 966.827 1332.341, 966.538 1333.287" stroke="none" fill="#e5c40c" fill-rule="evenodd"/>
    <path id="basalganglia_content" class="content" d="M 1310 1347.617 C 1306.425 1347.822, 1296.709 1348.665, 1288.409 1349.490 C 1164.277 1361.825, 1055.010 1433.167, 1005.048 1534.500 C 975.438 1594.553, 968.574 1656.038, 984.506 1718.500 C 993.333 1753.106, 1011.220 1788.165, 1035.272 1818 C 1053.233 1840.280, 1082.164 1865.674, 1108.164 1881.983 C 1179.673 1926.837, 1274.337 1943.732, 1362.805 1927.432 C 1451.011 1911.179, 1527.688 1867.101, 1580.133 1802.500 C 1631.765 1738.900, 1654.069 1659.734, 1641.411 1585 C 1637.225 1560.286, 1629.984 1537.989, 1618.514 1514.500 C 1605.369 1487.582, 1591.026 1467.347, 1569 1444.648 C 1517.049 1391.109, 1445.953 1358.013, 1364.710 1349.551 C 1349.796 1347.997, 1321.053 1346.981, 1310 1347.617" stroke="none" fill="#ec74f4" fill-rule="evenodd"/>
    <path id="cerebellum_box" class="box" d="M 2827.046 2240.750 C 2749.279 2240.923, 2710.252 2241.348, 2709.568 2242.032 C 2708.044 2243.556, 2708.792 3155.016, 2710.318 3156.871 C 2711.271 3158.030, 2771.140 3158.191, 3095.973 3157.908 C 3307.463 3157.724, 3481.287 3157.204, 3482.250 3156.752 C 3483.913 3155.971, 3484 3133.199, 3484 2699.165 C 3484 2345.237, 3483.730 2242.130, 3482.800 2241.200 C 3481.647 2240.047, 3223.807 2239.870, 2827.046 2240.750 M 2969.249 2248.752 L 2714.998 2249.004 2715.249 2699.252 L 2715.500 3149.500 2919 3149.429 C 3030.925 3149.390, 3202.492 3149.277, 3300.261 3149.179 L 3478.022 3149 3477.965 2710.250 C 3477.934 2468.938, 3477.636 2266.191, 3477.303 2259.702 L 3476.698 2247.904 3350.099 2248.202 C 3280.470 2248.366, 3109.087 2248.613, 2969.249 2248.752" stroke="none" fill="#f49979" fill-rule="evenodd"/>
    <path id="cerebellum_cortex" class="content structure" d="M 3041.500 2519.521 C 3004.812 2525.440, 2968.912 2544.749, 2939.481 2574.394 C 2864.247 2650.172, 2842.369 2776.212, 2887.909 2871.500 C 2927.591 2954.529, 3008.159 2992.635, 3088.500 2966.373 C 3099.634 2962.734, 3119.261 2953.255, 3129.718 2946.467 C 3165.623 2923.160, 3196.494 2885.976, 3215.468 2843.180 C 3251.839 2761.148, 3246.555 2662.944, 3202.167 2596 C 3175.424 2555.668, 3139.374 2530.030, 3096 2520.496 C 3085.364 2518.159, 3053.482 2517.588, 3041.500 2519.521" stroke="none" fill="#ad92da" fill-rule="evenodd"/>
    <path id="cerebellum_nuclei" class="content structure" d="M 3071 2273.043 C 3026.215 2277.273, 2983.091 2288.533, 2938.580 2307.620 C 2915.283 2317.610, 2909.008 2321.530, 2907.691 2326.917 C 2906.344 2332.426, 2917.238 2406.556, 2920.646 2415.074 C 2921.558 2417.354, 2923.378 2419.656, 2924.874 2420.422 C 2929.516 2422.799, 2938.855 2423.217, 2951.500 2421.613 C 2979.891 2418.011, 3027.720 2416.819, 3055.605 2419.016 C 3127.324 2424.669, 3186.616 2445.409, 3230 2480.019 C 3240.622 2488.492, 3259.706 2508.031, 3267.290 2518.197 C 3342.101 2618.477, 3323.994 2779.928, 3218.135 2956.500 C 3205.738 2977.178, 3179.284 3017, 3177.945 3017 C 3177.375 3017, 3175.805 3018.105, 3174.455 3019.455 C 3170.196 3023.713, 3171.017 3028.261, 3177.818 3038.091 C 3181.018 3042.716, 3185.151 3049.350, 3187.002 3052.834 C 3188.955 3056.509, 3192.558 3061.127, 3195.585 3063.834 C 3201.329 3068.973, 3213.646 3085.989, 3220.154 3097.779 C 3222.450 3101.939, 3226.505 3107.745, 3229.164 3110.682 C 3231.824 3113.618, 3234 3116.415, 3234 3116.897 C 3234 3117.378, 3235.603 3118.533, 3237.562 3119.462 C 3240.393 3120.806, 3241.751 3120.934, 3244.184 3120.086 C 3252.715 3117.112, 3306.176 3066.070, 3326.960 3041.055 C 3391.424 2963.469, 3435.491 2871.653, 3454.413 2775.500 C 3468.921 2701.775, 3467.680 2624.907, 3450.880 2556.659 C 3423.822 2446.735, 3357.706 2358.551, 3266.707 2311.010 C 3230.420 2292.052, 3193.648 2280.536, 3150 2274.461 C 3136.422 2272.570, 3085.649 2271.659, 3071 2273.043" stroke="none" fill="#bcec04" fill-rule="evenodd"/>
    <path id="flocculonodulum" class="substructure" d="M 3297.455 2946.455 C 3293.773 2950.136, 3294.161 2954.748, 3298.648 2960.626 C 3306.840 2971.359, 3309.526 2982.495, 3306.639 2993.764 C 3304.321 3002.813, 3301.500 3007.688, 3294.612 3014.549 C 3279.489 3029.614, 3256.436 3033.255, 3237.706 3023.537 C 3235.016 3022.142, 3231.360 3021, 3229.582 3021 C 3223.462 3021, 3219.740 3028.408, 3222.896 3034.306 C 3225.716 3039.575, 3239.136 3045.330, 3252.733 3047.101 C 3274.738 3049.968, 3299.200 3039.533, 3312.753 3021.498 C 3328.607 3000.401, 3329.782 2974.877, 3315.861 2954.030 C 3313.658 2950.731, 3310.702 2947.124, 3309.293 2946.016 C 3305.708 2943.196, 3300.521 2943.388, 3297.455 2946.455" stroke="none" fill="#8a2000" fill-rule="evenodd"/>
    <path id="vermis" class="substructure" d="M 3343.378 2742.437 C 3337.799 2744.865, 3335.365 2751.076, 3338.037 2756.069 C 3338.607 2757.134, 3342.196 2760.063, 3346.011 2762.577 C 3359.929 2771.745, 3371.041 2786.974, 3373.903 2800.799 C 3377.346 2817.432, 3371.773 2836.776, 3358.626 2853.824 C 3351.361 2863.244, 3337.150 2876.134, 3325.500 2883.871 C 3319.450 2887.889, 3313.723 2892.149, 3312.772 2893.338 C 3310.802 2895.804, 3310.493 2900.184, 3312.080 2903.150 C 3313.640 2906.065, 3319.119 2908.113, 3322.649 2907.101 C 3329.608 2905.105, 3349.870 2890.218, 3361.522 2878.540 C 3382.734 2857.280, 3393.051 2835.649, 3393.256 2812 C 3393.367 2799.137, 3391.626 2791.815, 3385.477 2779.293 C 3381.990 2772.192, 3379.086 2768.110, 3372.781 2761.450 C 3364.424 2752.622, 3356.004 2745.579, 3350.300 2742.646 C 3346.554 2740.719, 3347.275 2740.741, 3343.378 2742.437" stroke="none" fill="#ff5d00" fill-rule="evenodd"/>
    <path id="hemispheres" class="substructure" d="M 3073.500 2322.118 C 3045.924 2323.872, 3013.412 2328.326, 2982.145 2334.631 C 2963.218 2338.447, 2930.157 2346.370, 2925.716 2348.153 C 2917.418 2351.485, 2916.813 2361.785, 2924.696 2365.526 C 2928.026 2367.106, 2928.634 2367.016, 2947.808 2362.117 C 2984.845 2352.653, 3022.469 2346.028, 3060 2342.364 C 3083.650 2340.054, 3128.777 2340.038, 3149.555 2342.331 C 3207.941 2348.775, 3254.773 2366.244, 3290 2394.721 C 3299.708 2402.568, 3317.008 2420.450, 3324.131 2430 C 3365.624 2485.630, 3379.343 2566.977, 3363.528 2663.615 C 3358.561 2693.970, 3348.103 2737.741, 3345.090 2740.782 C 3343.635 2742.251, 3343.654 2742.330, 3345.313 2741.701 C 3347.441 2740.895, 3351.678 2742.911, 3358 2747.736 L 3362.500 2751.170 3364.308 2745.335 C 3367.691 2734.417, 3375.873 2700.550, 3378.884 2685 C 3385.683 2649.893, 3388.392 2622.442, 3388.407 2588.500 C 3388.422 2553.832, 3385.783 2530.846, 3378.542 2502.596 C 3361.100 2434.540, 3320.241 2383.200, 3259.159 2352.589 C 3210.708 2328.308, 3145.192 2317.555, 3073.500 2322.118" stroke="none" fill="#f7b200" fill-rule="evenodd"/>
    <path id="dentate" class="substructure" d="M 2993.517 2585.043 C 2984.768 2586.033, 2973.711 2589.087, 2967.620 2592.194 C 2961.927 2595.098, 2954.157 2602.757, 2951.417 2608.164 C 2930.524 2649.395, 3013.216 2715.857, 3107 2733.210 C 3123.737 2736.307, 3155.087 2736.332, 3166.154 2733.257 C 3186.042 2727.732, 3197.317 2716.623, 3198.718 2701.175 C 3200.094 2685.998, 3191.423 2669.332, 3172.869 2651.492 C 3146.438 2626.078, 3109.143 2605.887, 3065 2593.093 C 3041.403 2586.254, 3012.036 2582.946, 2993.517 2585.043" stroke="none" fill="#f7b200" fill-rule="evenodd"/>
    <path id="emboliform" class="substructure" d="M 3155.628 2760.052 C 3142.834 2763.250, 3128.373 2775.533, 3121.701 2788.871 C 3110.629 2811.003, 3116.335 2835.090, 3134.805 2844.187 C 3138.768 2846.139, 3141.067 2846.500, 3149.552 2846.500 C 3159.149 2846.500, 3159.941 2846.332, 3167.052 2842.783 C 3176.517 2838.059, 3182.537 2832.834, 3188.368 2824.282 C 3194.418 2815.407, 3197.180 2807.481, 3197.770 2797.294 C 3198.487 2784.940, 3196.136 2777.341, 3189.323 2769.982 C 3182.687 2762.815, 3176.223 2759.815, 3166.500 2759.390 C 3162.650 2759.221, 3157.757 2759.519, 3155.628 2760.052" stroke="none" fill="#ff5d00" fill-rule="evenodd"/>
    <path id="globose" class="substructure" d="M 3052.615 2745.639 C 3049.205 2746.686, 3046.157 2748.712, 3042.519 2752.351 C 3025.416 2769.454, 3030.478 2802.243, 3051.839 2812.716 C 3065.546 2819.435, 3081.059 2813.684, 3088.422 2799.154 C 3098.716 2778.840, 3088.615 2751.418, 3068.655 2745.490 C 3062.501 2743.663, 3058.945 2743.696, 3052.615 2745.639" stroke="none" fill="#ff5d00" fill-rule="evenodd"/>
    <path id="fastigial" class="substructure" d="M 2947.969 2792.480 C 2941.993 2794.396, 2936.070 2799.592, 2932.992 2805.621 C 2929.515 2812.430, 2929.445 2825.257, 2932.848 2832.172 C 2943.216 2853.243, 2970.188 2854.671, 2980.406 2834.691 C 2986.133 2823.493, 2983.635 2808.702, 2974.470 2799.536 C 2967.440 2792.507, 2956.757 2789.662, 2947.969 2792.480" stroke="none" fill="#8a2000" fill-rule="evenodd"/>
    <path id="cerebrum_box" class="box" d="M 173.953 11.971 C 145.568 12.559, 143.861 12.944, 142.643 19.035 C 142.294 20.779, 142.209 22.529, 142.453 22.924 C 142.899 23.646, 143.104 75.475, 144.926 649 C 145.470 820.325, 146.158 1014.725, 146.455 1081 C 146.753 1147.275, 147.289 1270.948, 147.647 1355.828 C 148.202 1487.301, 148.509 1510.366, 149.721 1511.578 C 150.792 1512.650, 154.267 1513.017, 163.821 1513.070 C 170.795 1513.108, 201.475 1513.326, 232 1513.554 C 262.525 1513.781, 570.775 1514.635, 917 1515.450 C 1263.225 1516.266, 1571.025 1517.172, 1601 1517.464 C 1630.975 1517.756, 1781.500 1518.222, 1935.500 1518.499 C 2089.500 1518.776, 2254.875 1519.226, 2303 1519.499 C 2351.125 1519.772, 2527.975 1520.227, 2696 1520.510 C 2864.025 1520.793, 3029.850 1521.238, 3064.500 1521.498 C 3099.150 1521.758, 3233.758 1522.270, 3363.629 1522.635 L 3599.759 1523.298 3601.497 1520.644 C 3603.082 1518.225, 3603.180 1515.623, 3602.598 1491.245 C 3602.247 1476.535, 3601.513 1299.350, 3600.968 1097.500 C 3600.423 895.650, 3599.540 638.250, 3599.007 525.500 C 3598.473 412.750, 3597.934 257.275, 3597.810 180 C 3597.686 102.725, 3597.414 36.447, 3597.205 32.716 C 3596.886 26.993, 3596.470 25.699, 3594.549 24.440 C 3590.525 21.804, 3522.524 21.064, 3235.356 20.533 C 3084.735 20.255, 2912 19.801, 2851.500 19.524 C 2664.165 18.669, 2325.307 17.685, 1637 15.999 C 1427.175 15.485, 1215.450 14.817, 1166.500 14.516 C 1117.550 14.214, 882.200 13.522, 643.500 12.977 C 404.800 12.433, 207.250 11.865, 204.500 11.715 C 201.750 11.565, 188.004 11.680, 173.953 11.971 M 153.175 178.750 C 153.278 265.513, 153.687 421.775, 154.084 526 C 155.726 957.409, 156.967 1313.200, 157.140 1401.500 C 157.241 1453.200, 157.517 1497.358, 157.755 1499.629 L 158.187 1503.757 264.343 1504.363 C 322.730 1504.697, 477.600 1505.208, 608.500 1505.500 C 739.400 1505.791, 878.675 1506.242, 918 1506.500 C 957.325 1506.758, 1096.825 1507.202, 1228 1507.485 C 1829.551 1508.786, 1932.699 1509.045, 2040 1509.525 C 2102.975 1509.806, 2224.700 1510.244, 2310.500 1510.498 C 2396.300 1510.751, 2540.525 1511.192, 2631 1511.478 C 2721.475 1511.764, 2920.150 1512.224, 3072.500 1512.500 C 3224.850 1512.776, 3404.005 1513.275, 3470.623 1513.607 L 3591.746 1514.212 3592.478 1504.447 C 3592.881 1499.076, 3592.940 1464.716, 3592.609 1428.091 C 3592.278 1391.466, 3591.768 1242.250, 3591.476 1096.500 C 3591.185 950.750, 3590.523 743.975, 3590.006 637 C 3589.490 530.025, 3588.794 351.825, 3588.460 241 C 3588.126 130.175, 3587.623 38.530, 3587.342 37.345 C 3586.704 34.656, 3585.450 34.415, 3562.500 32.574 C 3544.381 31.121, 3541.203 31.089, 3250.500 29.505 C 3199.900 29.229, 3029.800 28.773, 2872.500 28.490 C 2715.200 28.208, 2525.075 27.757, 2450 27.487 C 2096.179 26.218, 1780.062 25.247, 1477 24.500 C 1064.886 23.484, 860.834 22.876, 622 21.954 C 487.525 21.435, 326.985 21.008, 265.244 21.005 L 152.988 21 153.175 178.750" stroke="none" fill="#8c76dd" fill-rule="evenodd"/>
    <path id="cerebrum_content" class="content structure" d="M 1814.500 39.135 C 1734.209 40.494, 1622.531 45.918, 1548.500 52.055 C 1168.438 83.560, 833.653 163.104, 584.792 281.030 C 448.327 345.695, 341.576 421.160, 271.505 502.500 C 242.169 536.553, 215.535 578.363, 201.431 612.500 C 143.816 751.955, 189.583 891.227, 335 1018.956 C 503.012 1166.533, 807.221 1288.710, 1173 1355.516 C 1341.095 1386.216, 1516.681 1405.734, 1694 1413.429 C 1832.341 1419.433, 2006.690 1418.432, 2117.500 1410.998 C 2125.750 1410.444, 2143.975 1409.303, 2158 1408.462 C 2235.169 1403.832, 2334.335 1394.006, 2421 1382.401 C 2586.462 1360.245, 2734.247 1329.881, 2878.500 1288.403 C 3040.536 1241.811, 3184.419 1181.909, 3300.277 1112.807 C 3322.807 1099.369, 3363.982 1071.917, 3382.666 1057.876 C 3418.222 1031.157, 3437.691 1014.388, 3466.066 986.042 C 3506.522 945.627, 3532.915 910.695, 3554.183 869.414 C 3564.628 849.142, 3570.321 835.837, 3575.939 818.568 C 3595.783 757.574, 3595.726 695.378, 3575.773 635.528 C 3547.153 549.681, 3479.417 467.126, 3375.950 391.989 C 3196.500 261.675, 2920.853 159.686, 2583 98.599 C 2396.689 64.913, 2191.860 44.585, 1993 40.045 C 1932.698 38.669, 1863.059 38.314, 1814.500 39.135" stroke="none" fill="#6404fc" fill-rule="evenodd"/>
    <path id="PFC" class="substructure" d="M 693.500 177.539 C 663.357 180.847, 644.303 185.075, 615.500 194.847 C 561.334 213.223, 516.675 239.073, 468.500 279.934 C 455.700 290.791, 424.924 321.552, 413.908 334.500 C 392.974 359.105, 373.640 386.160, 358.167 412.500 C 348.151 429.550, 333.317 458.373, 328.457 470.224 C 326.039 476.122, 322.974 483.097, 321.647 485.724 C 319.172 490.621, 305.769 528.954, 302.145 541.500 C 299.045 552.234, 291.333 586.135, 289.065 599 C 280.241 649.065, 279.858 709.439, 288.049 759 C 290.272 772.450, 299.385 809.069, 303.354 820.500 C 314.398 852.308, 330.569 884.838, 348.402 911.118 C 356.127 922.502, 376.947 946.801, 388.658 958.102 C 423.773 991.988, 471.883 1019.092, 516.402 1030.071 C 552.626 1039.004, 574.717 1041.618, 606 1040.675 C 630.370 1039.939, 651.879 1036.731, 684.834 1028.916 C 695.713 1026.335, 739.863 1011.110, 742.500 1009.029 C 743.050 1008.595, 749.125 1005.621, 756 1002.420 C 778.715 991.843, 810.619 972.233, 834 954.477 C 876.916 921.884, 920.457 875.178, 950.972 829 C 972.530 796.377, 992.362 758.380, 1005.514 724.500 C 1008.717 716.250, 1011.903 708.600, 1012.595 707.500 C 1013.287 706.400, 1014.582 702.575, 1015.474 699 C 1016.366 695.425, 1017.944 689.800, 1018.980 686.500 C 1029.113 654.246, 1034.053 631.295, 1039.536 591 C 1046.422 540.395, 1044.314 493.298, 1032.572 435.450 C 1029.092 418.307, 1017.107 380.251, 1011.380 368.164 C 1009.905 365.049, 1006.341 357.490, 1003.462 351.367 C 979.798 301.040, 940.656 255.297, 895.102 224.733 C 877.751 213.091, 855.033 201.655, 833.804 193.877 C 823.323 190.036, 812.216 186.256, 809.123 185.476 C 799.185 182.971, 775.876 178.970, 762.500 177.474 C 746.476 175.681, 710.120 175.716, 693.500 177.539" stroke="none" fill="#ff4964" fill-rule="evenodd"/>
    <path id="ACC" class="substucture" d="M 1249 972.036 C 1082.958 979.955, 903.280 1022.656, 785.873 1082.100 C 778.378 1085.895, 772.025 1089, 771.755 1089 C 770.826 1089, 748.291 1102.753, 739.163 1108.890 C 708.893 1129.244, 687.015 1152.709, 679.851 1172.507 C 676.589 1181.521, 676.172 1194.914, 678.876 1203.816 C 685.584 1225.901, 713.137 1245.275, 755.275 1257.535 C 871.349 1291.309, 1087.053 1276.735, 1273.500 1222.522 C 1431.800 1176.494, 1534 1111.226, 1534 1056.161 C 1534 1049.920, 1531.585 1040.875, 1528.237 1034.575 C 1524.930 1028.350, 1512.543 1015.750, 1504.666 1010.598 C 1475.552 991.554, 1426.919 978.988, 1361 973.476 C 1338.734 971.614, 1275.019 970.795, 1249 972.036" stroke="none" fill="#ff8400" fill-rule="evenodd"/>
    <path id="preM" class="substructure" d="M 1241.849 149.564 C 1221.214 153.298, 1200.450 164.728, 1182.152 182.426 C 1124.526 238.158, 1091.859 349.012, 1094.314 480.500 C 1095.129 524.188, 1098.197 556.320, 1105.451 597.147 C 1123.940 701.213, 1165.070 792.871, 1216.483 844.580 C 1240.137 868.371, 1262.282 882.173, 1288 889.155 C 1295.316 891.141, 1298.867 891.462, 1313.500 891.462 C 1327.899 891.462, 1331.728 891.127, 1338.524 889.268 C 1351.378 885.752, 1360.649 881.456, 1372.689 873.438 C 1418.317 843.052, 1451.821 779.688, 1469.419 690.500 C 1476.673 653.736, 1478.854 631.320, 1479.682 585 C 1480.761 524.715, 1476.834 482.631, 1464.426 421.500 C 1449.682 348.856, 1420.326 277.328, 1385.099 228.213 C 1353.540 184.213, 1316.416 156.532, 1279.491 149.467 C 1270.063 147.663, 1252.097 147.709, 1241.849 149.564 M 692.296 176.554 C 685.584 177.287, 675.025 178.812, 668.832 179.943 C 662.638 181.074, 657.142 182, 656.619 182 C 656.095 182, 655.912 182.245, 656.211 182.545 C 656.511 182.844, 662.254 182.151, 668.975 181.004 C 689.369 177.525, 707.474 176.021, 729 176.020 C 751.336 176.019, 767.872 177.518, 789.386 181.495 C 797.023 182.907, 803.456 183.877, 803.681 183.652 C 804.401 182.932, 776.957 178.043, 763.506 176.495 C 747.456 174.648, 709.473 174.680, 692.296 176.554 M 881 215.266 C 881.275 215.561, 886.900 219.371, 893.500 223.731 C 911.304 235.494, 924.843 246.611, 940.578 262.386 C 968.035 289.912, 988.985 320.079, 1005.591 356 C 1009.277 363.975, 1012.701 370.950, 1013.199 371.500 C 1014.455 372.887, 1011.772 366.613, 1005.071 352.492 C 980.422 300.549, 941.331 254.616, 896 224.331 C 886.478 217.969, 879.707 213.877, 881 215.266 M 546.452 224.317 C 531.871 232.428, 523 237.856, 523 238.668 C 523 239.248, 526.870 237.128, 531.500 234.013 C 533.700 232.532, 541.462 228.040, 548.750 224.030 C 560.285 217.683, 562.999 216, 561.702 216 C 561.537 216, 554.675 219.743, 546.452 224.317 M 512.576 245.004 C 465.703 276.989, 423.077 318.370, 387.612 366.316 C 375.138 383.181, 356.297 412.592, 350.020 425 C 346.964 431.041, 351.333 424.544, 357.081 414.500 C 371.765 388.842, 392.452 359.720, 413.908 334.500 C 424.924 321.552, 455.700 290.791, 468.500 279.934 C 485.569 265.456, 504.473 251.068, 516.250 243.590 C 521.209 240.441, 522.916 239, 521.687 239 C 521.516 239, 517.416 241.702, 512.576 245.004 M 1032 431.694 C 1032 432.259, 1032.907 437.172, 1034.015 442.611 C 1035.123 448.050, 1037.102 459.475, 1038.414 468 C 1039.726 476.525, 1040.844 482.260, 1040.899 480.743 C 1041.039 476.906, 1038.461 459.960, 1035.384 444.500 C 1033.048 432.763, 1032 428.796, 1032 431.694 M 1039.608 590.500 C 1039.185 594.350, 1037.498 605.536, 1035.860 615.357 C 1034.222 625.179, 1033.055 633.388, 1033.267 633.600 C 1034.320 634.654, 1041.467 588.441, 1040.752 585.197 C 1040.547 584.264, 1040.032 586.650, 1039.608 590.500 M 281.654 658.157 C 280.874 672.658, 280.975 698.796, 281.862 712 C 282.213 717.225, 282.500 704.513, 282.500 683.750 C 282.500 662.987, 282.457 646, 282.404 646 C 282.351 646, 282.013 651.471, 281.654 658.157 M 1025.528 664.223 C 1024.565 667.675, 1022.027 676.332, 1019.888 683.461 C 1015.622 697.680, 1014.720 702.946, 1018.596 691 C 1022.605 678.646, 1028.135 658.802, 1027.692 658.359 C 1027.465 658.132, 1026.491 660.770, 1025.528 664.223 M 1011.082 710.250 C 1002.699 731.973, 997.944 743.408, 992.988 753.770 C 989.686 760.672, 987.142 766.476, 987.335 766.668 C 988.290 767.623, 1005.654 728.272, 1011.569 711.750 C 1012.993 707.772, 1012.557 706.429, 1011.082 710.250 M 978.018 783.742 C 970.476 797.574, 961.065 813.357, 950.437 830 C 948.506 833.025, 947.955 834.278, 949.213 832.785 C 955.130 825.761, 988.027 769.675, 986.884 768.560 C 986.673 768.354, 982.683 775.186, 978.018 783.742 M 925.057 864.483 C 914.870 877.272, 903.123 890.911, 893.126 901.555 C 889.482 905.435, 890.856 904.227, 896.180 898.870 C 905.465 889.527, 920.165 872.467, 930.316 859.250 C 938.500 848.596, 934.697 852.379, 925.057 864.483 M 877.462 917.103 C 870.586 924.176, 845.450 945.793, 834 954.482 C 819.883 965.195, 800.749 977.920, 784.988 987.077 C 777.294 991.547, 771 995.399, 771 995.637 C 771 996.198, 772.849 995.195, 787.401 986.732 C 809.365 973.959, 830.074 959.346, 851.500 941.499 C 862.171 932.611, 884.049 912.127, 882.962 912.042 C 882.667 912.019, 880.192 914.297, 877.462 917.103 M 365.153 933.974 C 371.974 942.564, 389.577 960.493, 400 969.466 C 411.607 979.459, 434 996.027, 434 994.621 C 434 994.360, 429.387 990.902, 423.750 986.936 C 404.301 973.254, 388.682 959.075, 367.644 936 C 362.791 930.678, 362.068 930.090, 365.153 933.974 M 512.500 1030.085 C 520.374 1032.582, 547.720 1038.207, 549.843 1037.767 C 550.754 1037.578, 548.125 1036.859, 544 1036.168 C 539.875 1035.477, 530.036 1033.357, 522.136 1031.456 C 506.180 1027.617, 503.525 1027.239, 512.500 1030.085 M 675 1031.071 C 670.875 1032.088, 661.650 1034.026, 654.500 1035.378 C 647.350 1036.730, 642.434 1037.873, 643.575 1037.918 C 644.716 1037.963, 650.566 1037.104, 656.575 1036.009 C 668.811 1033.778, 687.582 1029.215, 684.500 1029.219 C 683.400 1029.221, 679.125 1030.054, 675 1031.071" stroke="none" fill="#ff7f7c" fill-rule="evenodd"/>
    <path id="M1" class="substructure" d="M 1641.112 121.581 C 1608.645 130.312, 1580.090 168.477, 1558.554 231.923 C 1494.961 419.269, 1510.215 752.690, 1589.576 910 C 1610.994 952.456, 1635.593 978.068, 1661.275 984.650 C 1669.655 986.798, 1683.330 986.048, 1691.500 982.993 C 1743.590 963.517, 1784.779 863.204, 1800.923 716.500 C 1815.439 584.597, 1807.011 433.521, 1778.490 314.352 C 1767.123 266.858, 1749.470 217.529, 1733.274 188 C 1720.805 165.266, 1702.256 142.279, 1688.407 132.396 C 1672.925 121.348, 1656.198 117.523, 1641.112 121.581 M 1241 148.455 C 1180.640 161.137, 1132.599 226.021, 1108.062 328 C 1098.709 366.869, 1094.161 406.289, 1093.291 456.014 C 1092.126 522.607, 1098.642 580.240, 1114.651 644.955 C 1119.459 664.389, 1129.449 696.290, 1136.216 713.817 C 1142.971 731.310, 1141.337 724.492, 1133.851 703.948 C 1114.625 651.183, 1102.032 592.294, 1096.439 529 C 1094.263 504.375, 1093.474 453.738, 1094.905 430.500 C 1097.034 395.907, 1100.771 367.352, 1107.075 337.500 C 1127.141 242.473, 1171.628 173.784, 1225.945 153.961 C 1247.227 146.194, 1273.242 145.998, 1294.471 153.445 C 1298.306 154.790, 1301.599 155.734, 1301.790 155.543 C 1302.244 155.089, 1292.044 151.283, 1285.015 149.283 C 1277.417 147.122, 1249.816 146.602, 1241 148.455 M 1311.500 160.822 C 1323.853 167.389, 1330.515 171.770, 1341.290 180.417 C 1385.090 215.562, 1425.575 284.509, 1450.033 365.611 C 1459.545 397.151, 1465.301 422.233, 1471.119 457.500 C 1472.389 465.200, 1473.577 470.784, 1473.757 469.908 C 1474.284 467.356, 1468.265 433.093, 1463.849 413.500 C 1458.870 391.412, 1451.911 366.778, 1444.549 345.175 C 1413.709 254.688, 1364.897 186.356, 1312.289 160.025 C 1301.125 154.437, 1300.560 155.007, 1311.500 160.822 M 716.750 174.747 C 723.487 174.920, 734.513 174.920, 741.250 174.747 C 747.987 174.574, 742.475 174.432, 729 174.432 C 715.525 174.432, 710.013 174.574, 716.750 174.747 M 765 176.593 C 771.325 177.351, 781.389 178.902, 787.365 180.038 C 793.340 181.174, 798.425 181.909, 798.664 181.670 C 799.737 180.597, 763.812 174.914, 757.178 175.107 C 755.155 175.166, 758.675 175.835, 765 176.593 M 482.489 266.175 C 461.470 282.951, 434.457 308.747, 417.223 328.500 C 411.945 334.550, 406.732 340.512, 405.639 341.750 C 404.546 342.988, 403.898 344, 404.200 344 C 404.501 344, 408.286 339.837, 412.609 334.750 C 430.588 313.595, 461.509 283.758, 483.250 266.588 C 491.052 260.426, 492.647 259, 491.739 259 C 491.596 259, 487.433 262.229, 482.489 266.175 M 1477.597 505.699 C 1477.854 510.758, 1478.488 521.783, 1479.006 530.199 C 1480.215 549.847, 1480.216 593.077, 1479.007 613 C 1476.931 647.230, 1477.014 645.188, 1477.967 638.500 C 1481.433 614.194, 1481.770 537.676, 1478.538 509 C 1477.220 497.301, 1477.160 497.089, 1477.597 505.699 M 1469.602 689.660 C 1452.842 777.290, 1418.319 843.002, 1373.254 873.052 C 1360.501 881.555, 1359.952 882.018, 1366.528 878.716 C 1369.294 877.327, 1375.594 873.062, 1380.528 869.238 C 1417.476 840.603, 1446.308 789.264, 1463.951 720.694 C 1468.178 704.268, 1473.413 677.740, 1472.795 675.886 C 1472.600 675.299, 1471.163 681.498, 1469.602 689.660 M 1144 732.245 C 1144 733.647, 1151.458 750.042, 1157.414 761.730 C 1185.010 815.893, 1219.988 856.661, 1256.918 877.707 C 1261.061 880.068, 1264.912 882, 1265.475 882 C 1266.038 882, 1261.452 879.012, 1255.285 875.359 C 1240.821 866.793, 1230.162 858.338, 1216.483 844.580 C 1192.440 820.399, 1168.707 784.712, 1151.310 746.583 C 1145.299 733.409, 1144 730.861, 1144 732.245 M 1272.697 884.968 C 1289.474 893.065, 1316.071 895.613, 1336.217 891.054 C 1342.191 889.702, 1351.211 886.507, 1354.628 884.532 C 1356.208 883.619, 1356.600 883.183, 1355.500 883.563 C 1354.400 883.943, 1350.575 885.288, 1347 886.554 C 1336.431 890.294, 1325.939 892, 1313.500 892 C 1300.695 892, 1290.764 890.325, 1278.500 886.098 C 1274.100 884.582, 1269.600 883.034, 1268.500 882.659 C 1267.400 882.284, 1269.288 883.323, 1272.697 884.968 M 884.091 910.870 C 869.567 925.517, 859.892 935.522, 862.591 933.104 C 875.612 921.442, 913.159 883.333, 910.853 884.120 C 910.659 884.187, 898.616 896.224, 884.091 910.870" stroke="none" fill="#ffb6ab" fill-rule="evenodd"/>
    <path id="sS1" class="substructure" d="M 1941.742 126.291 C 1909.786 137.483, 1881.045 184.967, 1860.206 261 C 1851.531 292.650, 1852.040 290.439, 1846.548 320.363 C 1839.322 359.741, 1836.660 378.515, 1833.556 412 C 1825.382 500.171, 1825.220 584.789, 1833.055 673 C 1838.321 732.289, 1847.677 787.211, 1860.951 836.747 C 1873.001 881.717, 1888.976 920.859, 1905.665 946.304 C 1914.829 960.277, 1929.969 975.345, 1939.772 980.249 C 1956.338 988.537, 1973.341 987.682, 1988.605 977.794 C 1996.216 972.863, 2009.964 958.423, 2016.496 948.500 C 2029.375 928.933, 2039.077 907.770, 2049.501 876.500 C 2093.149 745.576, 2103.354 527.474, 2074.019 352.500 C 2062.661 284.753, 2046.891 230.076, 2027.005 189.500 C 2011.401 157.659, 1994.151 137.263, 1975.154 128.194 C 1968.653 125.090, 1966.696 124.642, 1958.154 124.305 C 1949.939 123.980, 1947.493 124.276, 1941.742 126.291" stroke="none" fill="#989cd3" fill-rule="evenodd"/>
    <path id="iS1" class="substructure" d="M 1942 125.276 C 1938.425 126.499, 1933.250 128.802, 1930.500 130.394 C 1923.174 134.635, 1907.422 151.047, 1900.201 161.964 C 1894.423 170.699, 1881.979 193.766, 1882.016 195.674 C 1882.025 196.128, 1885.220 190.435, 1889.117 183.022 C 1902.089 158.347, 1914.765 142.315, 1928.645 133.032 C 1939.145 126.009, 1947.547 123.596, 1959.364 124.211 C 1964.389 124.472, 1967.375 124.352, 1966 123.943 C 1960.601 122.337, 1948.647 123.001, 1942 125.276 M 1977.704 129.389 C 1993.296 137.793, 2009.059 155.559, 2021.504 178.755 C 2023.055 181.645, 2024.516 183.818, 2024.751 183.582 C 2025.255 183.079, 2018.368 171.045, 2012.685 162.500 C 2002.305 146.894, 1990.553 135.238, 1978.972 129.065 C 1975.808 127.379, 1972.833 126.010, 1972.360 126.023 C 1971.887 126.035, 1974.292 127.550, 1977.704 129.389 M 2059.383 281.250 C 2060.671 285.953, 2068.969 323.807, 2070.157 330.399 C 2070.841 334.194, 2071.567 336.800, 2071.769 336.192 C 2072.527 333.919, 2060.553 279, 2059.300 279 C 2059.007 279, 2059.044 280.012, 2059.383 281.250 M 1847.156 311.258 C 1843.899 328.296, 1840.921 346.264, 1841.212 347.136 C 1841.391 347.673, 1843.258 338.604, 1845.362 326.982 C 1847.465 315.361, 1848.998 305.664, 1848.768 305.434 C 1848.538 305.205, 1847.813 307.825, 1847.156 311.258 M 2073.421 348 C 2073.806 350.475, 2075.229 359.563, 2076.583 368.195 C 2077.936 376.827, 2080.114 392.577, 2081.422 403.195 C 2082.729 413.813, 2083.844 421.051, 2083.900 419.280 C 2084.121 412.188, 2074.668 345.307, 2073.260 344 C 2072.964 343.725, 2073.037 345.525, 2073.421 348 M 1833 404.599 C 1833 405.662, 1832.125 416.650, 1831.056 429.016 C 1829.987 441.382, 1828.539 461.175, 1827.839 473 C 1826.212 500.491, 1826.198 588.779, 1827.817 616.500 C 1829.804 650.530, 1834.465 703.273, 1834.873 696.352 C 1834.943 695.171, 1834.112 684.371, 1833.027 672.352 C 1825.464 588.569, 1825.334 510.860, 1832.610 423.190 C 1833.492 412.569, 1833.940 403.607, 1833.606 403.273 C 1833.273 402.940, 1833 403.536, 1833 404.599 M 2091.430 565 C 2091.430 577.925, 2091.573 583.212, 2091.747 576.750 C 2091.921 570.288, 2091.921 559.712, 2091.747 553.250 C 2091.573 546.788, 2091.430 552.075, 2091.430 565 M 2090.216 601.500 C 2090.093 608.650, 2089.797 621.025, 2089.559 629 L 2089.125 643.500 2090.070 629.500 C 2090.589 621.800, 2090.885 609.425, 2090.727 602 L 2090.439 588.500 2090.216 601.500 M 2081.242 725.500 C 2080.001 735.950, 2077.836 751.860, 2076.431 760.856 C 2075.027 769.851, 2074.070 777.404, 2074.306 777.639 C 2075.400 778.733, 2084.368 713.968, 2083.800 709.079 C 2083.635 707.660, 2082.484 715.050, 2081.242 725.500 M 1841.088 744.500 C 1841.040 745.600, 1841.905 751.900, 1843.011 758.500 C 1845.255 771.899, 1850.207 795.732, 1849.451 789.500 C 1848.571 782.242, 1841.177 742.458, 1841.088 744.500 M 2071.118 791.502 C 2069.817 798.622, 2066.776 812.965, 2064.362 823.376 C 2061.947 833.786, 2060.155 842.488, 2060.380 842.713 C 2061.451 843.784, 2074.411 783.370, 2073.795 780.175 C 2073.624 779.285, 2072.419 784.383, 2071.118 791.502 M 1855.068 817.041 C 1854.989 818.820, 1863.761 852.094, 1864.505 852.838 C 1864.777 853.110, 1864.987 852.921, 1864.972 852.417 C 1864.913 850.507, 1855.133 815.572, 1855.068 817.041 M 2191 869.442 C 2153.304 874.912, 2118.186 892.269, 2087.097 920.796 C 2059.106 946.481, 2035.360 985.658, 2026.533 1020.717 C 2015.129 1066.013, 2019.244 1105.968, 2038.889 1140.670 C 2061.634 1180.851, 2102.796 1203.855, 2152.151 1203.969 C 2200.361 1204.080, 2247.719 1182.251, 2286.163 1142.198 C 2336.035 1090.239, 2356.166 1016.130, 2336.439 957.120 C 2329.343 935.894, 2320.365 921.134, 2305.164 905.705 C 2296.153 896.559, 2283.845 887.444, 2273.434 882.208 C 2264.877 877.904, 2248.530 872.373, 2238.781 870.483 C 2227.283 868.255, 2202.853 867.722, 2191 869.442 M 1883.046 905.500 C 1882.949 907.768, 1898.216 936.635, 1904.569 946.197 C 1911.790 957.064, 1927.550 974.230, 1933.170 977.348 L 1936.500 979.196 1933 976.449 C 1924.951 970.130, 1911.916 955.730, 1905.669 946.257 C 1901.993 940.681, 1895.408 929.005, 1891.037 920.310 C 1886.665 911.614, 1883.069 904.950, 1883.046 905.500 M 2019.865 943.239 C 2011.278 957.480, 1999.360 970.599, 1988.437 977.834 C 1974.469 987.086, 1957.392 988.426, 1942 981.476 C 1938.975 980.111, 1937.373 979.669, 1938.440 980.496 C 1942.410 983.571, 1951.576 986.284, 1959.591 986.757 C 1968.967 987.310, 1976.089 985.632, 1985.460 980.661 C 1996.571 974.768, 2014.006 955.977, 2022.556 940.679 C 2026.648 933.357, 2024.714 935.197, 2019.865 943.239" stroke="none" fill="#c6c1e5" fill-rule="evenodd"/>
    <path id="sPC" class="substructure" d="M 2477 144.603 C 2445.645 146.704, 2426.749 148.975, 2402.223 153.589 C 2374.857 158.737, 2357.206 163.219, 2339.468 169.524 C 2299.789 183.627, 2274.553 198.311, 2254.825 218.776 C 2239.656 234.511, 2232.719 249.748, 2232.640 267.500 C 2232.556 286.387, 2239.488 301.344, 2256.429 318.831 C 2277.066 340.132, 2309.092 357.958, 2351 371.470 C 2457.424 405.783, 2608.342 402.799, 2704.500 364.483 C 2746.882 347.594, 2776.668 325.036, 2788.981 300.500 C 2794.200 290.101, 2796 282.663, 2796 271.500 C 2796 255.976, 2791.835 244.484, 2781.020 230.166 C 2748.488 187.099, 2666.252 155.408, 2562.500 145.956 C 2550.686 144.880, 2487.734 143.883, 2477 144.603 M 2988.382 163.487 C 2985.018 164.256, 2980.743 165.593, 2978.882 166.458 C 2977.022 167.322, 2976.400 167.764, 2977.500 167.440 C 2990.012 163.751, 2991.978 163.503, 3008.500 163.531 C 3020.856 163.552, 3027.530 164.025, 3032.932 165.264 C 3037.020 166.201, 3040.539 166.794, 3040.753 166.580 C 3040.966 166.367, 3037.847 165.407, 3033.820 164.447 C 3023.968 162.099, 2996.947 161.527, 2988.382 163.487 M 3156.007 235.108 C 3159.035 238.074, 3166.928 245.675, 3173.546 252 C 3180.164 258.325, 3190.916 269.125, 3197.439 276 C 3206.420 285.465, 3207.260 286.197, 3200.900 279.015 C 3190.088 266.808, 3169.828 246.550, 3158.987 237.108 C 3153.242 232.104, 3152.279 231.458, 3156.007 235.108 M 2925.112 289.872 C 2924.975 293.992, 2927.656 312.423, 2929.491 319.977 C 2931.352 327.632, 2931.330 324.327, 2929.459 315.096 C 2928.612 310.914, 2927.313 302.769, 2926.572 296.996 C 2925.831 291.223, 2925.174 288.017, 2925.112 289.872 M 3292.316 698.990 C 3279.882 703.412, 3255.788 704.172, 3240 700.640 C 3229.176 698.219, 3227.285 697.959, 3232 699.540 C 3247.907 704.872, 3275.817 705.358, 3290.750 700.562 C 3295.287 699.105, 3299 697.708, 3299 697.456 C 3299 696.750, 3297.910 697, 3292.316 698.990" stroke="none" fill="#b1d3ee" fill-rule="evenodd"/>
    <path id="pPC" class="substructure" d="M 2989 164.441 C 2975.114 167.365, 2965.060 172.507, 2954.796 181.935 C 2926.600 207.835, 2917.897 257.831, 2930.596 320.958 C 2934.438 340.058, 2936.512 347.753, 2943.676 369.500 C 2962.467 426.536, 2994.233 486.540, 3033.144 538.500 C 3053.721 565.976, 3066.504 581.187, 3085.726 601.062 C 3138.038 655.156, 3192.106 690.218, 3239 700.461 C 3249.256 702.701, 3270.847 703.571, 3279.566 702.096 C 3308.052 697.277, 3326.801 681.541, 3338.633 652.518 C 3349.008 627.072, 3350.250 587.148, 3342.009 544.009 C 3338.761 527.007, 3329.402 495.871, 3320.932 473.895 C 3264.017 326.212, 3135.682 188.277, 3034 165.497 C 3023.820 163.216, 2997.726 162.604, 2989 164.441 M 2616 423.019 C 2599.593 423.943, 2568.790 426.877, 2568.085 427.582 C 2567.431 428.236, 2570.458 428.048, 2585.500 426.501 C 2612.675 423.707, 2646.130 422.728, 2672.250 423.962 C 2685.588 424.592, 2699.875 425.514, 2704 426.010 C 2713.394 427.140, 2719.541 427.098, 2712.500 425.952 C 2694.694 423.055, 2643.163 421.488, 2616 423.019 M 2520.500 435.081 C 2502.662 438.809, 2491.994 441.327, 2492.383 441.716 C 2492.744 442.078, 2530.166 434.458, 2532.500 433.548 C 2535.029 432.562, 2528.660 433.376, 2520.500 435.081 M 2754.083 433.396 C 2754.477 433.770, 2782.641 441.326, 2788 442.495 C 2795.060 444.035, 2780.716 439.410, 2769.207 436.436 C 2756.645 433.189, 2753.120 432.481, 2754.083 433.396 M 2856.964 475.685 C 2871.739 487.691, 2878.379 493.779, 2883.538 500.050 C 2892.108 510.467, 2894.958 513.519, 2891.430 508.500 C 2883.689 497.490, 2869.835 483.938, 2858.392 476.185 C 2854.618 473.628, 2854.291 473.514, 2856.964 475.685 M 2300 525.141 C 2287.988 533.768, 2275.698 543.438, 2273.970 545.622 C 2273.161 546.644, 2274.300 546.008, 2276.500 544.208 C 2278.700 542.409, 2285.720 537.014, 2292.100 532.219 C 2309.569 519.089, 2309.536 519.114, 2309 519.073 C 2308.725 519.052, 2304.675 521.783, 2300 525.141 M 2886.686 647.250 C 2880.756 656.437, 2869.024 670.928, 2859.058 681.375 C 2851.493 689.306, 2832.032 706.070, 2820.750 714.374 C 2816.488 717.512, 2813 720.314, 2813 720.601 C 2813 721.372, 2820.872 715.595, 2832.397 706.369 C 2845.485 695.891, 2860.689 681.412, 2870.075 670.487 C 2880.040 658.890, 2894.244 639, 2892.562 639 C 2892.260 639, 2889.615 642.712, 2886.686 647.250 M 2794 732.558 C 2787.675 736.655, 2779.575 741.553, 2776 743.442 C 2772.425 745.331, 2768.600 747.618, 2767.500 748.523 C 2766.400 749.428, 2768.650 748.483, 2772.500 746.421 C 2785.934 739.229, 2808.860 724.522, 2805.809 725.054 C 2805.639 725.084, 2800.325 728.460, 2794 732.558 M 2215.860 729.250 C 2227.055 746.945, 2244.314 763.791, 2264.250 776.480 C 2265.762 777.442, 2267 777.995, 2267 777.707 C 2267 777.420, 2263.287 774.696, 2258.750 771.654 C 2243.360 761.337, 2228.811 747.012, 2219.237 732.750 C 2214.665 725.938, 2212.050 723.229, 2215.860 729.250 M 2556.500 816.028 C 2549.900 817.004, 2536.673 818.613, 2527.106 819.603 C 2517.539 820.594, 2510.243 821.581, 2510.892 821.797 C 2513.492 822.664, 2571.565 815.768, 2572.899 814.434 C 2573.611 813.722, 2569.186 814.152, 2556.500 816.028 M 2376 816.555 C 2384.252 818.227, 2404.243 820.782, 2414 821.412 C 2419.812 821.788, 2419.024 821.578, 2410.500 820.481 C 2404.450 819.703, 2393.191 818.151, 2385.479 817.033 C 2369.794 814.759, 2366.253 814.580, 2376 816.555" stroke="none" fill="#9dd7c3" fill-rule="evenodd"/>
    <path id="V1" class="substructure" d="M 3269.644 842.019 C 3162.235 848.704, 3018.216 892.145, 2888 957.135 C 2841.190 980.498, 2813.501 996.315, 2777.500 1020.257 C 2703.547 1069.438, 2656.354 1117.545, 2642.864 1157.500 C 2640.876 1163.386, 2640.500 1166.498, 2640.500 1177.052 C 2640.500 1189.535, 2640.521 1189.645, 2644.240 1197.171 C 2662.276 1233.664, 2729.760 1245.744, 2830 1230.424 C 3043.164 1197.844, 3314.315 1061.872, 3388.728 950.243 C 3422.513 899.560, 3408.905 861.710, 3351.819 847.588 C 3331.022 842.443, 3298.379 840.231, 3269.644 842.019" stroke="none" fill="#8a72a5" fill-rule="evenodd"/>
    <path id="iPC" class="substructure" d="M 2618.364 424.071 C 2581.363 425.829, 2549.879 429.920, 2514.090 437.620 C 2500.016 440.649, 2485.429 443.786, 2481.675 444.592 C 2477.921 445.399, 2471.621 447.145, 2467.675 448.474 C 2463.729 449.803, 2453.888 452.956, 2445.806 455.480 C 2437.724 458.005, 2421.974 463.623, 2410.806 467.965 C 2346.174 493.095, 2293.769 525.327, 2256.065 563.139 C 2204.874 614.477, 2188.894 669.293, 2210.862 718.200 C 2216.806 731.433, 2228.946 747.051, 2242.807 759.296 C 2272.848 785.834, 2321.782 806.566, 2375.378 815.463 C 2412.012 821.544, 2423.616 822.451, 2465 822.469 C 2504.962 822.486, 2508.858 822.233, 2550 816.945 C 2591.650 811.591, 2635.528 801.371, 2676 787.598 C 2743.864 764.502, 2796.049 736.220, 2840.500 698.447 C 2876.473 667.879, 2901.015 631.699, 2909.654 596.500 C 2912.161 586.288, 2912.161 559.367, 2909.655 548.500 C 2907.045 537.183, 2896.829 516.445, 2888.965 506.500 C 2871.284 484.142, 2848.077 467.303, 2815.455 453.162 C 2797.356 445.317, 2793.009 443.869, 2767 437.027 C 2724.285 425.789, 2674.162 421.421, 2618.364 424.071" stroke="none" fill="#46c695" fill-rule="evenodd"/>
    <path id="aud1" class="substructure" d="M 2681.417 801.488 C 2636.957 808.237, 2576.327 832.146, 2537.922 858.075 C 2534.854 860.146, 2530.624 862.807, 2528.521 863.988 C 2526.419 865.169, 2522.629 867.818, 2520.099 869.875 C 2517.570 871.933, 2511.168 877.076, 2505.873 881.305 C 2493.664 891.056, 2473.935 911.449, 2467.735 920.726 C 2449.972 947.305, 2449.637 967.588, 2466.747 980.637 C 2482.778 992.865, 2516.907 994.298, 2558.578 984.494 C 2603.268 973.980, 2659.717 947.244, 2698.562 918.191 C 2735.624 890.473, 2757.312 863.584, 2760.944 840.849 C 2763.952 822.021, 2753.868 808.430, 2732.415 802.397 C 2724.336 800.125, 2693.963 799.584, 2681.417 801.488" stroke="none" fill="#fcbc79" fill-rule="evenodd"/>
    <path id="spinalcord_box" class="box" d="M 2417.500 3651.040 C 2322.900 3651.406, 2140.650 3652.012, 2012.500 3652.386 C 1884.350 3652.761, 1720.775 3653.260, 1649 3653.496 C 1577.225 3653.732, 1473.172 3654.067, 1417.772 3654.241 C 1337.939 3654.491, 1316.780 3654.820, 1315.772 3655.828 C 1314.751 3656.849, 1314.459 3704.499, 1314.292 3897.300 C 1314.177 4029.410, 1314.327 4139.603, 1314.625 4142.173 C 1315.573 4150.351, 1314.152 4149.955, 1344.500 4150.515 C 1359.350 4150.789, 1476.800 4151.454, 1605.500 4151.994 C 1734.200 4152.534, 1882.700 4153.215, 1935.500 4153.507 C 2225.275 4155.109, 2434.708 4156.018, 2566.494 4156.245 L 2714.487 4156.500 2715.656 4152.939 C 2716.786 4149.495, 2718.818 3910.218, 2719.318 3721.674 C 2719.495 3654.589, 2719.451 3652.812, 2717.559 3651.424 C 2715.391 3649.834, 2725.550 3649.847, 2417.500 3651.040 M 2510.917 3665.399 C 2510.688 3665.618, 2379.325 3666.072, 2219 3666.408 C 1716.565 3667.459, 1321.566 3669.167, 1320.844 3670.292 C 1320.483 3670.854, 1320.137 3775.582, 1320.076 3903.020 C 1319.985 4089.077, 1320.213 4134.923, 1321.232 4135.732 C 1322.068 4136.395, 1392.208 4136.953, 1527 4137.369 C 1917.783 4138.575, 2042.311 4139.085, 2186 4140.068 C 2265.475 4140.613, 2415.828 4141.341, 2520.117 4141.688 L 2709.734 4142.319 2710.364 4107.909 C 2711.374 4052.791, 2713.414 3668.520, 2712.706 3666.676 C 2712.110 3665.123, 2704.676 3665, 2611.698 3665 C 2556.497 3665, 2511.146 3665.179, 2510.917 3665.399" stroke="none" fill="#fc1512" fill-rule="evenodd"/>
    <path id="thalamux_box" class="box" d="M 2283.500 1321.911 C 2278.911 1322.452, 2278.518 1322.705, 2278.718 1325 C 2279.268 1331.290, 2278.911 1948.339, 2278.354 1954.750 C 2277.850 1960.556, 2278.001 1962.012, 2279.112 1962.060 C 2285.498 1962.335, 2405.278 1961.884, 2434 1961.476 C 2454.075 1961.191, 2586.825 1960.248, 2729 1959.380 C 2922.130 1958.200, 2987.810 1957.507, 2988.726 1956.639 C 2989.688 1955.726, 2989.968 1887.532, 2990.026 1639.224 C 2990.067 1465.285, 2989.825 1322.526, 2989.489 1321.982 C 2988.828 1320.913, 2292.573 1320.843, 2283.500 1321.911 M 2401.893 1327.750 L 2287.287 1328.008 2286.651 1362.754 C 2286.147 1390.299, 2285.436 1937.207, 2285.885 1952.412 L 2286 1956.325 2374.250 1955.681 C 2422.787 1955.326, 2579.500 1954.289, 2722.500 1953.375 C 2865.500 1952.461, 2982.725 1951.515, 2983 1951.273 C 2983.774 1950.592, 2984.215 1363.752, 2983.456 1344.250 L 2982.785 1327 2749.643 1327.246 C 2621.414 1327.381, 2464.927 1327.608, 2401.893 1327.750" stroke="none" fill="#7ad7c4" fill-rule="evenodd"/>
    <path id="thalamux_content" class="content structure" d="M 2616 1328.611 C 2495.083 1335.593, 2390.463 1394.968, 2334.274 1488.500 C 2289.901 1562.362, 2281.235 1651.737, 2310.504 1733.639 C 2319.866 1759.836, 2338.635 1794.176, 2356.251 1817.337 C 2412.567 1891.379, 2500.873 1941.893, 2598.500 1955.912 C 2702.547 1970.852, 2806.015 1944.121, 2884 1882.153 C 2895.773 1872.797, 2923.311 1845.396, 2932.392 1834 C 2965.889 1791.965, 2986.816 1743.727, 2994.645 1690.500 C 2997.124 1673.649, 2997.128 1632.397, 2994.652 1615.500 C 2987.681 1567.919, 2972.179 1527.541, 2945.511 1487.500 C 2911.973 1437.146, 2864.630 1396.166, 2807.500 1368.039 C 2766.648 1347.927, 2722.865 1335.390, 2676.436 1330.511 C 2662.136 1329.008, 2627.811 1327.929, 2616 1328.611" stroke="none" fill="#fbec1c" fill-rule="evenodd"/>
    <path id="thal_AN" class="substructure" d="M 2439.131 1389.541 C 2422.302 1393.192, 2403.557 1406.702, 2391.989 1423.516 C 2386.856 1430.977, 2380.103 1446.191, 2377.250 1456.723 C 2374.851 1465.579, 2374.604 1468.148, 2374.630 1484 C 2374.654 1498.833, 2374.992 1502.719, 2376.845 1509.500 C 2384.071 1535.936, 2401.362 1555.956, 2423.124 1563.084 C 2433.505 1566.484, 2450.326 1566.521, 2460.500 1563.165 C 2492.152 1552.725, 2515.124 1521.646, 2520.036 1482.620 C 2523.156 1457.831, 2516.732 1431.956, 2502.931 1413.725 C 2487.631 1393.511, 2463.313 1384.294, 2439.131 1389.541" stroke="none" fill="#ff8400" fill-rule="evenodd"/>
    <path id="thal_VA" class="substructure" d="M 2380.202 1574.022 C 2356.791 1580.156, 2337.387 1600.277, 2329.955 1626.128 C 2326.921 1636.683, 2326.234 1654.114, 2328.427 1664.934 C 2336.034 1702.479, 2364.593 1728, 2399 1728 C 2431.509 1728, 2458.878 1704.787, 2467.137 1670.209 C 2468.902 1662.821, 2469.138 1659.452, 2468.692 1648 C 2468.093 1632.614, 2466.596 1626.108, 2460.940 1614.326 C 2445.666 1582.505, 2411.989 1565.694, 2380.202 1574.022" stroke="none" fill="#f9918d" fill-rule="evenodd"/>
    <path id="thal_VL" class="substructure" d="M 2531.317 1619.503 C 2499.364 1626.449, 2468.117 1664.633, 2457.730 1709.429 C 2454.578 1723.020, 2454.598 1749.348, 2457.768 1760.309 C 2463.175 1779.007, 2473.748 1791.435, 2488.428 1796.350 C 2494.485 1798.378, 2507.521 1798.503, 2514.661 1796.602 C 2547.876 1787.758, 2579.895 1746.194, 2587.569 1701.961 C 2589.926 1688.368, 2589.149 1664.250, 2586.038 1654.500 C 2582.774 1644.270, 2578.522 1636.876, 2572.290 1630.594 C 2561.410 1619.626, 2547.754 1615.930, 2531.317 1619.503" stroke="none" fill="#ffbeb3" fill-rule="evenodd"/>
    <path id="thal_LD" class="substructure" d="M 2563 1528.002 C 2541.992 1530.864, 2527.651 1538.038, 2522.574 1548.227 C 2521.158 1551.068, 2520 1554.812, 2520 1556.547 C 2520 1573.134, 2542.424 1590.217, 2575 1598.447 C 2590.285 1602.308, 2599.484 1603.413, 2616.500 1603.432 C 2646.153 1603.465, 2666.814 1596.116, 2673.677 1583.093 C 2687.080 1557.661, 2640.834 1528.991, 2584 1527.498 C 2576.025 1527.288, 2566.575 1527.515, 2563 1528.002" stroke="none" fill="#9fdcc6" fill-rule="evenodd"/>
    <path id="thal_VPL" class="substructure" d="M 2651.539 1670.067 C 2624.787 1674.166, 2602.853 1689.456, 2591.563 1711.876 C 2571.403 1751.908, 2594.504 1799.896, 2639.864 1812.214 C 2650.293 1815.046, 2670.324 1815.259, 2681 1812.651 C 2690.364 1810.364, 2704.613 1803.304, 2712.248 1797.169 C 2724.311 1787.476, 2734.594 1771.319, 2737.496 1757.500 C 2742.693 1732.746, 2735.618 1709.344, 2717.634 1691.801 C 2704.530 1679.018, 2685.641 1670.692, 2667.500 1669.700 C 2662 1669.400, 2654.818 1669.565, 2651.539 1670.067" stroke="none" fill="#afb5d2" fill-rule="evenodd"/>
    <path id="thal_DM" class="substructure" d="M 2711.500 1365.042 C 2688.018 1367.703, 2664.096 1374.501, 2646.544 1383.500 C 2633.831 1390.019, 2626.277 1395.653, 2618.087 1404.728 C 2606.506 1417.559, 2601.427 1430.979, 2602.276 1446.500 C 2603.128 1462.059, 2608.998 1474.452, 2622.124 1488.399 C 2663.571 1532.441, 2754.113 1551.280, 2826.561 1530.937 C 2849.352 1524.538, 2866.858 1514.990, 2880.535 1501.500 C 2895.081 1487.154, 2900.816 1473.546, 2899.713 1456 C 2898.713 1440.108, 2891.990 1426.884, 2877.560 1412.419 C 2854.384 1389.190, 2819.673 1373.735, 2774.297 1366.442 C 2762.680 1364.575, 2723.356 1363.698, 2711.500 1365.042" stroke="none" fill="#ff4c66" fill-rule="evenodd"/>
    <path id="thal_LP" class="substructure" d="M 2713.500 1541.938 C 2689.489 1547.810, 2669.787 1587.386, 2672.399 1624.500 C 2673.955 1646.614, 2681.233 1662.078, 2693.356 1669.031 C 2700.270 1672.997, 2709.885 1673.198, 2717.737 1669.542 C 2731.465 1663.151, 2743.816 1645.157, 2750.044 1622.477 C 2753.108 1611.320, 2753.905 1587.687, 2751.597 1576.457 C 2748.370 1560.760, 2739.701 1547.491, 2729.709 1542.955 C 2725.436 1541.015, 2718.942 1540.608, 2713.500 1541.938" stroke="none" fill="#b2d2f1" fill-rule="evenodd"/>
    <path id="thal_Pulv" class="substructure" d="M 2866 1590.086 C 2863.525 1590.564, 2857.688 1592.835, 2853.028 1595.135 C 2846.220 1598.496, 2842.764 1601.102, 2835.428 1608.408 C 2813.150 1630.598, 2798.033 1663.871, 2790.862 1706.500 C 2788.238 1722.096, 2787.689 1754.346, 2789.822 1767.500 C 2794.568 1796.754, 2805.401 1818.152, 2820.791 1828.669 C 2829.319 1834.497, 2836.058 1836.337, 2846.962 1835.816 C 2854.328 1835.464, 2856.732 1834.871, 2863.060 1831.845 C 2877.465 1824.958, 2888.367 1814.699, 2899.556 1797.500 C 2928.859 1752.460, 2939.150 1681.824, 2923.344 1634.233 C 2918.868 1620.757, 2913.351 1611.230, 2905.497 1603.416 C 2893.405 1591.385, 2880.994 1587.196, 2866 1590.086" stroke="none" fill="#46c695" fill-rule="evenodd"/>
    <path id="thal_VPN" class="substructure" d="M 2762.500 1753.045 C 2748.929 1757.405, 2735.837 1779.664, 2735.750 1798.525 C 2735.684 1812.794, 2740.891 1819.988, 2751.290 1819.996 C 2757.564 1820.001, 2762.312 1817.478, 2768.661 1810.765 C 2779.379 1799.433, 2785.604 1780.474, 2783.031 1767 C 2780.895 1755.814, 2772.226 1749.921, 2762.500 1753.045" stroke="none" fill="#c5c0de" fill-rule="evenodd"/>
    <path id="thal_MGN" class="substructure" d="M 2926.885 1775.381 C 2919.088 1778.164, 2912.947 1784.530, 2908.281 1794.664 C 2906.153 1799.288, 2905.519 1802.369, 2905.229 1809.500 C 2904.909 1817.383, 2905.151 1819.057, 2907.182 1822.992 C 2913.280 1834.809, 2926.191 1835.111, 2936.724 1823.684 C 2949.708 1809.598, 2951.709 1785.848, 2940.609 1777.568 C 2936.602 1774.578, 2931.439 1773.756, 2926.885 1775.381" stroke="none" fill="#f4c08f" fill-rule="evenodd"/>
    <path id="thal_LGN" class="substructure" d="M 2866.763 1844.462 C 2856.908 1848.218, 2847.363 1858.337, 2842.882 1869.775 C 2841.146 1874.207, 2840.624 1877.646, 2840.570 1885 C 2840.505 1893.845, 2840.714 1894.879, 2843.606 1900 C 2848.094 1907.948, 2854.122 1911.519, 2862.923 1911.445 C 2875.477 1911.339, 2886.773 1902.817, 2893.795 1888.155 C 2899.511 1876.219, 2899.595 1861.218, 2893.994 1852.852 C 2889.515 1846.163, 2884.985 1843.599, 2877.109 1843.293 C 2873.188 1843.141, 2868.980 1843.616, 2866.763 1844.462" stroke="none" fill="#8a72a5" fill-rule="evenodd"/>
    </g>
</svg>
