<svg xmlns="http://www.w3.org/2000/svg" width="3756" height="4363" viewBox="0 0 3756 4363" version="1.1"><path id="medulla" d="M 2598.500 2901.067 C 2499.500 2901.426, 2273.150 2901.776, 2095.500 2901.845 L 1772.500 2901.971 1770.096 2904.720 L 1767.692 2907.470 1768.385 2963.985 C 1768.766 2995.068, 1769.490 3051.775, 1769.995 3090 C 1772.286 3263.722, 1772.385 3285.001, 1770.899 3284.987 C 1770.130 3284.980, 1766.575 3284.055, 1763 3282.932 C 1740.009 3275.709, 1705.139 3274.394, 1674.500 3279.595 C 1615.164 3289.668, 1555.542 3322.981, 1519.347 3366.286 C 1447.926 3451.736, 1477.223 3546.776, 1580.500 3564.672 C 1594.461 3567.092, 1628.157 3567.085, 1643.836 3564.659 C 1670.228 3560.577, 1695.418 3552.662, 1720.500 3540.570 C 1749 3526.831, 1768.485 3513.333, 1789.869 3492.515 C 1819.173 3463.987, 1836.998 3433.031, 1842.566 3401 C 1844.770 3388.316, 1844.094 3367.810, 1841.099 3356.500 C 1836.949 3340.834, 1827.849 3325.072, 1815.962 3312.962 L 1810 3306.887 1809.998 3203.694 C 1809.997 3146.937, 1809.698 3062.864, 1809.334 3016.865 L 1808.673 2933.230 1827.086 2932.641 C 1881.133 2930.913, 2445.401 2930.429, 2684.878 2931.906 C 2758.797 2932.362, 2781.362 2932.223, 2781.711 2931.313 C 2782.561 2929.095, 2780.518 2900.662, 2779.500 2900.537 C 2778.950 2900.469, 2697.500 2900.707, 2598.500 2901.067" stroke="none" fill="#f4946c" fill-rule="evenodd"/></svg>
