<svg xmlns="http://www.w3.org/2000/svg" width="3756" height="4363" viewBox="0 0 3756 4363" version="1.1"><path d="M 1878.134 3215.618 C 1876.863 3216.509, 1874.356 3219.546, 1872.563 3222.368 C 1850.545 3257.015, 1841.533 3376.221, 1854.460 3461.796 C 1860.611 3502.508, 1871.935 3526.492, 1883.624 3523.558 C 1887.826 3522.504, 1892.969 3516.910, 1896.433 3509.628 C 1922.464 3454.898, 1925.014 3295.201, 1900.865 3231.962 C 1896.647 3220.915, 1890.310 3214, 1884.406 3214 C 1882.228 3214, 1879.405 3214.728, 1878.134 3215.618" stroke="none" fill="#7fd3d6" fill-rule="evenodd"/><path d="M 2436.667 3190.984 C 2429.937 3198.983, 2424.756 3224.438, 2420.790 3269 C 2419.067 3288.363, 2419.067 3375.969, 2420.790 3396.500 C 2425.351 3450.837, 2432.518 3481.618, 2441.388 3484.963 C 2452.563 3489.177, 2461.222 3454.511, 2464.982 3390.500 C 2466.280 3368.401, 2466.279 3314.100, 2464.979 3291.361 C 2462.282 3244.158, 2456.676 3209.160, 2449.563 3195.124 C 2445.613 3187.329, 2440.991 3185.845, 2436.667 3190.984" stroke="none" fill="#df0000" fill-rule="evenodd"/><path d="M 2174.820 3103.580 C 2171.930 3104.469, 2168.073 3106.909, 2164.737 3109.957 C 2154.685 3119.144, 2149.330 3133.464, 2150.321 3148.500 C 2150.996 3158.733, 2153.088 3165.444, 2157.766 3172.389 C 2164.415 3182.261, 2172.789 3186.660, 2183.146 3185.720 C 2208.312 3183.439, 2221.978 3143.820, 2206.632 3117.635 C 2202.947 3111.347, 2195.663 3105.274, 2189.672 3103.495 C 2183.578 3101.686, 2180.926 3101.701, 2174.820 3103.580 M 2233.771 3224.750 C 2224.069 3235.787, 2218.302 3274.054, 2217.307 3334 C 2216.212 3399.985, 2222.260 3457.910, 2232.677 3481.197 C 2235.705 3487.965, 2237.972 3490.250, 2241.661 3490.250 C 2262.382 3490.250, 2270.355 3345.048, 2254.404 3258.160 C 2251.737 3243.631, 2247.278 3230.672, 2243.332 3225.982 C 2240.444 3222.550, 2236.188 3222.002, 2233.771 3224.750" stroke="none" fill="#00cd87" fill-rule="evenodd"/><path d="" stroke="none" fill="#00c8cf" fill-rule="evenodd"/><path d="M 2366.468 3143.904 C 2363.372 3145.230, 2357.379 3152.318, 2354.424 3158.149 C 2352.969 3161.021, 2350.065 3168.590, 2347.970 3174.969 C 2321.853 3254.503, 2323.341 3441.924, 2350.557 3500.829 C 2357.634 3516.147, 2364.462 3520.915, 2372.998 3516.501 C 2384.477 3510.565, 2395.915 3476.112, 2402.429 3427.847 C 2407.281 3391.896, 2408.428 3372.016, 2408.449 3323.500 C 2408.469 3279.028, 2407.804 3264.546, 2404.407 3235.500 C 2398.781 3187.386, 2388.367 3152.712, 2377.382 3145.515 C 2374.275 3143.479, 2369.207 3142.731, 2366.468 3143.904" stroke="none" fill="#04ccb1" fill-rule="evenodd"/></svg>