<svg xmlns="http://www.w3.org/2000/svg" width="3756" height="4363" viewBox="0 0 3756 4363" version="1.1"><path d="M 1785 2054.977 C 1779.752 2056.098, 1776.734 2057.511, 1773.150 2060.527 C 1767.772 2065.053, 1765.686 2070.297, 1765.207 2080.501 C 1764.840 2088.295, 1765.142 2090.574, 1767.458 2097.501 C 1774.820 2119.523, 1794.644 2139.806, 1815.757 2146.918 C 1823.334 2149.471, 1835.325 2149.725, 1840.782 2147.449 C 1849.536 2143.798, 1855.066 2135.326, 1855.775 2124.480 C 1857.574 2096.940, 1828.653 2061.698, 1799.115 2055.437 C 1791.904 2053.908, 1790.258 2053.855, 1785 2054.977 M 1630 2056.818 C 1619.597 2060.272, 1611.908 2065.741, 1605.482 2074.258 C 1595.642 2087.299, 1591.045 2101.774, 1590.269 2122.161 C 1588.433 2170.420, 1614.909 2215.428, 1650.460 2224.482 C 1666.400 2228.542, 1680.924 2224.193, 1693.591 2211.568 C 1706.329 2198.872, 1712.747 2181.920, 1713.682 2158.500 C 1714.984 2125.854, 1703.878 2095.831, 1682.323 2073.735 C 1670.458 2061.571, 1658.746 2055.951, 1644 2055.343 C 1637.693 2055.083, 1634.081 2055.463, 1630 2056.818 M 1821.973 2193.277 C 1806.921 2198.409, 1796.503 2210.781, 1791.894 2229 C 1790.158 2235.860, 1790.141 2256.319, 1791.864 2264.500 C 1796.990 2288.838, 1808.732 2310.710, 1825.988 2328.066 C 1854.537 2356.779, 1889.532 2362.048, 1909.744 2340.677 C 1928.206 2321.157, 1929.683 2286.320, 1913.532 2251.362 C 1903.336 2229.294, 1883.057 2207.122, 1864.500 2197.752 C 1850.505 2190.686, 1834.510 2189.003, 1821.973 2193.277" stroke="none" fill="#7fd3d6" fill-rule="evenodd"/><path d="M 1958.452 2068.406 C 1948.516 2072.734, 1939.008 2092.199, 1933.469 2119.557 C 1921.657 2177.894, 1926.959 2259.162, 1944.453 2287.914 C 1951.552 2299.581, 1959.855 2303.712, 1967.875 2299.565 C 1995.465 2285.298, 2008.544 2175.367, 1990.983 2105.345 C 1983.722 2076.394, 1971.632 2062.665, 1958.452 2068.406 M 2111.432 2392 C 2111.432 2405.475, 2111.574 2410.988, 2111.747 2404.250 C 2111.920 2397.512, 2111.920 2386.488, 2111.747 2379.750 C 2111.574 2373.012, 2111.432 2378.525, 2111.432 2392 M 2144.434 3095.500 C 2144.433 3109.250, 2144.574 3115.014, 2144.747 3108.308 C 2144.919 3101.603, 2144.920 3090.353, 2144.748 3083.308 C 2144.576 3076.264, 2144.434 3081.750, 2144.434 3095.500 M 2112.434 3170.500 C 2112.433 3184.250, 2112.574 3190.014, 2112.747 3183.308 C 2112.919 3176.603, 2112.920 3165.353, 2112.748 3158.308 C 2112.576 3151.264, 2112.434 3156.750, 2112.434 3170.500" stroke="none" fill="#ebbf00" fill-rule="evenodd"/><path d="M 2111.500 2058.468 C 2071.823 2067.122, 2040.475 2109.901, 2029.405 2170.500 C 2026.930 2184.047, 2026.370 2219.241, 2028.386 2234.500 C 2036.378 2294.985, 2067.426 2341.166, 2106.750 2351.057 L 2112 2352.378 2112 2480.939 C 2112.001 2855.039, 2113.143 3756.760, 2113.626 3764.739 C 2114.061 3771.929, 2114.664 3774.682, 2116.343 3777.147 C 2120.012 3782.537, 2123.530 3784.506, 2129.390 3784.451 C 2135.443 3784.394, 2139.986 3781.751, 2142.765 3776.671 C 2144.406 3773.672, 2144.486 3748.107, 2144.246 3306.500 C 2144.106 3049.650, 2143.719 2729.441, 2143.386 2594.924 L 2142.781 2350.348 2148.786 2348.158 C 2163.188 2342.907, 2181.319 2327.347, 2192.345 2310.776 C 2211.670 2281.732, 2222 2244.364, 2222 2203.500 C 2222 2162.893, 2212.202 2126.915, 2193.562 2099.074 C 2172.073 2066.979, 2141.604 2051.902, 2111.500 2058.468" stroke="none" fill="#db0000" fill-rule="evenodd"/><path d="M 2143.432 2558 C 2143.432 2571.475, 2143.574 2576.988, 2143.747 2570.250 C 2143.920 2563.512, 2143.920 2552.488, 2143.747 2545.750 C 2143.574 2539.012, 2143.432 2544.525, 2143.432 2558 M 2144.432 3336 C 2144.432 3349.475, 2144.574 3354.988, 2144.747 3348.250 C 2144.920 3341.512, 2144.920 3330.488, 2144.747 3323.750 C 2144.574 3317.012, 2144.432 3322.525, 2144.432 3336" stroke="none" fill="#ff1000" fill-rule="evenodd"/><path d="M 2407 2054.876 C 2393.777 2059.227, 2382.880 2072.370, 2374.147 2094.500 C 2353.161 2147.682, 2353.030 2245.609, 2373.860 2308.763 C 2383.889 2339.172, 2396.836 2358.825, 2411.263 2365.542 C 2431.106 2374.780, 2451.160 2358.443, 2463.483 2323 C 2484.428 2262.760, 2481.917 2162.355, 2457.950 2101.723 C 2448.845 2078.691, 2437.424 2062.920, 2425.667 2057.150 C 2420.548 2054.637, 2411.189 2053.497, 2407 2054.876 M 2327.500 2271.423 C 2314.764 2277.131, 2306.524 2303.509, 2305.297 2342.500 C 2303.761 2391.307, 2314.756 2428, 2330.918 2428 C 2345.942 2428, 2356.266 2400.420, 2357.684 2356.500 C 2359.113 2312.218, 2350.339 2277.218, 2336.343 2271.370 C 2332.346 2269.700, 2331.330 2269.706, 2327.500 2271.423 M 2143.480 2442 C 2143.480 2492.875, 2143.601 2513.688, 2143.750 2488.250 C 2143.898 2462.813, 2143.898 2421.188, 2143.750 2395.750 C 2143.601 2370.313, 2143.480 2391.125, 2143.480 2442 M 2112.475 3072.500 C 2112.475 3113.200, 2112.599 3129.704, 2112.750 3109.176 C 2112.901 3088.648, 2112.901 3055.348, 2112.750 3035.176 C 2112.598 3015.004, 2112.475 3031.800, 2112.475 3072.500 M 2144.480 3216 C 2144.480 3269.075, 2144.602 3290.787, 2144.750 3264.250 C 2144.898 3237.713, 2144.898 3194.287, 2144.750 3167.750 C 2144.602 3141.213, 2144.480 3162.925, 2144.480 3216" stroke="none" fill="#ff5e00" fill-rule="evenodd"/></svg>