<svg xmlns="http://www.w3.org/2000/svg" width="3756" height="4363" viewBox="0 0 3756 4363" version="1.1"><path d="M 1715.500 2372.393 C 1655.248 2382.320, 1600.041 2425.070, 1558.007 2494.349 C 1510.444 2572.741, 1484.191 2685.125, 1488.825 2790.500 C 1492.618 2876.765, 1509.818 2948.164, 1542.423 3013 C 1596.332 3120.199, 1682.465 3174.590, 1768.719 3155.902 C 1805.511 3147.931, 1839.150 3128.021, 1871.034 3095.345 C 1886.698 3079.292, 1894.436 3069.653, 1907.438 3050 C 1919.954 3031.082, 1926.052 3020.385, 1934.929 3001.781 C 1964.386 2940.045, 1980.510 2873.119, 1985.529 2791.750 L 1986.192 2781 2022.346 2781.040 C 2042.231 2781.061, 2095.400 2781.492, 2140.500 2781.997 C 2185.600 2782.501, 2282.182 2783.232, 2355.127 2783.621 L 2487.754 2784.328 2488.988 2782.023 C 2490.317 2779.539, 2490.340 2764.508, 2489.138 2683.453 C 2488.573 2645.356, 2488.305 2640.109, 2486.805 2637.822 L 2485.109 2635.237 2350.805 2634.964 C 2276.937 2634.813, 2213.575 2634.607, 2210 2634.505 C 2206.425 2634.402, 2151.911 2634.240, 2088.859 2634.143 C 1999.330 2634.006, 1974.002 2633.697, 1973.235 2632.734 C 1972.695 2632.055, 1970.579 2624.750, 1968.533 2616.500 C 1955.308 2563.171, 1931.781 2509.305, 1905.283 2471.689 C 1889.755 2449.645, 1868.559 2426.518, 1851.500 2413.005 C 1827.154 2393.720, 1798.506 2379.678, 1771.500 2373.790 C 1759.802 2371.240, 1727.404 2370.431, 1715.500 2372.393" stroke="none" fill="#e38cbc" fill-rule="evenodd"/></svg>