<svg xmlns="http://www.w3.org/2000/svg" width="3756" height="4363" viewBox="0 0 3756 4363" version="1.1"><path d="M 2161.880 3021.794 C 2153.988 3025.917, 2150.489 3031.968, 2150.532 3041.422 C 2150.557 3047.135, 2151.087 3049.504, 2153.278 3053.709 C 2156.731 3060.335, 2162.982 3066.350, 2170 3069.798 C 2177.354 3073.411, 2189.286 3073.641, 2195.595 3070.292 C 2211.007 3062.110, 2212.155 3042.995, 2198.080 3028.920 C 2191.090 3021.930, 2184.001 3019, 2174.077 3019 C 2168.522 3019, 2166.218 3019.528, 2161.880 3021.794" stroke="none" fill="#00cd87" fill-rule="evenodd"/><path d="M 2207.500 2488.029 C 2190.535 2490.568, 2174.969 2503.197, 2165.410 2522.179 C 2151.879 2549.047, 2155.225 2582.472, 2173.240 2600.392 C 2180.465 2607.580, 2186.349 2610.725, 2195.502 2612.293 C 2220.347 2616.549, 2246.964 2594.863, 2255.435 2563.464 C 2256.320 2560.184, 2257.321 2552.992, 2257.659 2547.482 C 2259.896 2511.086, 2236.750 2483.651, 2207.500 2488.029" stroke="none" fill="#00c8cf" fill-rule="evenodd"/><path d="M 2419.972 2848.877 C 2383.774 2860.462, 2339.289 2920.417, 2321.486 2981.609 C 2315.493 3002.211, 2313.480 3025.167, 2316.443 3039.144 C 2325.204 3080.478, 2367.759 3070.439, 2407.376 3017.693 C 2441.456 2972.319, 2462.676 2911.829, 2457.082 2876 C 2453.517 2853.175, 2439.212 2842.719, 2419.972 2848.877" stroke="none" fill="#df0000" fill-rule="evenodd"/></svg>