<svg xmlns="http://www.w3.org/2000/svg" width="3756" height="4363" viewBox="0 0 3756 4363" version="1.1"><path d="M 2207 2384.508 C 2195.783 2387.567, 2187.095 2392.853, 2177.472 2402.474 C 2167.418 2412.526, 2163.213 2419.705, 2160.430 2431.565 C 2154.202 2458.113, 2174.613 2479.317, 2202.265 2475.027 C 2220.582 2472.185, 2236.023 2462.437, 2247.025 2446.771 C 2253.932 2436.936, 2256.499 2428.867, 2256.499 2417 C 2256.499 2409.407, 2256.070 2406.572, 2254.362 2402.878 C 2251.261 2396.170, 2245.483 2390.275, 2238.560 2386.759 C 2233.217 2384.044, 2231.317 2383.641, 2222.500 2383.344 C 2215.761 2383.118, 2210.706 2383.497, 2207 2384.508 M 2231.882 2932.381 C 2208.615 2940.695, 2198.041 2972.313, 2208.485 3002.345 C 2219.211 3033.186, 2250.536 3045.286, 2270.885 3026.446 C 2286.418 3012.066, 2291.008 2985.372, 2281.950 2962.095 C 2276.412 2947.864, 2264.185 2935.090, 2253.176 2932.032 C 2248.108 2930.625, 2236.253 2930.819, 2231.882 2932.381" stroke="none" fill="#7fd3d6" fill-rule="evenodd"/><path d="M 2028.500 2431.011 C 1996.292 2436.812, 1972.898 2467.310, 1972.898 2503.500 C 1972.898 2523.252, 1978.843 2538.864, 1990.990 2551.010 C 2002.127 2562.147, 2014.976 2567.421, 2030.635 2567.281 C 2058.067 2567.036, 2082.525 2546.635, 2092.156 2515.965 C 2094.181 2509.516, 2094.492 2506.527, 2094.440 2494 C 2094.386 2481.046, 2094.094 2478.638, 2091.701 2471.422 C 2088.966 2463.178, 2083.904 2454.378, 2078.081 2447.745 C 2073.553 2442.588, 2062.670 2435.579, 2055.384 2433.127 C 2048.236 2430.722, 2035.620 2429.729, 2028.500 2431.011 M 2042.748 2688.427 C 2028.442 2693.532, 2016.816 2713.467, 2010.783 2743.237 C 2008.777 2753.131, 2008.506 2757.356, 2008.551 2778 C 2008.595 2798.242, 2008.903 2802.886, 2010.771 2811.500 C 2015.166 2831.763, 2021.179 2845.753, 2029.326 2854.666 C 2035.495 2861.416, 2040.851 2864.267, 2047.488 2864.334 C 2064.390 2864.505, 2079.159 2843.020, 2086.070 2808.208 C 2088.758 2794.667, 2089.730 2768.628, 2088.094 2753.976 C 2086.057 2735.720, 2080.124 2715.462, 2073.789 2705.129 C 2069.900 2698.786, 2062.665 2691.783, 2057.500 2689.363 C 2051.854 2686.717, 2048.191 2686.484, 2042.748 2688.427 M 2191.391 2690.432 C 2180.517 2695.165, 2172.577 2712.116, 2168.407 2739.500 C 2165.901 2755.954, 2165.846 2795.449, 2168.305 2812 C 2172.924 2843.081, 2179.757 2858.710, 2191.227 2864.426 C 2203.894 2870.738, 2215.422 2865.369, 2222.931 2849.659 C 2230.511 2833.800, 2234 2812.061, 2234 2780.693 C 2234 2740.826, 2228.021 2711.274, 2217.310 2698.202 C 2210.881 2690.357, 2199.441 2686.927, 2191.391 2690.432 M 2318.495 3375 C 2318.495 3589.775, 2318.610 3677.637, 2318.750 3570.250 C 2318.890 3462.863, 2318.890 3287.137, 2318.750 3179.750 C 2318.610 3072.363, 2318.495 3160.225, 2318.495 3375 M 2305.491 3231 C 2305.491 3353.925, 2305.608 3404.213, 2305.750 3342.750 C 2305.892 3281.288, 2305.892 3180.713, 2305.750 3119.250 C 2305.608 3057.788, 2305.491 3108.075, 2305.491 3231 M 2304.482 3659 C 2304.482 3715.925, 2304.602 3739.213, 2304.750 3710.750 C 2304.897 3682.287, 2304.897 3635.713, 2304.750 3607.250 C 2304.602 3578.787, 2304.482 3602.075, 2304.482 3659" stroke="none" fill="#ebbf00" fill-rule="evenodd"/><path d="M 2323.467 2274.163 C 2307.483 2288.198, 2300.047 2348.464, 2308.952 2391.797 C 2311.570 2404.534, 2311.188 2405.380, 2299.784 2412.117 C 2287.632 2419.295, 2283.002 2425.647, 2276.908 2443.500 C 2273.489 2453.516, 2273.506 2472.142, 2276.943 2482.828 C 2280.002 2492.337, 2285.560 2500.820, 2294.117 2509.045 C 2297.903 2512.683, 2301 2516.349, 2301 2517.192 C 2301 2518.034, 2299.629 2521.746, 2297.954 2525.441 C 2287.381 2548.758, 2278.860 2597.643, 2273.800 2664 C 2271.815 2690.034, 2272.143 2770.586, 2274.338 2796 C 2279.046 2850.532, 2286.058 2883.949, 2297.211 2905 C 2299.979 2910.225, 2302.976 2916.525, 2303.872 2919 C 2305.366 2923.131, 2305.500 2958.014, 2305.500 3343.890 C 2305.500 3716.574, 2305.670 3764.365, 2307 3765.025 C 2313.262 3768.129, 2314.186 3768.372, 2315.815 3767.345 C 2317.389 3766.352, 2317.533 3739.475, 2318 3358.891 C 2318.275 3134.826, 2318.834 2950.986, 2319.243 2950.358 C 2319.651 2949.729, 2320.021 2944.779, 2320.064 2939.358 C 2320.162 2927.087, 2323.018 2913.173, 2326.348 2908.738 C 2334.954 2897.278, 2343.810 2870.242, 2349.403 2838.355 C 2366.630 2740.147, 2363.418 2591.116, 2342.763 2530.280 C 2340.059 2522.316, 2340.909 2520.144, 2347.650 2517.789 C 2356.004 2514.871, 2365.607 2504.730, 2371.977 2492.096 C 2375.496 2485.117, 2379.101 2472.104, 2379.566 2464.697 C 2379.937 2458.799, 2379.465 2456.270, 2376.019 2445.678 C 2371.048 2430.398, 2368.178 2425.865, 2358.066 2417.315 C 2353.633 2413.567, 2350.004 2409.718, 2350.003 2408.761 C 2350.001 2407.805, 2350.895 2403.755, 2351.989 2399.761 C 2363.273 2358.576, 2357.489 2290.918, 2341.344 2275.250 C 2337.390 2271.413, 2336.484 2271, 2332.017 2271 C 2327.889 2271, 2326.473 2271.524, 2323.467 2274.163 M 2440.120 2808.163 C 2426.920 2810.505, 2418.246 2825.188, 2416.001 2848.986 C 2412.368 2887.518, 2429.420 2930.653, 2451.561 2938.937 C 2460.528 2942.292, 2466.157 2941.255, 2473.350 2934.923 C 2483.033 2926.400, 2487.901 2910.935, 2487.964 2888.500 C 2488.087 2843.925, 2464.241 2803.882, 2440.120 2808.163" stroke="none" fill="#ff0e00" fill-rule="evenodd"/></svg>