<svg xmlns="http://www.w3.org/2000/svg" width="3756" height="4363" viewBox="0 0 3756 4363" version="1.1"><path d="M 2417.500 3651.040 C 2322.900 3651.406, 2140.650 3652.012, 2012.500 3652.386 C 1884.350 3652.761, 1720.775 3653.260, 1649 3653.496 C 1577.225 3653.732, 1473.172 3654.067, 1417.772 3654.241 C 1337.939 3654.491, 1316.780 3654.820, 1315.772 3655.828 C 1314.751 3656.849, 1314.459 3704.499, 1314.292 3897.300 C 1314.177 4029.410, 1314.327 4139.603, 1314.625 4142.173 C 1315.573 4150.351, 1314.152 4149.955, 1344.500 4150.515 C 1359.350 4150.789, 1476.800 4151.454, 1605.500 4151.994 C 1734.200 4152.534, 1882.700 4153.215, 1935.500 4153.507 C 2225.275 4155.109, 2434.708 4156.018, 2566.494 4156.245 L 2714.487 4156.500 2715.656 4152.939 C 2716.786 4149.495, 2718.818 3910.218, 2719.318 3721.674 C 2719.495 3654.589, 2719.451 3652.812, 2717.559 3651.424 C 2715.391 3649.834, 2725.550 3649.847, 2417.500 3651.040 M 2510.917 3665.399 C 2510.688 3665.618, 2379.325 3666.072, 2219 3666.408 C 1716.565 3667.459, 1321.566 3669.167, 1320.844 3670.292 C 1320.483 3670.854, 1320.137 3775.582, 1320.076 3903.020 C 1319.985 4089.077, 1320.213 4134.923, 1321.232 4135.732 C 1322.068 4136.395, 1392.208 4136.953, 1527 4137.369 C 1917.783 4138.575, 2042.311 4139.085, 2186 4140.068 C 2265.475 4140.613, 2415.828 4141.341, 2520.117 4141.688 L 2709.734 4142.319 2710.364 4107.909 C 2711.374 4052.791, 2713.414 3668.520, 2712.706 3666.676 C 2712.110 3665.123, 2704.676 3665, 2611.698 3665 C 2556.497 3665, 2511.146 3665.179, 2510.917 3665.399" stroke="none" fill="#fc1512" fill-rule="evenodd"/></svg>