<svg xmlns="http://www.w3.org/2000/svg" width="3756" height="4363" viewBox="0 0 3756 4363" version="1.1"><path d="M 2404.830 2055.337 C 2383.335 2063.373, 2366.932 2099.738, 2360.326 2154 C 2357.897 2173.953, 2357.883 2223.297, 2360.300 2244 C 2366.499 2297.081, 2379.857 2336.090, 2398.663 2356.025 C 2406.730 2364.577, 2413.483 2368.008, 2422.187 2367.978 C 2432.793 2367.941, 2441.593 2362.662, 2449.405 2351.649 C 2461.201 2335.020, 2469.301 2311.190, 2473.930 2279.500 C 2483.930 2211.045, 2474.785 2133.356, 2451.225 2086.612 C 2445.689 2075.628, 2443.471 2072.347, 2437.558 2066.394 C 2433.676 2062.485, 2428.475 2058.255, 2426 2056.994 C 2420.445 2054.162, 2410.131 2053.355, 2404.830 2055.337" stroke="none" fill="#ff5e00" fill-rule="evenodd"/></svg>