<svg xmlns="http://www.w3.org/2000/svg" width="3756" height="4363" viewBox="0 0 3756 4363" version="1.1"><path d="M 2439.131 1389.541 C 2422.302 1393.192, 2403.557 1406.702, 2391.989 1423.516 C 2386.856 1430.977, 2380.103 1446.191, 2377.250 1456.723 C 2374.851 1465.579, 2374.604 1468.148, 2374.630 1484 C 2374.654 1498.833, 2374.992 1502.719, 2376.845 1509.500 C 2384.071 1535.936, 2401.362 1555.956, 2423.124 1563.084 C 2433.505 1566.484, 2450.326 1566.521, 2460.500 1563.165 C 2492.152 1552.725, 2515.124 1521.646, 2520.036 1482.620 C 2523.156 1457.831, 2516.732 1431.956, 2502.931 1413.725 C 2487.631 1393.511, 2463.313 1384.294, 2439.131 1389.541" stroke="none" fill="#ff8400" fill-rule="evenodd"/><path d="M 2380.202 1574.022 C 2356.791 1580.156, 2337.387 1600.277, 2329.955 1626.128 C 2326.921 1636.683, 2326.234 1654.114, 2328.427 1664.934 C 2336.034 1702.479, 2364.593 1728, 2399 1728 C 2431.509 1728, 2458.878 1704.787, 2467.137 1670.209 C 2468.902 1662.821, 2469.138 1659.452, 2468.692 1648 C 2468.093 1632.614, 2466.596 1626.108, 2460.940 1614.326 C 2445.666 1582.505, 2411.989 1565.694, 2380.202 1574.022" stroke="none" fill="#f9918d" fill-rule="evenodd"/><path d="M 2531.317 1619.503 C 2499.364 1626.449, 2468.117 1664.633, 2457.730 1709.429 C 2454.578 1723.020, 2454.598 1749.348, 2457.768 1760.309 C 2463.175 1779.007, 2473.748 1791.435, 2488.428 1796.350 C 2494.485 1798.378, 2507.521 1798.503, 2514.661 1796.602 C 2547.876 1787.758, 2579.895 1746.194, 2587.569 1701.961 C 2589.926 1688.368, 2589.149 1664.250, 2586.038 1654.500 C 2582.774 1644.270, 2578.522 1636.876, 2572.290 1630.594 C 2561.410 1619.626, 2547.754 1615.930, 2531.317 1619.503" stroke="none" fill="#ffbeb3" fill-rule="evenodd"/><path d="M 2563 1528.002 C 2541.992 1530.864, 2527.651 1538.038, 2522.574 1548.227 C 2521.158 1551.068, 2520 1554.812, 2520 1556.547 C 2520 1573.134, 2542.424 1590.217, 2575 1598.447 C 2590.285 1602.308, 2599.484 1603.413, 2616.500 1603.432 C 2646.153 1603.465, 2666.814 1596.116, 2673.677 1583.093 C 2687.080 1557.661, 2640.834 1528.991, 2584 1527.498 C 2576.025 1527.288, 2566.575 1527.515, 2563 1528.002" stroke="none" fill="#9fdcc6" fill-rule="evenodd"/><path d="M 2651.539 1670.067 C 2624.787 1674.166, 2602.853 1689.456, 2591.563 1711.876 C 2571.403 1751.908, 2594.504 1799.896, 2639.864 1812.214 C 2650.293 1815.046, 2670.324 1815.259, 2681 1812.651 C 2690.364 1810.364, 2704.613 1803.304, 2712.248 1797.169 C 2724.311 1787.476, 2734.594 1771.319, 2737.496 1757.500 C 2742.693 1732.746, 2735.618 1709.344, 2717.634 1691.801 C 2704.530 1679.018, 2685.641 1670.692, 2667.500 1669.700 C 2662 1669.400, 2654.818 1669.565, 2651.539 1670.067" stroke="none" fill="#afb5d2" fill-rule="evenodd"/><path d="M 2711.500 1365.042 C 2688.018 1367.703, 2664.096 1374.501, 2646.544 1383.500 C 2633.831 1390.019, 2626.277 1395.653, 2618.087 1404.728 C 2606.506 1417.559, 2601.427 1430.979, 2602.276 1446.500 C 2603.128 1462.059, 2608.998 1474.452, 2622.124 1488.399 C 2663.571 1532.441, 2754.113 1551.280, 2826.561 1530.937 C 2849.352 1524.538, 2866.858 1514.990, 2880.535 1501.500 C 2895.081 1487.154, 2900.816 1473.546, 2899.713 1456 C 2898.713 1440.108, 2891.990 1426.884, 2877.560 1412.419 C 2854.384 1389.190, 2819.673 1373.735, 2774.297 1366.442 C 2762.680 1364.575, 2723.356 1363.698, 2711.500 1365.042" stroke="none" fill="#ff4c66" fill-rule="evenodd"/><path d="M 2713.500 1541.938 C 2689.489 1547.810, 2669.787 1587.386, 2672.399 1624.500 C 2673.955 1646.614, 2681.233 1662.078, 2693.356 1669.031 C 2700.270 1672.997, 2709.885 1673.198, 2717.737 1669.542 C 2731.465 1663.151, 2743.816 1645.157, 2750.044 1622.477 C 2753.108 1611.320, 2753.905 1587.687, 2751.597 1576.457 C 2748.370 1560.760, 2739.701 1547.491, 2729.709 1542.955 C 2725.436 1541.015, 2718.942 1540.608, 2713.500 1541.938" stroke="none" fill="#b2d2f1" fill-rule="evenodd"/><path d="M 2866 1590.086 C 2863.525 1590.564, 2857.688 1592.835, 2853.028 1595.135 C 2846.220 1598.496, 2842.764 1601.102, 2835.428 1608.408 C 2813.150 1630.598, 2798.033 1663.871, 2790.862 1706.500 C 2788.238 1722.096, 2787.689 1754.346, 2789.822 1767.500 C 2794.568 1796.754, 2805.401 1818.152, 2820.791 1828.669 C 2829.319 1834.497, 2836.058 1836.337, 2846.962 1835.816 C 2854.328 1835.464, 2856.732 1834.871, 2863.060 1831.845 C 2877.465 1824.958, 2888.367 1814.699, 2899.556 1797.500 C 2928.859 1752.460, 2939.150 1681.824, 2923.344 1634.233 C 2918.868 1620.757, 2913.351 1611.230, 2905.497 1603.416 C 2893.405 1591.385, 2880.994 1587.196, 2866 1590.086" stroke="none" fill="#46c695" fill-rule="evenodd"/><path d="M 2762.500 1753.045 C 2748.929 1757.405, 2735.837 1779.664, 2735.750 1798.525 C 2735.684 1812.794, 2740.891 1819.988, 2751.290 1819.996 C 2757.564 1820.001, 2762.312 1817.478, 2768.661 1810.765 C 2779.379 1799.433, 2785.604 1780.474, 2783.031 1767 C 2780.895 1755.814, 2772.226 1749.921, 2762.500 1753.045" stroke="none" fill="#c5c0de" fill-rule="evenodd"/><path d="M 2926.885 1775.381 C 2919.088 1778.164, 2912.947 1784.530, 2908.281 1794.664 C 2906.153 1799.288, 2905.519 1802.369, 2905.229 1809.500 C 2904.909 1817.383, 2905.151 1819.057, 2907.182 1822.992 C 2913.280 1834.809, 2926.191 1835.111, 2936.724 1823.684 C 2949.708 1809.598, 2951.709 1785.848, 2940.609 1777.568 C 2936.602 1774.578, 2931.439 1773.756, 2926.885 1775.381" stroke="none" fill="#f4c08f" fill-rule="evenodd"/><path d="M 2866.763 1844.462 C 2856.908 1848.218, 2847.363 1858.337, 2842.882 1869.775 C 2841.146 1874.207, 2840.624 1877.646, 2840.570 1885 C 2840.505 1893.845, 2840.714 1894.879, 2843.606 1900 C 2848.094 1907.948, 2854.122 1911.519, 2862.923 1911.445 C 2875.477 1911.339, 2886.773 1902.817, 2893.795 1888.155 C 2899.511 1876.219, 2899.595 1861.218, 2893.994 1852.852 C 2889.515 1846.163, 2884.985 1843.599, 2877.109 1843.293 C 2873.188 1843.141, 2868.980 1843.616, 2866.763 1844.462" stroke="none" fill="#8a72a5" fill-rule="evenodd"/><path d="M 0 2181.500 L 0 4363.001 1878.250 4362.750 L 3756.500 4362.500 3756.750 2181.250 L 3757 0 1878.500 0 L 0 0 0 2181.500 M 0.499 2182 C 0.499 3381.825, 0.612 3872.662, 0.750 3272.750 C 0.888 2672.837, 0.888 1691.162, 0.750 1091.250 C 0.612 491.337, 0.499 982.175, 0.499 2182 M 2712.717 1364.117 C 2671.357 1368.102, 2632.767 1385.195, 2614.718 1407.525 C 2606.251 1417.999, 2600.985 1431.880, 2601.015 1443.644 C 2601.058 1460.629, 2610.383 1478.893, 2626.679 1493.909 C 2669.572 1533.432, 2751.922 1550.245, 2819.985 1533.375 C 2867.782 1521.529, 2898.326 1494.846, 2900.703 1462.862 C 2902.037 1444.909, 2892.952 1425.491, 2875.663 1409.346 C 2840.439 1376.451, 2774.541 1358.159, 2712.717 1364.117 M 2439 1388.937 C 2428.693 1391.585, 2424.789 1393.343, 2415.396 1399.564 C 2396.646 1411.985, 2383.123 1432.120, 2376.265 1457.830 C 2374.042 1466.162, 2373.676 1469.645, 2373.616 1483 C 2373.539 1500.313, 2374.772 1507.604, 2379.975 1520.597 C 2387.167 1538.558, 2399.272 1552.456, 2414.137 1559.820 C 2428.103 1566.738, 2439.510 1568.349, 2453.792 1565.419 C 2485.339 1558.946, 2512.024 1528.852, 2519.338 1491.500 C 2521.738 1479.244, 2522.263 1469.386, 2521.042 1459.500 C 2516.642 1423.849, 2497.827 1398.381, 2469.268 1389.419 C 2461.321 1386.925, 2447.676 1386.708, 2439 1388.937 M 2560.814 1528.013 C 2535.036 1532.090, 2519.958 1542.698, 2520.022 1556.710 C 2520.109 1575.725, 2548.313 1594.496, 2587.500 1601.618 C 2602.727 1604.386, 2632.414 1604.172, 2644.295 1601.209 C 2656.309 1598.213, 2663.548 1594.574, 2669.679 1588.447 C 2675.371 1582.760, 2676.575 1579.331, 2675.781 1571.071 C 2675.185 1564.871, 2669.349 1555.948, 2662.500 1550.765 C 2650.613 1541.769, 2631.346 1533.928, 2611.370 1529.958 C 2599.188 1527.537, 2570.743 1526.442, 2560.814 1528.013 M 2713.500 1541.938 C 2689.489 1547.810, 2669.787 1587.386, 2672.399 1624.500 C 2673.955 1646.614, 2681.233 1662.078, 2693.356 1669.031 C 2700.270 1672.997, 2709.885 1673.198, 2717.737 1669.542 C 2731.465 1663.151, 2743.816 1645.157, 2750.044 1622.477 C 2753.108 1611.320, 2753.905 1587.687, 2751.597 1576.457 C 2748.370 1560.760, 2739.701 1547.491, 2729.709 1542.955 C 2725.436 1541.015, 2718.942 1540.608, 2713.500 1541.938 M 2384.365 1572.426 C 2338.918 1582.806, 2314.212 1633.718, 2332.105 1680.117 C 2344.949 1713.423, 2379.116 1733.963, 2411.044 1727.572 C 2471.158 1715.540, 2490.453 1634.043, 2443.557 1590.246 C 2435.398 1582.627, 2423.688 1576.085, 2413.500 1573.455 C 2404.836 1571.218, 2391.687 1570.754, 2384.365 1572.426 M 2864.324 1589.991 C 2855.838 1592.215, 2852.565 1593.789, 2844.388 1599.578 C 2823.084 1614.658, 2804.371 1646.902, 2794.522 1685.500 C 2789.303 1705.952, 2787.574 1719.825, 2787.603 1741 C 2787.630 1760.169, 2788.868 1770.370, 2793.066 1786 C 2795.781 1796.106, 2803.767 1812.176, 2809.673 1819.418 C 2825.822 1839.216, 2850.058 1842.428, 2872.236 1827.710 C 2899.798 1809.417, 2922.193 1765.108, 2929.679 1714.058 C 2931.974 1698.407, 2931.955 1669.918, 2929.640 1657 C 2922.473 1616.991, 2905.855 1593.714, 2881.109 1589.021 C 2874.083 1587.688, 2872.834 1587.760, 2864.324 1589.991 M 2531.317 1619.503 C 2499.364 1626.449, 2468.117 1664.633, 2457.730 1709.429 C 2454.578 1723.020, 2454.598 1749.348, 2457.768 1760.309 C 2463.175 1779.007, 2473.748 1791.435, 2488.428 1796.350 C 2494.485 1798.378, 2507.521 1798.503, 2514.661 1796.602 C 2547.876 1787.758, 2579.895 1746.194, 2587.569 1701.961 C 2589.926 1688.368, 2589.149 1664.250, 2586.038 1654.500 C 2582.774 1644.270, 2578.522 1636.876, 2572.290 1630.594 C 2561.410 1619.626, 2547.754 1615.930, 2531.317 1619.503 M 2645.500 1670.424 C 2615.266 1677.416, 2593.910 1696.986, 2585.395 1725.500 C 2583.195 1732.865, 2582.920 1750.032, 2584.874 1758 C 2586.843 1766.030, 2594.101 1780.637, 2599.405 1787.242 C 2614.459 1805.987, 2641.822 1817.582, 2666.396 1815.628 C 2678.483 1814.667, 2686.394 1812.482, 2697.500 1807.034 C 2709.556 1801.121, 2718.017 1794.412, 2724.912 1785.298 C 2756.215 1743.921, 2736.781 1688.062, 2685.500 1672.014 C 2676.474 1669.190, 2654.598 1668.320, 2645.500 1670.424 M 2761.825 1753.400 C 2752.891 1756.591, 2742.961 1768.716, 2738.381 1782.026 C 2734.684 1792.773, 2734.531 1805.671, 2738.028 1811.911 C 2741.537 1818.173, 2744.679 1820.202, 2750.795 1820.155 C 2759.690 1820.086, 2767.457 1814.550, 2774.972 1802.922 C 2783.209 1790.177, 2786.100 1770.821, 2781.243 1760.934 C 2777.468 1753.251, 2770.171 1750.420, 2761.825 1753.400 M 2924.500 1775.905 C 2913.584 1780.984, 2904.684 1796.678, 2904.600 1811 C 2904.552 1818.989, 2906.102 1823.702, 2910.132 1827.824 C 2919.853 1837.767, 2935.295 1831.114, 2943.732 1813.350 C 2949.724 1800.732, 2949.516 1787.332, 2943.211 1779.839 C 2938.341 1774.051, 2931.552 1772.624, 2924.500 1775.905 M 2868.500 1843.399 C 2861.979 1845.461, 2858.406 1847.700, 2853.207 1852.981 C 2840.904 1865.480, 2836.106 1884.749, 2841.918 1898.310 C 2844.216 1903.669, 2852.052 1910.732, 2856.660 1911.596 C 2866.833 1913.504, 2877.147 1909.856, 2885.461 1901.408 C 2894.666 1892.055, 2899.681 1878.740, 2898.771 1866.070 C 2897.542 1848.943, 2883.714 1838.587, 2868.500 1843.399" stroke="none" fill="#ffffff" fill-rule="evenodd"/></svg>