<svg xmlns="http://www.w3.org/2000/svg" width="3756" height="4363" viewBox="0 0 3756 4363" version="1.1"><path d="M 2283.500 1321.911 C 2278.911 1322.452, 2278.518 1322.705, 2278.718 1325 C 2279.268 1331.290, 2278.911 1948.339, 2278.354 1954.750 C 2277.850 1960.556, 2278.001 1962.012, 2279.112 1962.060 C 2285.498 1962.335, 2405.278 1961.884, 2434 1961.476 C 2454.075 1961.191, 2586.825 1960.248, 2729 1959.380 C 2922.130 1958.200, 2987.810 1957.507, 2988.726 1956.639 C 2989.688 1955.726, 2989.968 1887.532, 2990.026 1639.224 C 2990.067 1465.285, 2989.825 1322.526, 2989.489 1321.982 C 2988.828 1320.913, 2292.573 1320.843, 2283.500 1321.911 M 2401.893 1327.750 L 2287.287 1328.008 2286.651 1362.754 C 2286.147 1390.299, 2285.436 1937.207, 2285.885 1952.412 L 2286 1956.325 2374.250 1955.681 C 2422.787 1955.326, 2579.500 1954.289, 2722.500 1953.375 C 2865.500 1952.461, 2982.725 1951.515, 2983 1951.273 C 2983.774 1950.592, 2984.215 1363.752, 2983.456 1344.250 L 2982.785 1327 2749.643 1327.246 C 2621.414 1327.381, 2464.927 1327.608, 2401.893 1327.750" stroke="none" fill="#7ad7c4" fill-rule="evenodd"/></svg>