<svg xmlns="http://www.w3.org/2000/svg" width="3756" height="4363" viewBox="0 0 3756 4363" version="1.1"><path d="M 2616 1328.611 C 2495.083 1335.593, 2390.463 1394.968, 2334.274 1488.500 C 2289.901 1562.362, 2281.235 1651.737, 2310.504 1733.639 C 2319.866 1759.836, 2338.635 1794.176, 2356.251 1817.337 C 2412.567 1891.379, 2500.873 1941.893, 2598.500 1955.912 C 2702.547 1970.852, 2806.015 1944.121, 2884 1882.153 C 2895.773 1872.797, 2923.311 1845.396, 2932.392 1834 C 2965.889 1791.965, 2986.816 1743.727, 2994.645 1690.500 C 2997.124 1673.649, 2997.128 1632.397, 2994.652 1615.500 C 2987.681 1567.919, 2972.179 1527.541, 2945.511 1487.500 C 2911.973 1437.146, 2864.630 1396.166, 2807.500 1368.039 C 2766.648 1347.927, 2722.865 1335.390, 2676.436 1330.511 C 2662.136 1329.008, 2627.811 1327.929, 2616 1328.611" stroke="none" fill="#fbec1c" fill-rule="evenodd"/></svg>