<svg xmlns="http://www.w3.org/2000/svg" width="3756" height="4363" viewBox="0 0 3756 4363" version="1.1"><path d="M 2327.436 2271.413 C 2320.234 2274.549, 2313.342 2287.039, 2309.605 2303.726 C 2303.799 2329.653, 2303.663 2371.387, 2309.308 2395.006 C 2311.346 2403.533, 2310.300 2405.829, 2302.281 2410.425 C 2287.455 2418.923, 2284.038 2423.448, 2276.178 2445 C 2274.936 2448.406, 2274.550 2452.903, 2274.593 2463.500 C 2274.646 2476.860, 2274.797 2477.876, 2277.888 2485.726 C 2281.714 2495.443, 2287.418 2503.539, 2295.537 2510.775 L 2301.429 2516.026 2300.089 2519.263 C 2296.119 2528.855, 2289.737 2548.864, 2287.575 2558.500 C 2267.420 2648.301, 2266.658 2798.902, 2285.972 2875.049 C 2289.561 2889.197, 2291.417 2894.132, 2298.559 2908.500 C 2302.897 2917.227, 2304.255 2921.153, 2305.133 2927.500 C 2305.931 2933.275, 2306.136 3050.933, 2305.869 3350.495 L 2305.500 3765.490 2309.482 3766.795 C 2311.672 3767.513, 2314.485 3767.844, 2315.732 3767.531 L 2318 3766.962 2318.013 3382.731 C 2318.021 3154.454, 2318.415 2989.571, 2318.983 2976.500 C 2319.509 2964.400, 2320.018 2949.100, 2320.113 2942.500 C 2320.355 2925.762, 2322.812 2914.531, 2327.899 2906.914 C 2354.985 2866.352, 2368.743 2714.887, 2355.912 2598.500 C 2352.646 2568.879, 2348.676 2547.728, 2343.363 2531.651 C 2340.181 2522.020, 2340.738 2520.208, 2347.626 2517.786 C 2360.374 2513.303, 2372.295 2496.713, 2377.583 2476.099 C 2380.810 2463.516, 2380.554 2458.556, 2375.977 2445 C 2370.325 2428.260, 2369.652 2427.296, 2354.213 2413.823 C 2349.491 2409.702, 2349.392 2409.282, 2351.520 2402.409 C 2354.737 2392.017, 2357.110 2374.352, 2357.687 2356.500 C 2359.118 2312.237, 2350.338 2277.217, 2336.343 2271.370 C 2332.352 2269.702, 2331.352 2269.707, 2327.436 2271.413" stroke="none" fill="#ff0e00" fill-rule="evenodd"/></svg>